<svg id="Layer_1" data-name="Layer 1" xmlns="http://www.w3.org/2000/svg" viewBox="0 0 130 124"><defs><style>.cls-1{fill:#464646;}</style></defs><title>ic-tit</title><path class="cls-1" d="M93.58,34.74H87.75A19.2,19.2,0,0,0,68.51,17.31h-7A19.2,19.2,0,0,0,42.25,34.74H36.42a3.87,3.87,0,0,0-3.9,3.83v66.36a3.87,3.87,0,0,0,3.9,3.83H93.58a3.87,3.87,0,0,0,3.9-3.83V38.57A3.87,3.87,0,0,0,93.58,34.74Zm-32.09-14h7a15.73,15.73,0,0,1,15.73,14H45.76A15.73,15.73,0,0,1,61.49,20.76ZM43.8,53.32a8.3,8.3,0,0,1-1.63-16.46V43.2a1.76,1.76,0,0,0,3.51,0V36.91A8.3,8.3,0,0,1,43.8,53.32Zm42.36,0A8.29,8.29,0,0,1,84.32,36.9v6.3a1.76,1.76,0,0,0,3.51,0V36.86a8.29,8.29,0,0,1-1.67,16.46Z"/><path class="cls-1" d="M88.37,30.61a15.07,15.07,0,0,1,1.32,2.67h3.76A19.2,19.2,0,0,0,82,21.12,19,19,0,0,1,88.37,30.61Z"/><path class="cls-1" d="M53.93,25.78a18.78,18.78,0,0,0-4.38,7.5h3.67A15.79,15.79,0,0,1,68,23.23H71.9a15.83,15.83,0,0,0-5.22-.94S59,21.9,53.93,25.78Z"/></svg>