<svg id="Layer_1" data-name="Layer 1" xmlns="http://www.w3.org/2000/svg" viewBox="0 0 240 240"><defs><style>.cls-1{fill:#a6a7a9;}.cls-2{fill:#fff;}</style></defs><title>comn-ic</title><rect class="cls-1" width="240" height="240" rx="12" ry="12"/><path class="cls-2" d="M98.4,105.12a9.9,9.9,0,0,0-19.79,0v16.67l19.79-11.4ZM88.47,93.7a9.69,9.69,0,1,0,0-19.37,9.69,9.69,0,1,0,0,19.37m30.17-17.35a9.68,9.68,0,1,0-9.85-9.67,9.82,9.82,0,0,0,9.85,9.67m9.93,11.46a9.89,9.89,0,0,0-19.78,0V104.4L128.57,93Zm53.19,36.36H168.29l-2.49.64L74.59,177.33H52.24a15.07,15.07,0,1,1,0-30.14H65.78l2.52-.68L159.51,94h22.25a15.09,15.09,0,1,1,0,30.17m0-39.84H158.13l-2.52.72L64.45,137.5H52.24A25,25,0,0,0,27,162.28C27,175.91,38.3,187,52.24,187H76l2.5-.67,91.17-52.51h12.12a24.75,24.75,0,1,0,0-49.49"/></svg>