<svg id="Layer_1" data-name="Layer 1" xmlns="http://www.w3.org/2000/svg" viewBox="0 0 30 30"><defs><style>.cls-1{fill:#fff;fill-rule:evenodd;}</style></defs><title>ic-event-o</title><path class="cls-1" d="M20,7.15a2.38,2.38,0,1,1-2.32-2.39A2.36,2.36,0,0,1,20,7.15Z"/><path class="cls-1" d="M7.05,20.12a2.37,2.37,0,1,1,2.36-2.38A2.35,2.35,0,0,1,7.05,20.12Z"/><path class="cls-1" d="M20,23.06a2.38,2.38,0,1,1-2.37-2.37A2.37,2.37,0,0,1,20,23.06Z"/><path class="cls-1" d="M12.35,9.5a2.37,2.37,0,1,1,2.37-2.37A2.36,2.36,0,0,1,12.35,9.5Z"/><path class="cls-1" d="M7,10.07a2.38,2.38,0,1,1-2.37,2.38A2.36,2.36,0,0,1,7,10.07Z"/><path class="cls-1" d="M23,10.07a2.38,2.38,0,1,1-2.37,2.35A2.36,2.36,0,0,1,23,10.07Z"/><path class="cls-1" d="M10,23.07a2.38,2.38,0,1,1,2.4,2.36A2.37,2.37,0,0,1,10,23.07Z"/><path class="cls-1" d="M23,20.12a2.37,2.37,0,1,1,2.36-2.37A2.36,2.36,0,0,1,23,20.12Z"/><path class="cls-1" d="M17.67,20.09A2.37,2.37,0,1,1,20,17.72,2.36,2.36,0,0,1,17.67,20.09Z"/><path class="cls-1" d="M12.35,20.12a2.37,2.37,0,1,1,2.37-2.37A2.36,2.36,0,0,1,12.35,20.12Z"/><path class="cls-1" d="M23,9.5a2.37,2.37,0,1,1,2.37-2.36A2.35,2.35,0,0,1,23,9.5Z"/><path class="cls-1" d="M9.41,23.08a2.37,2.37,0,1,1-2.36-2.39A2.36,2.36,0,0,1,9.41,23.08Z"/><path class="cls-1" d="M20.59,23.06A2.37,2.37,0,1,1,23,25.43,2.36,2.36,0,0,1,20.59,23.06Z"/><path class="cls-1" d="M9.41,7.13A2.37,2.37,0,1,1,7,4.76,2.35,2.35,0,0,1,9.41,7.13Z"/><path class="cls-1" d="M17.66,10.07a2.38,2.38,0,1,1,0,4.75,2.38,2.38,0,0,1,0-4.75Z"/><path class="cls-1" d="M10,12.44a2.36,2.36,0,0,1,2.37-2.37A2.38,2.38,0,1,1,10,12.44Z"/></svg>