<?xml version="1.0" encoding="utf-8"?>
<!-- Generator: Adobe Illustrator 22.0.0, SVG Export Plug-In . SVG Version: 6.00 Build 0)  -->
<svg version="1.2" baseProfile="tiny" id="Layer_1" xmlns="http://www.w3.org/2000/svg" xmlns:xlink="http://www.w3.org/1999/xlink"
	 x="0px" y="0px" viewBox="0 0 30 30" xml:space="preserve">
<g>
	<path fill-rule="evenodd" fill="#828282" d="M20,7.1c0,1.3-1.1,2.4-2.4,2.4c-1.3,0-2.4-1.1-2.4-2.4c0-1.3,1.1-2.4,2.4-2.3
		C19,4.8,20,5.9,20,7.1z"/>
	<path fill-rule="evenodd" fill="#828282" d="M7,20.1c-1.3,0-2.4-1-2.4-2.3c0-1.3,1-2.4,2.3-2.4c1.3,0,2.4,1,2.4,2.4
		C9.4,19.1,8.4,20.1,7,20.1z"/>
	<path fill-rule="evenodd" fill="#828282" d="M20,23.1c0,1.3-1.1,2.4-2.4,2.4c-1.3,0-2.4-1.1-2.4-2.4c0-1.3,1.1-2.3,2.4-2.3
		C19,20.7,20,21.7,20,23.1z"/>
	<path fill-rule="evenodd" fill="#828282" d="M12.3,9.5c-1.3,0-2.4-1-2.4-2.4c0-1.3,1.1-2.4,2.4-2.4c1.3,0,2.4,1.1,2.4,2.4
		C14.7,8.4,13.7,9.5,12.3,9.5z"/>
	<path fill-rule="evenodd" fill="#828282" d="M7,10.1c1.3,0,2.4,1.1,2.4,2.4c0,1.3-1.1,2.4-2.4,2.4c-1.3,0-2.4-1.1-2.4-2.4
		C4.7,11.1,5.7,10.1,7,10.1z"/>
	<path fill-rule="evenodd" fill="#828282" d="M23,10.1c1.3,0,2.4,1.1,2.4,2.4c0,1.3-1.1,2.3-2.4,2.3c-1.3,0-2.4-1.1-2.4-2.4
		C20.6,11.1,21.7,10.1,23,10.1z"/>
	<path fill-rule="evenodd" fill="#828282" d="M10,23.1c0-1.3,1-2.4,2.4-2.4c1.3,0,2.4,1,2.4,2.4c0,1.3-1,2.4-2.3,2.4
		C11,25.4,10,24.4,10,23.1z"/>
	<path fill-rule="evenodd" fill="#828282" d="M23,20.1c-1.3,0-2.4-1.1-2.4-2.4c0-1.3,1-2.4,2.3-2.4c1.3,0,2.4,1,2.4,2.4
		C25.3,19.1,24.3,20.1,23,20.1z"/>
	<path fill-rule="evenodd" fill="#828282" d="M17.7,20.1c-1.3,0-2.4-1.1-2.4-2.4c0-1.3,1-2.4,2.3-2.4c1.3,0,2.4,1,2.4,2.4
		C20,19,19,20.1,17.7,20.1z"/>
	<path fill-rule="evenodd" fill="#828282" d="M12.3,20.1c-1.3,0-2.4-1-2.4-2.4c0-1.3,1.1-2.4,2.4-2.4c1.3,0,2.4,1.1,2.4,2.4
		C14.7,19.1,13.7,20.1,12.3,20.1z"/>
	<path fill-rule="evenodd" fill="#828282" d="M23,9.5c-1.3,0-2.4-1.1-2.4-2.4c0-1.3,1.1-2.4,2.4-2.4c1.3,0,2.4,1.1,2.4,2.4
		C25.3,8.5,24.3,9.5,23,9.5z"/>
	<path fill-rule="evenodd" fill="#828282" d="M9.4,23.1c0,1.3-1.1,2.4-2.4,2.4c-1.3,0-2.4-1.1-2.3-2.4c0-1.3,1.1-2.3,2.4-2.3
		C8.4,20.7,9.4,21.8,9.4,23.1z"/>
	<path fill-rule="evenodd" fill="#828282" d="M20.6,23.1c0-1.3,1-2.4,2.4-2.4c1.3,0,2.4,1,2.4,2.4c0,1.3-1,2.4-2.4,2.4
		C21.6,25.4,20.6,24.4,20.6,23.1z"/>
	<path fill-rule="evenodd" fill="#828282" d="M9.4,7.1c0,1.3-1,2.4-2.4,2.4c-1.3,0-2.4-1-2.4-2.3c0-1.3,1-2.4,2.4-2.4
		C8.3,4.8,9.4,5.8,9.4,7.1z"/>
	<path fill-rule="evenodd" fill="#828282" d="M17.7,10.1c1.3,0,2.4,1.1,2.4,2.4c0,1.3-1.1,2.4-2.4,2.4c-1.3,0-2.4-1.1-2.3-2.4
		C15.3,11.1,16.4,10.1,17.7,10.1z"/>
	<path fill-rule="evenodd" fill="#828282" d="M10,12.4c0-1.3,1.1-2.4,2.4-2.4c1.3,0,2.4,1.1,2.4,2.4c0,1.3-1.1,2.4-2.4,2.4
		C11,14.8,10,13.8,10,12.4z"/>
</g>
</svg>
