<?xml version="1.0" encoding="utf-8"?>
<!-- Generator: Adobe Illustrator 22.0.0, SVG Export Plug-In . SVG Version: 6.00 Build 0)  -->
<svg version="1.2" baseProfile="tiny" id="Layer_1" xmlns="http://www.w3.org/2000/svg" xmlns:xlink="http://www.w3.org/1999/xlink"
	 x="0px" y="0px" viewBox="0 0 30 30" xml:space="preserve">
<path fill="#828282" d="M14.5,3.7c0.3-0.8,0.7-0.8,1,0l2.2,6.7c0.3,0.8,1.2,1.5,2.1,1.5h7c0.9,0,1,0.4,0.3,0.9l-5.7,4.2
	c-0.7,0.5-1.1,1.6-0.8,2.5l2.2,6.7c0.3,0.8-0.1,1.1-0.8,0.6l-5.7-4.2c-0.7-0.5-1.9-0.5-2.6,0L8,26.8c-0.7,0.5-1.1,0.3-0.8-0.6
	l2.2-6.7c0.3-0.8-0.1-1.9-0.8-2.5l-5.7-4.2C2.2,12.4,2.4,12,3.3,12h7c0.9,0,1.8-0.7,2.1-1.5L14.5,3.7z"/>
</svg>
