<svg id="Layer_1" data-name="Layer 1" xmlns="http://www.w3.org/2000/svg" viewBox="0 0 30 30"><defs><style>.cls-1{fill:#fff;}</style></defs><title>ic-event-o</title><path class="cls-1" d="M14.51,3.72c.27-.84.71-.84,1,0l2.17,6.73A2.32,2.32,0,0,0,19.73,12h7c.87,0,1,.42.3.94l-5.68,4.16a2.36,2.36,0,0,0-.79,2.45l2.17,6.74c.27.83-.09,1.09-.79.58l-5.68-4.16a2.3,2.3,0,0,0-2.56,0L8,26.84c-.7.51-1.06.25-.79-.58l2.17-6.74a2.36,2.36,0,0,0-.79-2.45L3,12.91c-.71-.52-.57-.94.3-.94h7a2.32,2.32,0,0,0,2.07-1.52Z"/></svg>