<svg id="Layer_1" data-name="Layer 1" xmlns="http://www.w3.org/2000/svg" viewBox="0 0 130 124"><defs><style>.cls-1{fill:#464646;}</style></defs><title>ic-tit</title><path class="cls-1" d="M48.74,111h0c-3.6,0-3.84-2.22-3.84-2.22l.63-48.64c-.35-4.08-.41-5.21-5.76-10.5-3.89-3.84-4.74-8.9-4.86-12.26C34.82,35,36.41,14,36.41,14H39.3l.81,22a1.21,1.21,0,0,0,2.41,0L43.33,14h3.39l.82,22a1.21,1.21,0,0,0,2.41,0L50.75,14h3.4l.82,22a1.2,1.2,0,0,0,2.4,0L58.19,14h2.88s1.47,19.41,1.51,23v.37c-.13,3.36-1,8.42-4.86,12.26-5.36,5.29-5.42,6.42-5.77,10.5l.63,48.64S52.34,111,48.74,111"/><path class="cls-1" d="M92.63,69.07V14H90A11.67,11.67,0,0,0,78.28,25.66V57.39a11.69,11.69,0,0,0,7.19,10.79v40.14a2.69,2.69,0,0,0,2.7,2.69h1.77a2.69,2.69,0,0,0,2.69-2.69Z"/></svg>