<?xml version="1.0" encoding="utf-8"?>
<!-- Generator: Adobe Illustrator 22.0.0, SVG Export Plug-In . SVG Version: 6.00 Build 0)  -->
<svg version="1.2" baseProfile="tiny" xmlns="http://www.w3.org/2000/svg" xmlns:xlink="http://www.w3.org/1999/xlink" x="0px"
	 y="0px" viewBox="0 0 76 66" xml:space="preserve">
<g id="Layer_2" display="none">
	<rect display="inline" fill="#474747" width="76" height="66"/>
</g>
<g id="Layer_1">
	<g>
		<path fill="#FFFFFF" d="M44,31.3H32.9c-0.5,0-0.9,0.4-0.9,0.9v11.1H20.9c-0.5,0-0.9,0.4-0.9,0.9v11.1H4.9c-0.5,0-0.9,0.4-0.9,0.9
			v2.2c0,0.5,0.4,0.9,0.9,0.9h18.2c0.5,0,0.9-0.4,0.9-0.9V47.4h11.1c0.5,0,0.9-0.4,0.9-0.9V35.3h11.1c0.5,0,0.9-0.4,0.9-0.9V23.3
			h11.1c0.5,0,0.9-0.4,0.9-0.9V11.3h11.1c0.5,0,0.9-0.4,0.9-0.9V8.2c0-0.5-0.4-0.9-0.9-0.9H56.9c-0.5,0-0.9,0.4-0.9,0.9v11.1H44.9
			c-0.5,0-0.9,0.4-0.9,0.9V31.3z"/>
	</g>
	<g>
		<g>
			<polygon fill="#FFFFFF" points="37.5,22.7 35.1,22.6 35.6,11.9 25,11.4 25.1,9.1 38.1,9.7 			"/>
		</g>
	</g>
	<g>
		<line fill="#FFFFFF" x1="36.5" y1="10.9" x2="13.7" y2="32.5"/>
		
			<rect x="9.4" y="20.3" transform="matrix(0.7246 -0.6891 0.6891 0.7246 -8.0229 23.2674)" fill="#FFFFFF" width="31.4" height="2.8"/>
	</g>
</g>
</svg>
