<?xml version="1.0" encoding="utf-8"?>
<!-- Generator: Adobe Illustrator 22.0.0, SVG Export Plug-In . SVG Version: 6.00 Build 0)  -->
<svg version="1.2" baseProfile="tiny" xmlns="http://www.w3.org/2000/svg" xmlns:xlink="http://www.w3.org/1999/xlink" x="0px"
	 y="0px" viewBox="0 0 76 66" xml:space="preserve">
<g id="Layer_2" display="none">
	<rect display="inline" fill="#474747" width="76" height="66"/>
</g>
<g id="Layer_1">
	<g>
		<path fill="#FFFFFF" d="M18.5,24.6v9.7c0,1.5,1.2,2.7,2.7,2.7h33.7c1.5,0,2.7-1.2,2.7-2.7v-9.7c0-2.5,1.4-4.6,3.5-5.7V16
			c0-3.3-2.7-6-6-6H21c-3.3,0-6,2.7-6,6v2.9C17.1,20,18.5,22.1,18.5,24.6z"/>
		<path fill="#FFFFFF" d="M63.9,20.9c-2,0-3.7,1.7-3.7,3.7v9.7c0,2.9-2.4,5.3-5.3,5.3H21.2c-2.9,0-5.3-2.4-5.3-5.3v-9.7
			c0-2-1.7-3.7-3.7-3.7c-2,0-3.7,1.7-3.7,3.7v9.7c0,7,5.7,12.7,12.7,12.7h0.1l-2.9,12h2L25,47h27.3l4.6,12h2l-2.9-12
			c6.5-0.6,11.6-6,11.6-12.7v-9.7C67.7,22.5,66,20.9,63.9,20.9z"/>
	</g>
</g>
</svg>
