<?xml version="1.0" encoding="utf-8"?>
<!-- Generator: Adobe Illustrator 22.0.0, SVG Export Plug-In . SVG Version: 6.00 Build 0)  -->
<svg version="1.2" baseProfile="tiny" xmlns="http://www.w3.org/2000/svg" xmlns:xlink="http://www.w3.org/1999/xlink" x="0px"
	 y="0px" viewBox="0 0 76 66" xml:space="preserve">
<g id="Layer_2" display="none">
	<rect display="inline" fill="#474747" width="76" height="66"/>
</g>
<g id="Layer_1">
	<g>
		<path fill="#FFFFFF" d="M29.2,62.2L29.2,62.2C27.1,62.2,27,61,27,61l0.4-28.4c-0.2-2.4-0.2-3-3.4-6.1c-2.3-2.2-2.8-5.2-2.8-7.1
			C21.1,17.9,22,5.7,22,5.7h1.7l0.5,12.8c0,0.4,0.3,0.7,0.7,0.7c0.4,0,0.7-0.3,0.7-0.7l0.5-12.8h2l0.5,12.8c0,0.4,0.3,0.7,0.7,0.7
			c0.4,0,0.7-0.3,0.7-0.7l0.5-12.8h2l0.5,12.8c0,0.4,0.3,0.7,0.7,0.7c0.4,0,0.7-0.3,0.7-0.7l0.5-12.8h1.7c0,0,0.9,11.3,0.9,13.4v0.1
			v0.1c-0.1,2-0.6,4.9-2.8,7.1c-3.1,3.1-3.2,3.7-3.4,6.1L31.5,61C31.5,61,31.3,62.2,29.2,62.2"/>
		<path fill="#FFFFFF" d="M54.8,37.8V5.7h-1.6c-3.8,0-6.8,3-6.8,6.8V31c0,2.8,1.7,5.3,4.2,6.3v23.4c0,0.9,0.7,1.6,1.6,1.6h1
			c0.9,0,1.6-0.7,1.6-1.6V37.8z"/>
	</g>
</g>
</svg>
