<?xml version="1.0" encoding="utf-8"?>
<!-- Generator: Adobe Illustrator 22.0.0, SVG Export Plug-In . SVG Version: 6.00 Build 0)  -->
<svg version="1.2" baseProfile="tiny" xmlns="http://www.w3.org/2000/svg" xmlns:xlink="http://www.w3.org/1999/xlink" x="0px"
	 y="0px" viewBox="0 0 76 66" xml:space="preserve">
<g id="Layer_2" display="none">
	<rect display="inline" fill="#474747" width="76" height="66"/>
</g>
<g id="Layer_1">
	<g>
		<polygon fill="#FFFFFF" points="37.7,1.6 37.7,9 47.9,9 		"/>
		<rect x="37.7" y="7.6" fill="#FFFFFF" width="0.6" height="7.3"/>
		<path fill="#FFFFFF" d="M38.2,14.3h-0.3c-2.2,16.9-25.2,31.9-25.2,31.9h50.6C63.3,46.2,40.4,31.3,38.2,14.3"/>
		<path fill="#FFFFFF" d="M15.9,48.7v15.6h44.2V48.7H15.9z M25.5,61.9h-5.2V51.4h5.1V53h-3.2v2.7h2.3v1.5h-2.3v2.9h3.3V61.9z
			 M30.7,61.9h-1.6l-2.7-10.5h1.9l1.6,7.3l1.6-7.3h1.9L30.7,61.9z M40.1,61.9h-5.2V51.4H40V53h-3.2v2.7h2.3v1.5h-2.3v2.9h3.3V61.9z
			 M48.5,61.9h-1.9V59L44,54.9v7h-1.9V51.4h1.5l3,4.6v-4.6h1.9V61.9z M56.6,53h-2.4v8.9h-1.9V53H50v-1.6h6.6V53z"/>
	</g>
</g>
</svg>
