<?xml version="1.0" encoding="utf-8"?>
<!-- Generator: Adobe Illustrator 22.0.0, SVG Export Plug-In . SVG Version: 6.00 Build 0)  -->
<svg version="1.2" baseProfile="tiny" xmlns="http://www.w3.org/2000/svg" xmlns:xlink="http://www.w3.org/1999/xlink" x="0px"
	 y="0px" viewBox="0 0 76 66" xml:space="preserve">
<g id="Layer_2" display="none">
	<rect display="inline" fill="#474747" width="76" height="66"/>
</g>
<g id="Layer_1">
	<g>
		<path fill="#FFFFFF" d="M44.6,14c-0.6,0-0.9-0.4-0.9-0.9c0-0.5,0.3-0.9,0.9-0.9c0.5,0,0.9,0.4,0.9,0.9C45.6,13.5,45.1,14,44.6,14
			 M33.6,8.2c1.1-2.9,2.8-4.8,4.6-4.8c1.8,0,3.5,1.9,4.6,4.8H33.6z M31.9,14c-0.5,0-0.9-0.4-0.9-0.9c0-0.5,0.4-0.9,0.9-0.9
			c0.5,0,0.9,0.4,0.9,0.9C32.8,13.5,32.4,14,31.9,14 M44.3,8.2c-1.3-3.7-3.5-6.1-6-6.1c-2.5,0-4.7,2.4-6,6.1H19.1v25.2h37.7V8.2
			H44.3z"/>
		<g>
			<path fill="#FFFFFF" d="M55.7,51.1c-0.3-0.3-0.5-0.4-0.5-0.4l-0.1,0L55,50.5l-15.6-9.2c-1.4-0.8-2-1.1-2.1-1.2
				c-0.5-0.1-0.8-0.1-0.8-0.1c-0.9,0.1-1.3,1-1.3,1c-0.7,2.4,1.8,4.3,1.8,4.3l6.2,3.7c1,0.8,0.1,1.9,0.1,1.9l-3.3,2.9
				c-0.8,0.8-2.2,0.5-2.2,0.5l-8.6-1.5l-6.5-7.2c-0.7-0.8-2-0.9-2.8-0.2c-0.8,0.7-0.9,2-0.2,2.8l6.8,7.9l0.2,0.2v0l0,0
				c0.2,0.1,0.4,0.2,0.6,0.3l7.6,4.4c1.1,0.7,1.7,0.7,1.7,0.7h16.8c2.9,0,3-2,3-2v-6v-0.2v-0.1C56.7,52.4,56.2,51.6,55.7,51.1"/>
			<path fill="#FFFFFF" d="M39.7,53.7L34,47c-0.7-0.8-2-0.9-2.8-0.2c-0.2,0.1-0.3,0.3-0.4,0.5l4.9,5.6L39.7,53.7z"/>
			<path fill="#FFFFFF" d="M33.7,52.6l-5.4-6.3c-0.7-0.8-2-0.9-2.8-0.2c-0.2,0.1-0.3,0.3-0.4,0.5l4.6,5.3L33.7,52.6z"/>
		</g>
	</g>
</g>
</svg>
