<?xml version="1.0" encoding="utf-8"?>
<!-- Generator: Adobe Illustrator 22.0.0, SVG Export Plug-In . SVG Version: 6.00 Build 0)  -->
<svg version="1.2" baseProfile="tiny" xmlns="http://www.w3.org/2000/svg" xmlns:xlink="http://www.w3.org/1999/xlink" x="0px"
	 y="0px" viewBox="0 0 76 66" xml:space="preserve">
<g id="Layer_2" display="none">
	<rect display="inline" fill="#474747" width="76" height="66"/>
</g>
<g id="Layer_1">
	<path fill="#FFFFFF" d="M38.6,18.3L38.6,18.3L38.6,18.3L38.6,18.3L38.6,18.3c4,0,7.2-3.2,7.2-7.2c0-3.9-3.2-7.2-7.1-7.2v0h0h0v0
		c-3.9,0-7.1,3.2-7.1,7.2C31.4,15.1,34.6,18.3,38.6,18.3 M50.5,54.8h-4.6V22.2h-18c-1.7,0-2.6,1.4-2.6,3.2V26c0,1.7,0.8,3.2,2.6,3.2
		h3.9v25.7h-4.6c-1.7,0-2.6,1.4-2.6,3.2v0.6c0,1.7,0.8,3.2,2.6,3.2h23.2c1.7,0,2.6-1.4,2.6-3.2v-0.6C53,56.2,52.2,54.8,50.5,54.8"/>
</g>
</svg>
