<?xml version="1.0" encoding="utf-8"?>
<!-- Generator: Adobe Illustrator 22.0.0, SVG Export Plug-In . SVG Version: 6.00 Build 0)  -->
<svg version="1.2" baseProfile="tiny" xmlns="http://www.w3.org/2000/svg" xmlns:xlink="http://www.w3.org/1999/xlink" x="0px"
	 y="0px" viewBox="0 0 76 66" xml:space="preserve">
<g id="Layer_2" display="none">
	<rect display="inline" fill="#474747" width="76" height="66"/>
</g>
<g id="Layer_1">
	<path fill="#FFFFFF" d="M56.3,14.7H19.8c-1.4,0-2.5,1.1-2.5,2.4v42.3c0,1.3,1.1,2.4,2.5,2.4h36.5c1.4,0,2.5-1.1,2.5-2.4V17.2
		C58.8,15.8,57.6,14.7,56.3,14.7z M24.5,26.6c-3,0-5.4-2.4-5.4-5.3c0-2.9,2.4-5.3,5.4-5.3c3,0,5.4,2.4,5.4,5.3
		C29.9,24.2,27.5,26.6,24.5,26.6z M51.5,26.6c-3,0-5.4-2.4-5.4-5.3c0-2.9,2.4-5.3,5.4-5.3c3,0,5.4,2.4,5.4,5.3
		C57,24.2,54.5,26.6,51.5,26.6z"/>
	<path fill="#FFFFFF" d="M51.5,21.2c-0.6,0-1.1-0.5-1.1-1.1v-4.4c0-5.5-4.5-9.9-10.1-9.9h-4.5c-5.6,0-10.1,4.4-10.1,9.9v4.4
		c0,0.6-0.5,1.1-1.1,1.1s-1.1-0.5-1.1-1.1v-4.4c0-6.7,5.5-12.1,12.3-12.1h4.5c6.8,0,12.3,5.4,12.3,12.1v4.4
		C52.6,20.7,52.1,21.2,51.5,21.2L51.5,21.2z"/>
	<path fill="#FFFFFF" d="M54.4,12.1c0.3,0.5,0.6,1.1,0.8,1.7h2.4c-1.1-3.5-3.8-6.4-7.3-7.8C52.2,7.6,53.7,9.7,54.4,12.1z"/>
	<path fill="#FFFFFF" d="M33.2,13.8c1.4-3.7,5.1-6.4,9.4-6.4h2.5c-1-0.4-2.2-0.6-3.3-0.6c0,0-4.9-0.3-8.1,2.2
		c-1.3,1.3-2.2,3-2.8,4.8H33.2z"/>
</g>
</svg>
