<svg id="Layer_1" data-name="Layer 1" xmlns="http://www.w3.org/2000/svg" viewBox="0 0 70 12.92"><defs><style>.cls-1{fill:#fff;}</style></defs><title>다국어-jp</title><path class="cls-1" d="M16.16,2.73V3.81H7.32v2c0,1.87-.18,4.65-1.23,6.49a5.56,5.56,0,0,0-.94-.64c1-1.7,1-4.13,1-5.85V2.73h4.32V1.27h1.16V2.73ZM12.1,5.31H16v1H12.1V7.84h3.13v4.43H14.09v-.43H9.32v.44H8.23V7.84H11V4H12.1Zm2,3.52H9.32v2h4.77Z"/><path class="cls-1" d="M25.67,3.86v1H28v6.34c0,.45-.07.74-.34.91a2.94,2.94,0,0,1-1.29.18,2.75,2.75,0,0,0-.3-1h.81c.1,0,.15,0,.15-.16V9.65H25.67v2.52h-1V9.65H23.44v2.59h-1V4.83h2.21v-1h-2.5V3.45l-.68.84a12.11,12.11,0,0,0-1.66-2,10.34,10.34,0,0,1-1.94,2.5h1.43V3.68h1v1.1h1.48v.88H20.34v1h1.77v.92H17.48V6.7h1.85v-1H17.9V4.78l-.14.14A4.21,4.21,0,0,0,17,4.18a8.33,8.33,0,0,0,2.13-2.91h1a13.62,13.62,0,0,1,2,2.12V2.88h2.5V1.26h1V2.88h1.71A6.94,6.94,0,0,0,26,1.8l.62-.52a6.84,6.84,0,0,1,1.48,1l-.64.57h.75v1ZM17.83,8.31h4V12h-1v-.41h-2v.63h-1Zm1,.91v1.45h2V9.22Zm4.63-3.44v1h1.24v-1Zm1.24,3v-1H23.44v1Zm1-3v1H27v-1Zm1.32,3v-1H25.67v1Z"/><path class="cls-1" d="M39.59,10.91c0,.66-.15,1-.6,1.18a6.7,6.7,0,0,1-2.24.2,4.63,4.63,0,0,0-.38-1.12c.78,0,1.59,0,1.82,0s.3-.07.3-.29V4.37H35.32a9,9,0,0,1-.19,1.47A36.56,36.56,0,0,1,38.31,9l-.91.73a28.32,28.32,0,0,0-2.62-2.82,6.35,6.35,0,0,1-2.78,3,3.88,3.88,0,0,0-.79-.84,5.08,5.08,0,0,0,3-4.72H31.05V12.3H29.94v-9h4.24v-2h1.15v2h4.26Z"/><path class="cls-1" d="M49.5,9.09a4.27,4.27,0,0,0,2.9,2.3,2.56,2.56,0,0,0-.65.94,5.05,5.05,0,0,1-3-2.54,5.08,5.08,0,0,1-3.32,2.55,3.83,3.83,0,0,0-.61-.84c2-.62,2.79-1.49,3.11-2.41H45.62V5.92h2.51V5H46.45V4.4a7.92,7.92,0,0,1-1,.6,4.28,4.28,0,0,0-.24-.48v.29H44v.75c.33.42,1.22,1.73,1.4,2l-.6.88A16.86,16.86,0,0,0,44,6.9v5.37H43v-5a11.36,11.36,0,0,1-1.29,2.87,6.53,6.53,0,0,0-.54-1,13.21,13.21,0,0,0,1.75-4.3H41.4v-1H43V1.27h1V3.78h1.2v.14A7.87,7.87,0,0,0,48.1,1.28h1A8.15,8.15,0,0,0,52.48,4a5.88,5.88,0,0,0-.59,1c-.32-.17-.66-.38-1-.6V5H49.13v.94h2.61V9.09Zm-1.4-.88a3,3,0,0,0,0-.52V6.8H46.59V8.21ZM50.43,4a8.42,8.42,0,0,1-1.79-1.79A8.09,8.09,0,0,1,46.94,4ZM49.13,6.8v.91c0,.17,0,.34,0,.5h1.61V6.8Z"/><path class="cls-1" d="M57.2,10.05a11.7,11.7,0,0,1-3,2.11,6.54,6.54,0,0,0-.87-.77,9,9,0,0,0,2.83-1.74Zm2.07-.67v2.91H58.16V9.41c-1.72.06-3.3.1-4.52.12l-.06-1h2.7L57,8.08a16.78,16.78,0,0,0-2.13-1.35l.72-.63.57.29A15,15,0,0,0,57.5,5.14H54.71v1.4H53.65V4.2h4.51v-1H53.71v-1h4.45v-1h1.1v1h4.5v1h-4.5v1h4.63V6.54h-1.1V5.14H58.41l.38.18A18.18,18.18,0,0,1,57,6.85c.34.21.67.43.93.63A23.91,23.91,0,0,0,60.33,5.6l1,.55A38.1,38.1,0,0,1,58,8.49l3.47-.05c-.38-.29-.78-.55-1.15-.78L61,7.08A21.22,21.22,0,0,1,64,9.21l-.79.66a7,7,0,0,0-.66-.6Zm1.8.26a18.91,18.91,0,0,1,3,1.85l-.93.64a15.66,15.66,0,0,0-2.9-1.92Z"/></svg>