<svg id="Layer_1" data-name="Layer 1" xmlns="http://www.w3.org/2000/svg" viewBox="0 0 70 12.92"><defs><style>.cls-1{fill:#fff;}</style></defs><title>다국어-kr</title><path class="cls-1" d="M13.69,7.13a4.37,4.37,0,0,1-2.63-2.37,4.47,4.47,0,0,1-2.7,2.56l-.61-1a3.79,3.79,0,0,0,2.66-3.56V1.73h1.26V2.79A3.6,3.6,0,0,0,14.3,6.16ZM9.34,8.24h7.31v3.83H15.41V9.24H9.34Zm7.31-7v6.5H15.41V1.23Z"/><path class="cls-1" d="M25.11,6.52a24.36,24.36,0,0,1-5.05.36h-.88V2H24V3H20.42V5.87A20.4,20.4,0,0,0,25,5.51Zm2.23,3.41c0,1.34-1.39,2.15-3.61,2.15s-3.61-.81-3.61-2.15,1.39-2.12,3.61-2.12S27.34,8.62,27.34,9.93Zm-1.22,0c0-.73-.89-1.12-2.39-1.12s-2.39.39-2.39,1.12.89,1.14,2.39,1.14S26.12,10.67,26.12,9.93Zm2.63-6V5H27.24V7.6H26V1.24h1.26v2.7Z"/><path class="cls-1" d="M35.36,2.38a8.16,8.16,0,0,1-4.88,7.71l-.69-.95c2.65-1.35,4.08-3.26,4.33-5.75H30.33v-1Zm4.47,4.16H38.19v5.52H37V1.23h1.24V5.51h1.64Z"/><path class="cls-1" d="M46.41,1.89c0,2.8-1.86,4.75-5,5.63l-.5-1c2.48-.67,3.94-2,4.16-3.65H41.49v-1ZM42.76,7.81h7.06v4.13H42.76ZM44,10.94H48.6V8.79H44Zm5.85-9.71V7.37H48.58V5H46.43v-1h2.15V1.23Z"/><path class="cls-1" d="M56.65,7.18a3.8,3.8,0,0,1-2-2,4,4,0,0,1-2.14,2.29l-.66-.94A3.65,3.65,0,0,0,54,3.24V1.86h1.2V3.24a3.2,3.2,0,0,0,2.1,3ZM53.71,8.34h7.34v3.74H59.81V9.33h-6.1Zm7.34-7.1V7.8H59.87V5H58.73V7.74H57.57V1.42h1.16V4h1.14V1.24Z"/></svg>