<svg id="Layer_1" data-name="Layer 1" xmlns="http://www.w3.org/2000/svg" viewBox="0 0 70 12.92"><defs><style>.cls-1{fill:#fff;}</style></defs><title>다국어-eng</title><path class="cls-1" d="M18.81,6.82c0-2.88,1.77-4.61,4.11-4.61a3.5,3.5,0,0,1,2.63,1.12l-.76.89A2.36,2.36,0,0,0,23,3.42c-1.64,0-2.73,1.28-2.73,3.35s1,3.38,2.79,3.38a2.16,2.16,0,0,0,1.39-.43V7.65H22.67V6.51h3v3.82a4,4,0,0,1-2.79,1C20.52,11.36,18.81,9.71,18.81,6.82Z"/><path class="cls-1" d="M27.5,8.76V4.61h1.38v4c0,1.14.32,1.59,1.1,1.59.61,0,1-.29,1.58-1V4.61h1.38v6.6H31.82l-.11-1h0a2.76,2.76,0,0,1-2.16,1.15C28.11,11.36,27.5,10.44,27.5,8.76Z"/><path class="cls-1" d="M34.83,2.56a.88.88,0,0,1,1.76,0,.88.88,0,0,1-1.76,0ZM35,4.61h1.37v6.6H35Z"/><path class="cls-1" d="M38,7.92c0-2.14,1.36-3.48,2.83-3.48a2.54,2.54,0,0,1,1.78.75L42.57,4.1V1.65H44v9.56H42.82l-.12-.75h0a2.73,2.73,0,0,1-1.92.9C39.09,11.36,38,10.1,38,7.92Zm4.55,1.5V6.19a2.08,2.08,0,0,0-1.45-.6c-.93,0-1.67.88-1.67,2.31s.59,2.32,1.62,2.32A1.94,1.94,0,0,0,42.57,9.42Z"/><path class="cls-1" d="M45.56,7.92a3.21,3.21,0,0,1,3-3.48c1.75,0,2.68,1.26,2.68,3.13a3.31,3.31,0,0,1-.06.7H46.91a2,2,0,0,0,2,2,2.8,2.8,0,0,0,1.57-.49l.48.88a4,4,0,0,1-2.23.69A3.16,3.16,0,0,1,45.56,7.92Zm4.51-.6c0-1.14-.52-1.8-1.48-1.8a1.79,1.79,0,0,0-1.69,1.8Z"/></svg>