<svg id="Layer_1" data-name="Layer 1" xmlns="http://www.w3.org/2000/svg" viewBox="0 0 70 12.92"><defs><style>.cls-1{fill:#fff;}</style></defs><title>다국어-chn</title><path class="cls-1" d="M15.28,7.41l-1.36.41v3.24c0,.56-.12.85-.46,1a4.44,4.44,0,0,1-1.68.18,3.76,3.76,0,0,0-.31-1,8.92,8.92,0,0,0,1.15,0c.16,0,.23,0,.23-.23V8.14l-1.45.42-.28-1.09c.48-.11,1.08-.26,1.73-.44V4.63H11.28v-1h1.57V1.27h1.07V3.6h1.24v1H13.92V6.74l1.24-.35Zm6.54.65a6,6,0,0,1-2.18,2.58,12.75,12.75,0,0,0,2.74.73,3.42,3.42,0,0,0-.68,1,11.12,11.12,0,0,1-3.18-1.06,13.19,13.19,0,0,1-3.5,1,5.21,5.21,0,0,0-.48-.94,12.81,12.81,0,0,0,3-.7A6.34,6.34,0,0,1,15.94,9l.66-.24H15.27V7.78h2.86v-1H15.55V2.25l.51.17a6.12,6.12,0,0,0,1.31-.77l.76.7V1.27h1V5.9h1.7v-1H19.54V4.08h1.27v-1h-1.3V2.19h2.3V6.81h-2.7v1h1.83l.21,0ZM18.13,5.9V2.41a10.69,10.69,0,0,1-1.61.73v.94h1.13V4.9H16.52v1ZM17,8.72a5,5,0,0,0,1.6,1.41,5.19,5.19,0,0,0,1.66-1.41Z"/><path class="cls-1" d="M27.2,10.05a11.7,11.7,0,0,1-3,2.11,6.54,6.54,0,0,0-.87-.77,9,9,0,0,0,2.83-1.74Zm2.07-.67v2.91H28.16V9.41c-1.72.06-3.3.1-4.52.12l-.06-1h2.7L27,8.08a16.78,16.78,0,0,0-2.13-1.35l.72-.63.57.29A15,15,0,0,0,27.5,5.14H24.71v1.4H23.65V4.2h4.51v-1H23.71v-1h4.45v-1h1.1v1h4.5v1h-4.5v1h4.63V6.54h-1.1V5.14H28.41l.38.18A18.18,18.18,0,0,1,27,6.85a10,10,0,0,1,.93.63A23.91,23.91,0,0,0,30.33,5.6l1,.55A38.1,38.1,0,0,1,28,8.49l3.47-.05c-.38-.29-.78-.55-1.15-.78L31,7.08A21.22,21.22,0,0,1,34,9.21l-.79.66a7,7,0,0,0-.66-.6Zm1.8.26a18.91,18.91,0,0,1,3,1.85l-.93.64a15.66,15.66,0,0,0-2.9-1.92Z"/><path class="cls-1" d="M41.32,9.28c-.71,1.51-2.14,2.5-5.24,3a3.07,3.07,0,0,0-.54-1C38.07,11,39.36,10.3,40,9.28H35.55v-1h4.94a12.11,12.11,0,0,0,.36-2.64H42a15.09,15.09,0,0,1-.35,2.64H46v1ZM43.7,6.5a9.6,9.6,0,0,0,.73-1.15H35.76V4.4h4.45v-1H36.5v-1h3.71V1.32h1.14V2.47h3.81v1H41.35v1H45l.18-.07.79.32A11.61,11.61,0,0,1,44.54,7Zm-6.88.08a8.36,8.36,0,0,1,2.21,1l-.55.73a9.55,9.55,0,0,0-2.17-1Zm2.93.62a9.23,9.23,0,0,0-2.18-1.08l.56-.65a9,9,0,0,1,2.21,1Zm2,2.56a27.86,27.86,0,0,1,4.43,1.58l-.62.93A24.3,24.3,0,0,0,41.2,10.6Z"/><path class="cls-1" d="M58.06,5.06s0,.35,0,.5c-.26,4.14-.48,5.64-.9,6.15a1.2,1.2,0,0,1-.88.46,7.8,7.8,0,0,1-1.33,0,2.73,2.73,0,0,0-.3-1,10.5,10.5,0,0,0,1.12,0,.43.43,0,0,0,.42-.18c.29-.32.52-1.62.73-4.92h-.65a10.73,10.73,0,0,1-4,6.13,5.71,5.71,0,0,0-.86-.61A9.12,9.12,0,0,0,55.23,6.1h-.86a7.65,7.65,0,0,1-2.55,3.59c-.13-.13-.42-.35-.63-.52l0,.15-3.65,1.47-.36-1.14c.43-.13,1-.32,1.54-.52V5.2H47.36v-1h1.39V1.43h1V4.15H51v1H49.8V8.75L51,8.31l.14.66A6,6,0,0,0,53.32,6.1h-.53a2.07,2.07,0,0,0-1,.17,5.58,5.58,0,0,0-.47-1,3.87,3.87,0,0,0,1.22-.6,21.59,21.59,0,0,0,2.3-1.74H51.26V1.83H56l.25-.09.82.63a28.13,28.13,0,0,1-3.47,2.69Z"/></svg>