<svg id="Layer_1" data-name="Layer 1" xmlns="http://www.w3.org/2000/svg" viewBox="0 0 70 12.92"><defs><style>.cls-1{fill:#fff;}</style></defs><title>다국어-chn</title><path class="cls-1" d="M9.28,7.22l-1.36.41v3.24c0,.56-.12.85-.46,1a4.24,4.24,0,0,1-1.68.18,3.87,3.87,0,0,0-.31-1c.5,0,1,0,1.15,0s.23-.05.23-.23V8L5.4,8.38l-.28-1.1C5.6,7.18,6.2,7,6.85,6.84V4.44H5.28v-1H6.85V1.08H7.92V3.41H9.16v1H7.92V6.55L9.16,6.2Zm6.54.65a6,6,0,0,1-2.18,2.58,11.69,11.69,0,0,0,2.74.73,3.57,3.57,0,0,0-.68,1,11.11,11.11,0,0,1-3.18-1.05,13.18,13.18,0,0,1-3.5,1,5.13,5.13,0,0,0-.48-.93,12.82,12.82,0,0,0,3-.71A6.34,6.34,0,0,1,9.94,8.77l.66-.24H9.27V7.6h2.86v-1H9.55V2.07l.51.16a6.12,6.12,0,0,0,1.31-.76l.76.69V1.08h1V5.71h1.7v-1H13.54V3.89h1.27v-1h-1.3V2h2.3V6.62h-2.7v1h1.83l.21,0ZM12.13,5.71V2.22A10.69,10.69,0,0,1,10.52,3v.94h1.13v.83H10.52v1ZM11,8.53A5.17,5.17,0,0,0,12.62,10a5.22,5.22,0,0,0,1.66-1.42Z"/><path class="cls-1" d="M21.2,9.86a11.7,11.7,0,0,1-3,2.11,5.85,5.85,0,0,0-.87-.76,9.22,9.22,0,0,0,2.83-1.74Zm2.07-.67V12.1H22.16V9.23c-1.72.06-3.3.09-4.52.12l-.06-1h2.7L21,7.9a15.79,15.79,0,0,0-2.13-1.36l.72-.62.57.28A16.45,16.45,0,0,0,21.5,5H18.71V6.35H17.65V4h4.51v-1H17.71v-1h4.45v-1h1.1v1h4.5v1h-4.5V4h4.63V6.35h-1.1V5H22.41l.38.18A18.05,18.05,0,0,1,21,6.66a9.91,9.91,0,0,1,.93.64,25.4,25.4,0,0,0,2.45-1.89l1,.55A36.11,36.11,0,0,1,22,8.3l3.47-.05c-.38-.28-.78-.55-1.15-.77L25,6.89A21.22,21.22,0,0,1,28,9l-.79.66a7,7,0,0,0-.66-.6Zm1.8.26a20.51,20.51,0,0,1,3,1.85l-.93.64A15.66,15.66,0,0,0,24.21,10Z"/><path class="cls-1" d="M35.9,9.17c.81,1.15,2.27,1.72,4.45,1.9a4.23,4.23,0,0,0-.67,1c-2.53-.31-4-1.16-5-2.87-.61,1.44-1.91,2.36-5,2.85a3.27,3.27,0,0,0-.56-1c2.53-.35,3.7-1,4.28-1.92h-4.1v-1h4.48c.07-.3.12-.62.17-1H29.47v-1h4.68V5.41H30.52v-1h3.63v-.8H30v-1h2.27a5.3,5.3,0,0,0-.78-1.19l1-.4a4.66,4.66,0,0,1,1,1.45l-.32.14h3.28L36,2.53a9.09,9.09,0,0,0,.93-1.48l1.18.33a9.78,9.78,0,0,1-1,1.27h2.44v1H35.3v.8h3.75v1H35.3v.83H40v1h-4.8c0,.33-.09.66-.15,1h5.08v1Z"/><path class="cls-1" d="M51.54,8.73A21.82,21.82,0,0,1,49,10.22a9.63,9.63,0,0,0,3.13.9,3.93,3.93,0,0,0-.68,1c-2.57-.44-4.4-1.53-5.44-3.43H44.4v2.09l2.84-.26v1c-1.82.19-3.74.37-5.1.49l-.15-1,1.29-.09V4.76a15.78,15.78,0,0,1-1.47.76,4.67,4.67,0,0,0-.65-.91,12.65,12.65,0,0,0,4.92-3.55H47.2a13,13,0,0,0,5.15,3.42,7.4,7.4,0,0,0-.7,1,14.07,14.07,0,0,1-1.45-.73V8.46l.52-.38Zm-2-4.38A13.42,13.42,0,0,1,46.7,2,12.21,12.21,0,0,1,44,4.35h2.17V3.27h1.14V4.35ZM44.4,6.06h4.67V5.23H44.4Zm0,1.73h4.67V6.9H44.4Zm2.77.87a4.78,4.78,0,0,0,1,1,19.25,19.25,0,0,0,1.74-1Z"/><path class="cls-1" d="M56.52,3.85a13.2,13.2,0,0,1-1,1.72V12.1h-1V7a11.34,11.34,0,0,1-.91.92,7.28,7.28,0,0,0-.62-1,10,10,0,0,0,2.53-3.36Zm-.29-2.39a11.52,11.52,0,0,1-2.5,2.8,7.65,7.65,0,0,0-.6-.84,7.66,7.66,0,0,0,2.08-2.34ZM61,10.68c-1.72.23-3.5.43-4.81.59l-.12-1c.55,0,1.22-.12,2-.19V8.38H56.38v-1H58V6.06h1.06V7.42h1.63v1H59.06V9.92l1.88-.21ZM58,3.45H56.54v-1H58V1.08h1V2.5h1.5v1h-1.5v1.4h1.7v1H56.31v-1H58Zm6.2,2.49h-1v4.87c0,.58-.11.91-.49,1.08a4.43,4.43,0,0,1-1.8.2A5.28,5.28,0,0,0,60.62,11c.57,0,1.11,0,1.28,0s.22-.05.22-.2V5.94H61V5h3.25Zm-.16-3.19h-3v-1h3Z"/></svg>