<svg id="Layer_1" data-name="Layer 1" xmlns="http://www.w3.org/2000/svg" viewBox="0 0 70 12.92"><defs><style>.cls-1{fill:#fff;}</style></defs><title>다국어-kr</title><path class="cls-1" d="M23.06,8.24H18.75V12H17.52V8.24H13.27v-1h9.8ZM13.81,5.49C15.88,5.21,17.4,4,17.47,2.76h-3.3v-1h8v1H18.87C19,4,20.47,5.21,22.53,5.49l-.44,1a5.28,5.28,0,0,1-3.92-2.35,5.28,5.28,0,0,1-3.91,2.35Z"/><path class="cls-1" d="M28.05,4.6a4.75,4.75,0,0,0,2.56,4.2l-.68.94a5,5,0,0,1-2.48-3,5.24,5.24,0,0,1-2.61,3.17L24.16,9A4.94,4.94,0,0,0,26.82,4.6V4H24.49V3h2.33V1.37h1.23V3h2.3V4h-2.3Zm6.34,1.92H32.7V12H31.46V1.14H32.7V5.5h1.69Z"/><path class="cls-1" d="M38.36,7.3a2.71,2.71,0,1,1,2.89-2.71A2.72,2.72,0,0,1,38.36,7.3Zm0-1.07A1.6,1.6,0,0,0,40,4.59a1.67,1.67,0,0,0-3.34,0A1.59,1.59,0,0,0,38.36,6.23Zm-.16,4.54h6v1H37V8.28H38.2Zm7.14-6.4v1H43.81V9.1H42.57V1.16h1.24V4.37Z"/><path class="cls-1" d="M48.11,8.2a20.46,20.46,0,0,0,3.18-.33l.13,1.06a21.13,21.13,0,0,1-3.83.32h-.72V2.4h1.24Zm7.49-7V12H54.43V6.48H53.14v5H52V1.37h1.16V5.46h1.29V1.16Z"/></svg>