<svg id="Layer_1" data-name="Layer 1" xmlns="http://www.w3.org/2000/svg" viewBox="0 0 70 12.92"><defs><style>.cls-1{fill:#fff;}</style></defs><title>다국어-chn</title><path class="cls-1" d="M14.8,1.34A21.14,21.14,0,0,1,13.68,4v8H12.62V5.73a10,10,0,0,1-.83,1,5.35,5.35,0,0,0-.62-1.11A13.51,13.51,0,0,0,13.75,1Zm4,6.79A4.34,4.34,0,0,1,18,10.06a14.91,14.91,0,0,0,4.39.83,4.09,4.09,0,0,0-.68,1,13.46,13.46,0,0,1-4.51-1.08A7.83,7.83,0,0,1,14.7,12a4.1,4.1,0,0,0-.69-.92,7.46,7.46,0,0,0,2.22-.82,6,6,0,0,1-1.59-1.58l1-.33A4.54,4.54,0,0,0,17,9.62a3.07,3.07,0,0,0,.71-1.49H15V3.5h2.84V2.61H14.76v-1h7.3v1H19V3.5h2.76V8.13ZM16,5.42h1.81V4.34H16Zm1.8,1.87c0-.18,0-.39,0-.57V6.21H16V7.29Zm2.78-1.08H19v.53c0,.18,0,.37,0,.55h1.68ZM19,4.34V5.42h1.67V4.34Z"/><path class="cls-1" d="M26.86,4.53H29v1H26.86v.79c.59.43,1.85,1.51,2.17,1.8l-.63.95c-.34-.39-1-1-1.54-1.58V12H25.77V7.2a12.61,12.61,0,0,1-2.07,3.21,7,7,0,0,0-.59-1.08,11.84,11.84,0,0,0,2.43-3.77H23.37v-1h2.4V2.74c-.73.15-1.47.27-2.17.35a3.47,3.47,0,0,0-.33-.86A23.08,23.08,0,0,0,28.15,1l.8.85a15,15,0,0,1-2.09.62Zm4,4.47H29.74V2.41h1.08Zm2.9-7.79v9.36c0,.7-.16,1-.58,1.22a7.66,7.66,0,0,1-2.26.2,5.39,5.39,0,0,0-.39-1.15c.81,0,1.57,0,1.81,0s.31-.07.31-.29V1.21Z"/><path class="cls-1" d="M39.13,8.63a4.33,4.33,0,0,0,.41.92,20.23,20.23,0,0,0-2.69,2.24,3.64,3.64,0,0,0-.59-.94,1.46,1.46,0,0,0,.6-1.12v-4H35.3V4.67h2.63V9.55ZM38,3.74a12.73,12.73,0,0,0-1.83-1.88l.72-.69A14,14,0,0,1,38.73,3Zm7.59,2.71a7.56,7.56,0,0,1-2.2,3.48A9.09,9.09,0,0,0,46.29,11a4,4,0,0,0-.69,1,9.2,9.2,0,0,1-3.14-1.4A10.68,10.68,0,0,1,39.25,12a3.55,3.55,0,0,0-.54-1A9.21,9.21,0,0,0,41.6,9.93a8.39,8.39,0,0,1-1.84-2.59l.32-.11h-.72V6.18H44.7l.17,0Zm-4-3.72A3.3,3.3,0,0,1,39.49,6a4,4,0,0,0-.72-.81,2.49,2.49,0,0,0,1.76-2.48V1.4h4V4.1c0,.33,0,.45.21.45h.73a2.4,2.4,0,0,0,.6-.07c0,.29.05.69.08.94a2.19,2.19,0,0,1-.67.07h-.84c-1,0-1.16-.4-1.16-1.43V2.43h-1.9Zm-.77,4.5A6.59,6.59,0,0,0,42.5,9.32a6.18,6.18,0,0,0,1.65-2.09Z"/><path class="cls-1" d="M56.72,11c.5,0,.6-.21.66-1.32a2.8,2.8,0,0,0,.92.4c-.13,1.45-.44,1.87-1.51,1.87H54.52c-1.29,0-1.63-.31-1.63-1.51V7.78l-.62.3-.41-.92,1-.48V5a4.52,4.52,0,0,1-.37.47,8,8,0,0,0-.84-.78,5.21,5.21,0,0,0,.59-.77H49.59c0,.51,0,1,0,1.49h2.19s0,.33,0,.47c-.07,3.88-.13,5.25-.45,5.66a.84.84,0,0,1-.71.43,7.85,7.85,0,0,1-1.25,0A2.74,2.74,0,0,0,49,11c.44,0,.83,0,1,0a.37.37,0,0,0,.36-.17c.18-.24.25-1.35.3-4.45H49.5A10.89,10.89,0,0,1,48,12a3.1,3.1,0,0,0-.81-.76c1.2-1.64,1.33-4.46,1.38-7.33H47.3v-1h2V1h1.07V2.86h2v.91A9.44,9.44,0,0,0,53.42,1l1.1.23c-.12.46-.25.93-.41,1.37h4v1H53.69A7.9,7.9,0,0,1,53,4.87h.93V6.21l.91-.42V4h1V5.34l1.06-.49.1-.07.19-.13.68.25,0,.16c0,1.7,0,3.08-.05,3.42a.74.74,0,0,1-.53.73,2.67,2.67,0,0,1-.94.09A2.59,2.59,0,0,0,56,8.46c.19,0,.43,0,.53,0s.18,0,.21-.21,0-1,0-2.33l-1,.5V9.9h-1v-3l-.91.43v3.13c0,.47.09.55.73.55Z"/></svg>