<svg id="Layer_1" data-name="Layer 1" xmlns="http://www.w3.org/2000/svg" viewBox="0 0 70 12.92"><defs><style>.cls-1{fill:#fff;}</style></defs><title>다국어-chn</title><path class="cls-1" d="M15.08,7.36l-1.16.36v3.17c0,.59-.12.9-.46,1.08a3.82,3.82,0,0,1-1.65.22,4.29,4.29,0,0,0-.33-1.08h1.15c.16,0,.22-.06.22-.23V8.05l-1.5.43-.24-1.09c.48-.11,1.08-.27,1.74-.45V4.55H11.33v-1h1.52V1.2h1.07V3.51h1v1h-1V6.66l1-.29Zm7.16,4.21H17v.6H15.91V5.55a8.34,8.34,0,0,1-.72.9,10.16,10.16,0,0,0-.73-1,10.41,10.41,0,0,0,2.29-4.33l1.06.28a13.84,13.84,0,0,1-.72,2H18.7a15.84,15.84,0,0,0,.77-2.18l1.17.25c-.26.65-.55,1.34-.83,1.93H22v1h-2.3V5.78h2v1h-2V8.16h2V9.1h-2v1.47h2.52ZM18.68,4.39H17V5.78h1.69Zm0,2.35H17V8.16h1.69ZM17,10.57h1.69V9.1H17Z"/><path class="cls-1" d="M27.34,5.54A12.23,12.23,0,0,1,26.19,7.2v5H25.14V8.32a10.22,10.22,0,0,1-1.29,1,5.68,5.68,0,0,0-.74-.91,9.41,9.41,0,0,0,2.95-2.88H23.49v-1h3.17c.11-.21.2-.43.3-.64h-.85V3H23.52V2h2.59V1.19h1.1V2h3V1.19H31.3V2H34V3H31.3v.93H30.21V3h-3v.41l1.06.28c-.12.3-.25.6-.39.88H34v1Zm6.78,4.07h-3v1.47c0,.53-.11.81-.51.95a5.43,5.43,0,0,1-1.83.16,4.15,4.15,0,0,0-.34-.95c.6,0,1.2,0,1.36,0s.24-.05.24-.19V9.61H26.91v-1H30V7.82h.33a7.5,7.5,0,0,0,1-.7H27.74V6.24h4.6l.22-.06.66.54A13,13,0,0,1,31.1,8.34v.31h3Z"/><path class="cls-1" d="M41.32,9.2c-.71,1.51-2.14,2.49-5.24,3a3.3,3.3,0,0,0-.54-1c2.53-.38,3.82-1,4.49-2.07H35.55v-1h4.94a12.11,12.11,0,0,0,.36-2.64H42a15.09,15.09,0,0,1-.35,2.64H46v1ZM43.7,6.42a9.6,9.6,0,0,0,.73-1.15H35.76V4.32h4.45v-1H36.5v-1h3.71V1.24h1.14V2.39h3.81v1H41.35v1H45l.18-.07.79.32a11.61,11.61,0,0,1-1.41,2.34Zm-6.88.08a8,8,0,0,1,2.21,1l-.55.73a9.14,9.14,0,0,0-2.17-1Zm2.93.61A9.62,9.62,0,0,0,37.57,6l.56-.64a8.68,8.68,0,0,1,2.21,1Zm2,2.57a27.86,27.86,0,0,1,4.43,1.58l-.62.93a24.3,24.3,0,0,0-4.32-1.67Z"/><path class="cls-1" d="M58.06,5s0,.35,0,.5c-.26,4.14-.48,5.64-.9,6.14a1.25,1.25,0,0,1-.88.47,7,7,0,0,1-1.33,0,2.68,2.68,0,0,0-.3-1,10.5,10.5,0,0,0,1.12,0,.45.45,0,0,0,.42-.18c.29-.33.52-1.62.73-4.92h-.65a10.73,10.73,0,0,1-4,6.13,5.71,5.71,0,0,0-.86-.61A9.15,9.15,0,0,0,55.23,6h-.86a7.7,7.7,0,0,1-2.55,3.59,8,8,0,0,0-.63-.52l0,.15-3.65,1.47-.36-1.14c.43-.13,1-.32,1.54-.53V5.12H47.36v-1h1.39V1.34h1V4.07H51v1H49.8V8.67L51,8.23l.14.66A6,6,0,0,0,53.32,6h-.53a2.07,2.07,0,0,0-1,.17,5.58,5.58,0,0,0-.47-1,4.1,4.1,0,0,0,1.22-.6,23.11,23.11,0,0,0,2.3-1.74H51.26V1.75H56l.25-.09.82.63A29.14,29.14,0,0,1,53.57,5Z"/></svg>