<svg id="Layer_1" data-name="Layer 1" xmlns="http://www.w3.org/2000/svg" viewBox="0 0 70 12.92"><defs><style>.cls-1{fill:#fff;}</style></defs><title>다국어-jp</title><path class="cls-1" d="M14.8,1.34A21.14,21.14,0,0,1,13.68,4v8H12.62V5.73a10,10,0,0,1-.83,1,5.35,5.35,0,0,0-.62-1.11A13.51,13.51,0,0,0,13.75,1Zm4,6.79A4.34,4.34,0,0,1,18,10.06a14.91,14.91,0,0,0,4.39.83,4.09,4.09,0,0,0-.68,1,13.46,13.46,0,0,1-4.51-1.08A7.83,7.83,0,0,1,14.7,12a4.1,4.1,0,0,0-.69-.92,7.46,7.46,0,0,0,2.22-.82,6,6,0,0,1-1.59-1.58l1-.33A4.54,4.54,0,0,0,17,9.62a3.07,3.07,0,0,0,.71-1.49H15V3.5h2.84V2.61H14.76v-1h7.3v1H19V3.5h2.76V8.13ZM16,5.42h1.81V4.34H16Zm1.8,1.87c0-.18,0-.39,0-.57V6.21H16V7.29Zm2.78-1.08H19v.53c0,.18,0,.37,0,.55h1.68ZM19,4.34V5.42h1.67V4.34Z"/><path class="cls-1" d="M30.92,4.45a9,9,0,0,0,3.45,3.09,4.69,4.69,0,0,0-.77.89,9.64,9.64,0,0,1-1-.65v2.85h1.59v1H23.34v-1H25V7.84a11,11,0,0,1-1,.73,5.77,5.77,0,0,0-.86-.85,9.23,9.23,0,0,0,3.33-3.27H23.59v-1h2.93a12.72,12.72,0,0,0-1.24-2l.95-.42A11.2,11.2,0,0,1,27.6,3.16l-.59.3h3.51l-.67-.24A13.72,13.72,0,0,0,31.23,1l1.17.35a22,22,0,0,1-1.49,2.14h3v1ZM32,7.34a10.82,10.82,0,0,1-2.32-2.89h-2a11.49,11.49,0,0,1-2.21,2.89Zm-4.91,1H26v2.33h1.17Zm2.2,0H28.15v2.33h1.18Zm2.21,2.33V8.3H30.35v2.33Z"/><path class="cls-1" d="M44.72,11c.5,0,.6-.21.66-1.32a2.8,2.8,0,0,0,.92.4c-.13,1.45-.44,1.87-1.51,1.87H42.52c-1.29,0-1.63-.31-1.63-1.51V7.78l-.62.3-.41-.92,1-.48V5a4.52,4.52,0,0,1-.37.47,8,8,0,0,0-.84-.78,5.21,5.21,0,0,0,.59-.77H37.59c0,.51,0,1,0,1.49h2.19s0,.33,0,.47c-.07,3.88-.13,5.25-.45,5.66a.84.84,0,0,1-.71.43,7.85,7.85,0,0,1-1.25,0A2.74,2.74,0,0,0,37,11c.44,0,.83,0,1,0a.37.37,0,0,0,.36-.17c.18-.24.25-1.35.3-4.45H37.5A10.89,10.89,0,0,1,36,12a3.1,3.1,0,0,0-.81-.76c1.2-1.64,1.33-4.46,1.38-7.33H35.3v-1h2V1h1.07V2.86h2v.91A9.44,9.44,0,0,0,41.42,1l1.1.23c-.12.46-.25.93-.41,1.37h4v1H41.69A7.9,7.9,0,0,1,41,4.87h.93V6.21l.91-.42V4h1V5.34l1.06-.49.1-.07.19-.13.68.25,0,.16c0,1.7,0,3.08-.05,3.42a.74.74,0,0,1-.53.73,2.67,2.67,0,0,1-.94.09A2.59,2.59,0,0,0,44,8.46c.19,0,.43,0,.53,0s.18,0,.21-.21,0-1,0-2.33l-1,.5V9.9h-1v-3l-.91.43v3.13c0,.47.09.55.73.55Z"/><path class="cls-1" d="M51.81,3.85H47.23V3h4.58Zm-.43,7.48H48.73v.5h-1v-4h3.61Zm0-6.06a2.74,2.74,0,0,0,1.26-2.5V1.34H56.5V4.16c0,.27,0,.32.19.32h.47c.18,0,.23-.15.25-1.26a2.58,2.58,0,0,0,.91.41c-.07,1.43-.34,1.8-1,1.8h-.77c-.83,0-1.08-.28-1.08-1.26V2.33H53.71v.45A3.61,3.61,0,0,1,52.19,6a3.9,3.9,0,0,0-.8-.7v.15h-3.6V4.59h3.6Zm-3.6.91h3.6v.88h-3.6Zm3.57-3.93H47.84V1.38h3.52ZM48.73,8.7v1.73h1.68V8.7Zm8.93-2.36a7.64,7.64,0,0,1-1.94,3.5A7.89,7.89,0,0,0,58.35,11a4,4,0,0,0-.72,1,7.88,7.88,0,0,1-2.75-1.41A8.84,8.84,0,0,1,52,12a3.91,3.91,0,0,0-.6-1,8.17,8.17,0,0,0,2.66-1.17,8.84,8.84,0,0,1-1.56-2.38l1-.31a6.13,6.13,0,0,0,1.38,2,5.91,5.91,0,0,0,1.38-2H52v-1h4.78l.2,0Z"/></svg>