<svg id="Layer_1" data-name="Layer 1" xmlns="http://www.w3.org/2000/svg" viewBox="0 0 70 12.92"><defs><style>.cls-1{fill:#fff;}</style></defs><title>다국어-kr</title><path class="cls-1" d="M13.62,2.61H17.8V9.44H13.62Zm1.15,5.84h1.88V3.6H14.77Zm7.74-7V12.24H21.33V6.66H20.1v5.08H18.94V1.63H20.1v4h1.23V1.43Z"/><path class="cls-1" d="M30.06,7.48a4,4,0,0,1-2.54-2.17,4.4,4.4,0,0,1-2.69,2.52l-.62-1a3.69,3.69,0,0,0,2.65-3.45V3.19h-2.3v-1h5.81v1H28.1v.2a3.34,3.34,0,0,0,2.56,3.13Zm2.82,2.73c0,1.28-1.38,2-3.61,2s-3.61-.77-3.61-2S27,8.15,29.27,8.15,32.88,8.91,32.88,10.21Zm-1.22,0c0-.71-.88-1.08-2.39-1.08s-2.39.37-2.39,1.08.88,1.08,2.39,1.08S31.66,10.9,31.66,10.21Zm2.63-6.14v1H32.76V7.9H31.52V1.43h1.24V4.07Z"/><path class="cls-1" d="M40.91,2.07c0,2.81-1.86,4.75-5,5.64l-.5-1c2.48-.67,3.94-2,4.16-3.65H36v-1ZM37.26,8h7.05v4.13H37.26Zm1.21,3.13H43.1V9H38.47Zm5.84-9.72V7.55H43.08V5.13H40.93v-1h2.15V1.41Z"/><path class="cls-1" d="M51.14,7.36a3.77,3.77,0,0,1-2-2A4.07,4.07,0,0,1,47,7.65l-.66-1a3.66,3.66,0,0,0,2.19-3.27V2.05h1.2V3.43a3.22,3.22,0,0,0,2.09,3ZM48.21,8.53h7.34v3.74H54.31V9.52h-6.1Zm7.34-7.1V8H54.37V5.17H53.23V7.93H52.07V1.61h1.16V4.16h1.14V1.43Z"/></svg>