<svg id="Layer_1" data-name="Layer 1" xmlns="http://www.w3.org/2000/svg" viewBox="0 0 70 12.92"><defs><style>.cls-1{fill:#fff;}</style></defs><title>다국어-jp</title><path class="cls-1" d="M12.11,2.52a4.43,4.43,0,0,0-.21.7,12,12,0,0,1-1.79,4.4,9.26,9.26,0,0,1-4.77,3.25l-1-1.13A7.88,7.88,0,0,0,9,6.89a8.18,8.18,0,0,0,1.5-3.68H4.6c-.51,0-1,0-1.29,0V1.91A10.24,10.24,0,0,0,4.6,2h5.82a2.81,2.81,0,0,0,.77-.09Z"/><path class="cls-1" d="M22.77,9.08c0,.42,0,1.46,0,1.55H21.48a6,6,0,0,0,0-.67H15.3c0,.32,0,.61,0,.67H14c0-.11,0-1.07,0-1.55V3.2c0-.32,0-.72,0-1.05.47,0,.86,0,1.16,0h6.51c.27,0,.71,0,1.1,0,0,.33,0,.7,0,1Zm-7.49-5.7V8.77h6.23V3.38Z"/><path class="cls-1" d="M35.12,2.39c-.11.13-.3.36-.4.51a12.21,12.21,0,0,1-2.94,3.31l-1-.81a7.5,7.5,0,0,0,2.44-2.48H26.65c-.47,0-.89,0-1.41.07V1.66a10.87,10.87,0,0,0,1.41.11h6.7a5.92,5.92,0,0,0,1-.09ZM30.27,4c0,3.13-.18,5.43-3.33,7l-1.11-.9A4.34,4.34,0,0,0,27,9.55c1.72-1.1,2-2.61,2-4.6a5.23,5.23,0,0,0-.07-1Z"/><path class="cls-1" d="M43.82,3.3a5,5,0,0,0,.83-.07l.82.41c0,.2-.06.46-.07.61,0,1.21-.19,4.64-.72,5.82a1.33,1.33,0,0,1-1.39.81c-.65,0-1.36,0-2-.08l-.14-1.26a14.46,14.46,0,0,0,1.74.14.62.62,0,0,0,.68-.4,17.27,17.27,0,0,0,.57-4.85H41.11c-.45,3.34-1.63,5.17-3.7,6.62l-1.1-.9a6.47,6.47,0,0,0,1.38-1,7.46,7.46,0,0,0,2.19-4.71H38.06c-.44,0-1,0-1.46.05V3.22a14,14,0,0,0,1.46.08H40c0-.36,0-.74,0-1.15a7.42,7.42,0,0,0-.09-1h1.41c0,.28-.05.72-.06,1s0,.8-.06,1.17Zm.85-.3a13.75,13.75,0,0,0-1-1.66L44.49,1a18.26,18.26,0,0,1,1,1.65ZM45.84.51a15.24,15.24,0,0,1,1,1.63l-.78.34a13.53,13.53,0,0,0-1-1.65Z"/><path class="cls-1" d="M53.69,9.53a8.81,8.81,0,0,0,.09,1.41H52.29a12.76,12.76,0,0,0,.07-1.41V5.26A23,23,0,0,1,48,7l-.68-1.16a19.12,19.12,0,0,0,5.41-2.18A13.3,13.3,0,0,0,55.88,1l1,.92a19.56,19.56,0,0,1-3.21,2.58Z"/><path class="cls-1" d="M60.87,4.5a38.56,38.56,0,0,1,5.07,1.92l-.52,1.3a33.45,33.45,0,0,0-4.55-1.86v3.7c0,.38,0,1.1.09,1.54H59.5a12.72,12.72,0,0,0,.1-1.54V2.63a8.75,8.75,0,0,0-.11-1.34H61c0,.39-.1.91-.1,1.34Zm3.43-.57a11.3,11.3,0,0,0-1-1.84l.8-.35a14.6,14.6,0,0,1,1.09,1.82Zm1.56-.64a12.69,12.69,0,0,0-1.1-1.8l.8-.37A15.09,15.09,0,0,1,66.68,2.9Z"/></svg>