<svg id="Layer_1" data-name="Layer 1" xmlns="http://www.w3.org/2000/svg" viewBox="0 0 70 12.92"><defs><style>.cls-1{fill:#fff;}</style></defs><title>다국어-eng</title><path class="cls-1" d="M14.17,1.05h2.68c2,0,3.37.67,3.37,2.66s-1.41,2.82-3.33,2.82H15.56V9.88H14.17Zm2.59,4.36c1.42,0,2.09-.54,2.09-1.7s-.73-1.55-2.14-1.55H15.56V5.41Z"/><path class="cls-1" d="M20.89,8.12c0-1.41,1.2-2.14,3.95-2.44,0-.77-.29-1.44-1.26-1.44a3.61,3.61,0,0,0-1.91.67L21.15,4a5.1,5.1,0,0,1,2.67-.86c1.64,0,2.4,1,2.4,2.8v4H25.09L25,9.12h0a3.29,3.29,0,0,1-2.1.91A1.82,1.82,0,0,1,20.89,8.12Zm3.95.05V6.55c-2,.24-2.62.73-2.62,1.48s.45.91,1,.91A2.34,2.34,0,0,0,24.84,8.17Z"/><path class="cls-1" d="M28.17,3.28H29.3l.11,1.19h0a2.26,2.26,0,0,1,1.87-1.36,1.71,1.71,0,0,1,.74.14l-.25,1.2a2,2,0,0,0-.66-.1c-.54,0-1.19.37-1.61,1.41V9.88H28.17Z"/><path class="cls-1" d="M33.08.32h1.35V6.48h0l2.59-3.2h1.53L36.33,6l2.5,3.93h-1.5l-1.79-3L34.43,8.17V9.88H33.08Z"/><path class="cls-1" d="M39.79,1.23a.88.88,0,1,1,.88.81A.82.82,0,0,1,39.79,1.23ZM40,3.28h1.37v6.6H40Z"/><path class="cls-1" d="M43.43,3.28h1.12l.11.91h0a3.12,3.12,0,0,1,2.18-1.08c1.4,0,2,.94,2,2.62V9.88H47.53v-4c0-1.14-.34-1.59-1.12-1.59a2.25,2.25,0,0,0-1.62.9V9.88H43.43Z"/><path class="cls-1" d="M50.43,11.1a1.75,1.75,0,0,1,1-1.44V9.6a1.22,1.22,0,0,1-.6-1.09,1.65,1.65,0,0,1,.74-1.23v0a2.26,2.26,0,0,1-.87-1.75,2.39,2.39,0,0,1,2.56-2.38,2.7,2.7,0,0,1,1,.17h2.33v1H55.26a1.79,1.79,0,0,1,.43,1.21,2.25,2.25,0,0,1-2.47,2.27,2.21,2.21,0,0,1-.93-.21.92.92,0,0,0-.36.7c0,.4.27.65,1.11.65h1.21c1.56,0,2.37.48,2.37,1.6,0,1.28-1.34,2.31-3.45,2.31C51.58,12.84,50.43,12.25,50.43,11.1Zm4.86-.35c0-.55-.43-.72-1.23-.72h-1a3.68,3.68,0,0,1-.89-.1,1.21,1.21,0,0,0-.56,1c0,.65.67,1,1.76,1S55.29,11.36,55.29,10.75Zm-.83-5.26a1.25,1.25,0,1,0-2.49,0,1.25,1.25,0,1,0,2.49,0Z"/></svg>