<svg id="Layer_1" data-name="Layer 1" xmlns="http://www.w3.org/2000/svg" viewBox="0 0 70 12.92"><defs><style>.cls-1{fill:#fff;}</style></defs><title>다국어-kr</title><path class="cls-1" d="M24.16,8.88H19.88V12.2H18.64V8.88H14.37v-1h9.79Zm-9.23-2.7c2.1-.25,3.59-1.39,3.7-2.56H15.29v-1h3.35V1.34h1.24V2.63h3.35v1H19.89c.1,1.15,1.59,2.31,3.69,2.56l-.44,1A5.41,5.41,0,0,1,19.25,5a5.38,5.38,0,0,1-3.88,2.11Z"/><path class="cls-1" d="M30.65,8A4.23,4.23,0,0,1,28,5.79,4.28,4.28,0,0,1,25.4,8.18l-.61-1a3.54,3.54,0,0,0,2.6-3.31v-.2H25.11v-1h2.28V1.4h1.25V2.71H30.9v1H28.62v.2A3.39,3.39,0,0,0,31.25,7Zm3.41,3v1h-7.3V8.71H28V11ZM32.54,4.59V1.36h1.24v8H32.54V5.61h-2v-1Z"/><path class="cls-1" d="M35.61,2.53h4.17V9.36H35.61Zm1.15,5.84h1.87V3.51H36.76Zm7.74-7V12.16H43.32V6.57H42.09v5.09H40.92V1.55h1.17v4h1.23V1.34Z"/><path class="cls-1" d="M51.45,7.4A4.07,4.07,0,0,1,48.9,5.23a4.43,4.43,0,0,1-2.68,2.52l-.63-1a3.68,3.68,0,0,0,2.65-3.46V3.11h-2.3v-1h5.82v1H49.49v.2a3.35,3.35,0,0,0,2.56,3.13Zm2.82,2.72c0,1.29-1.38,2.05-3.61,2.05S47,11.41,47,10.12s1.38-2,3.62-2S54.27,8.83,54.27,10.12Zm-1.23,0C53,9.42,52.17,9,50.66,9s-2.39.38-2.39,1.08.87,1.08,2.39,1.08S53,10.82,53,10.12ZM55.68,4V5H54.15V7.82H52.91V1.34h1.24V4Z"/></svg>