<?xml version="1.0" encoding="utf-8"?>
<!-- Generator: Adobe Illustrator 22.0.0, SVG Export Plug-In . SVG Version: 6.00 Build 0)  -->
<svg version="1.2" baseProfile="tiny" id="Layer_1" xmlns="http://www.w3.org/2000/svg" xmlns:xlink="http://www.w3.org/1999/xlink"
	 x="0px" y="0px" viewBox="0 0 122 106" xml:space="preserve">
<g>
	<path fill="#FFFFFF" d="M90.4,24.1H32.1c-2.2,0-4,1.8-4,3.9v67.7c0,2.2,1.8,3.9,4,3.9h58.3c2.2,0,4-1.8,4-3.9V28
		C94.4,25.9,92.6,24.1,90.4,24.1z M39.6,43.1c-4.7,0-8.6-3.8-8.6-8.5c0-4.7,3.9-8.5,8.6-8.5c4.8,0,8.6,3.8,8.6,8.5
		C48.3,39.3,44.4,43.1,39.6,43.1z M82.9,43.1c-4.8,0-8.7-3.8-8.7-8.5c0-4.7,3.9-8.5,8.7-8.5c4.8,0,8.7,3.8,8.7,8.5
		C91.6,39.3,87.7,43.1,82.9,43.1z"/>
	<path fill="#FFFFFF" d="M82.8,34.5c-1,0-1.8-0.8-1.8-1.8v-7C81,17,73.8,9.9,64.9,9.9h-7.2c-8.9,0-16.1,7.1-16.1,15.9v7
		c0,1-0.8,1.8-1.8,1.8c-1,0-1.8-0.8-1.8-1.8v-7C38,15,46.8,6.3,57.7,6.3h7.2c10.9,0,19.7,8.7,19.7,19.4v7
		C84.6,33.7,83.8,34.5,82.8,34.5L82.8,34.5z"/>
	<path fill="#FFFFFF" d="M85.1,19.9c0.5,0.9,1,1.8,1.4,2.7h3.8c-1.8-5.7-6.1-10.3-11.7-12.4C81.7,12.7,84,16,85.1,19.9z"/>
	<path fill="#FFFFFF" d="M49.2,22.6c2.3-6,8.2-10.3,15-10.3h4c-1.7-0.6-3.5-1-5.3-1c0,0-7.8-0.4-13,3.6c-2.1,2.1-3.6,4.8-4.5,7.7
		H49.2z"/>
</g>
</svg>
