<?xml version="1.0" encoding="utf-8"?>
<!-- Generator: Adobe Illustrator 22.0.0, SVG Export Plug-In . SVG Version: 6.00 Build 0)  -->
<svg version="1.2" baseProfile="tiny" id="Layer_1" xmlns="http://www.w3.org/2000/svg" xmlns:xlink="http://www.w3.org/1999/xlink"
	 x="0px" y="0px" viewBox="0 0 122 106" xml:space="preserve">
<g>
	<path fill="#FFFFFF" d="M55.3,9l-0.8,20.5c0,0.6-0.5,1.1-1.1,1.1c-0.6,0-1.1-0.5-1.1-1.1L51.5,9h-3.2l-0.8,20.5
		c0,0.6-0.5,1.1-1.1,1.1c-0.6,0-1.1-0.5-1.1-1.1L44.6,9h-3.2l-0.8,20.5c0,0.6-0.5,1.1-1.1,1.1c-0.6,0-1.1-0.5-1.1-1.1L37.6,9h-2.7
		c0,0-1.5,19.7-1.4,21.9c0.1,3.1,0.9,7.9,4.5,11.5c5,4.9,5.1,6,5.4,9.8l-0.6,45.5c0,0,0.2,2.1,3.6,2.1c3.4,0,3.6-2.1,3.6-2.1
		l-0.6-45.5c0.3-3.8,0.4-4.9,5.4-9.8c3.6-3.6,4.4-8.3,4.5-11.5v-0.1v-0.2C59.4,27.1,58,9,58,9H55.3z"/>
	<path fill="#FFFFFF" d="M85,9c-6,0-10.9,4.9-10.9,10.9v29.6c0,4.5,2.8,8.4,6.7,10.1v37.5c0,1.4,1.1,2.5,2.5,2.5H85
		c1.4,0,2.5-1.1,2.5-2.5V60.5V9H85z"/>
</g>
</svg>
