<?xml version="1.0" encoding="utf-8"?>
<!-- Generator: Adobe Illustrator 22.0.0, SVG Export Plug-In . SVG Version: 6.00 Build 0)  -->
<svg version="1.2" baseProfile="tiny" id="Layer_1" xmlns="http://www.w3.org/2000/svg" xmlns:xlink="http://www.w3.org/1999/xlink"
	 x="0px" y="0px" viewBox="0 0 122 106" xml:space="preserve">
<g>
	<path fill="#FFFFFF" d="M30.4,41.2v15.2c0,2.3,1.9,4.2,4.2,4.2h52.8c2.3,0,4.2-1.9,4.2-4.2V41.2c0-3.9,2.2-7.2,5.5-8.9v-4.5
		c0-5.2-4.2-9.4-9.4-9.4H34.3c-5.2,0-9.4,4.2-9.4,9.4v4.5C28.1,33.9,30.4,37.3,30.4,41.2z"/>
	<path fill="#FFFFFF" d="M101.5,35.3c-3.2,0-5.8,2.6-5.8,5.8v15.2c0,4.6-3.7,8.3-8.3,8.3H34.6c-4.6,0-8.3-3.7-8.3-8.3V41.2
		c0-3.2-2.6-5.8-5.8-5.8c-3.2,0-5.8,2.6-5.8,5.8v15.2c0,11,8.9,19.9,19.9,19.9h0.2L30.3,95h3.1l7.2-18.8h42.7L90.5,95h3.1l-4.5-18.8
		c10.2-0.9,18.2-9.4,18.2-19.9V41.2C107.3,37.9,104.7,35.3,101.5,35.3z"/>
</g>
</svg>
