<?xml version="1.0" encoding="utf-8"?>
<!-- Generator: Adobe Illustrator 22.0.0, SVG Export Plug-In . SVG Version: 6.00 Build 0)  -->
<svg version="1.2" baseProfile="tiny" id="Layer_1" xmlns="http://www.w3.org/2000/svg" xmlns:xlink="http://www.w3.org/1999/xlink"
	 x="0px" y="0px" viewBox="0 0 122 106" xml:space="preserve">
<g>
	<path fill="#FFFFFF" d="M110,14.5h-21c-0.8,0-1.4,0.6-1.4,1.4v16.4H71.3c-0.8,0-1.4,0.6-1.4,1.4V50H53.5c-0.8,0-1.4,0.6-1.4,1.4
		v16.4H35.8c-0.8,0-1.4,0.6-1.4,1.4v16.4H12.1c-0.8,0-1.4,0.6-1.4,1.4v3.2c0,0.8,0.6,1.4,1.4,1.4H39c0.8,0,1.4-0.6,1.4-1.4V73.7
		h16.4c0.8,0,1.4-0.6,1.4-1.4V56h16.4c0.8,0,1.4-0.6,1.4-1.4V38.2h16.4c0.8,0,1.4-0.6,1.4-1.4V20.4H110c0.8,0,1.4-0.6,1.4-1.4v-3.2
		C111.4,15.1,110.8,14.5,110,14.5z"/>
	<polygon fill="#FFFFFF" points="26.6,53.2 57.4,23.9 56.8,37.1 60.3,37.3 61.2,18 41.9,17.1 41.8,20.6 54.3,21.2 23.8,50.3 	"/>
</g>
</svg>
