<?xml version="1.0" encoding="utf-8"?>
<!-- Generator: Adobe Illustrator 22.0.0, SVG Export Plug-In . SVG Version: 6.00 Build 0)  -->
<svg version="1.2" baseProfile="tiny" id="Layer_1" xmlns="http://www.w3.org/2000/svg" xmlns:xlink="http://www.w3.org/1999/xlink"
	 x="0px" y="0px" viewBox="0 0 122 106" xml:space="preserve">
<g>
	<path fill="#FFFFFF" d="M70.7,16.4c-2-5.8-5.5-9.5-9.3-9.5c-4,0-7.3,3.7-9.4,9.5H31.7v39.1h58.5V16.4H70.7z M51.5,25.3
		c-0.8,0-1.5-0.7-1.5-1.5c0-0.8,0.7-1.5,1.5-1.5c0.8,0,1.5,0.7,1.5,1.5C53,24.7,52.3,25.3,51.5,25.3z M54.2,16.4
		c1.7-4.5,4.3-7.5,7.2-7.5c2.9,0,5.5,2.9,7.2,7.5H54.2z M71.3,25.3c-0.9,0-1.5-0.7-1.5-1.5c0-0.8,0.5-1.5,1.5-1.5
		c0.8,0,1.5,0.7,1.5,1.5C72.7,24.7,72.1,25.3,71.3,25.3z"/>
	<path fill="#FFFFFF" d="M87.7,82.3l-0.1-0.1L87.3,82L63.2,67.8C60.9,66.5,60,66,60,66c-0.7-0.2-1.2-0.1-1.2-0.1
		c-1.3,0.1-2,1.6-2,1.6c-1.1,3.8,2.8,6.7,2.8,6.7l9.7,5.7c1.5,1.2,0.2,2.9,0.2,2.9l-5.2,4.5c-1.3,1.2-3.4,0.7-3.4,0.7l-13.4-2.3
		l-10-11.1c-1.1-1.3-3-1.4-4.3-0.3c-1.3,1.1-1.4,3-0.3,4.3L43.4,91l0.4,0.3v0l0,0c0.3,0.2,0.6,0.4,0.9,0.5l11.8,6.8
		c1.7,1.2,2.7,1.2,2.7,1.2h26c4.6,0,4.7-3,4.7-3v-9.3v-0.3V87c0-2-0.7-3.3-1.4-4C88.1,82.5,87.7,82.3,87.7,82.3z"/>
	<path fill="#FFFFFF" d="M63.6,86.9l-8.8-10.3c-1.1-1.3-3-1.4-4.3-0.3c-0.3,0.2-0.5,0.5-0.6,0.8l7.5,8.8L63.6,86.9z"/>
	<path fill="#FFFFFF" d="M41.6,75.3c-0.3,0.2-0.4,0.5-0.6,0.7l7.1,8.2l6.2,1.1L46,75.6C44.9,74.3,42.9,74.2,41.6,75.3z"/>
</g>
</svg>
