<?xml version="1.0" encoding="utf-8"?>
<!-- Generator: Adobe Illustrator 22.0.0, SVG Export Plug-In . SVG Version: 6.00 Build 0)  -->
<svg version="1.2" baseProfile="tiny" id="Layer_1" xmlns="http://www.w3.org/2000/svg" xmlns:xlink="http://www.w3.org/1999/xlink"
	 x="0px" y="0px" viewBox="0 0 122 106" xml:space="preserve">
<g>
	<path fill="#FFFFFF" d="M61.4,24.4L61.4,24.4l0.1-9.1h15.1L60.6,3.8v9.4h0v11.3h0.1c-4.1,26-39,48.8-39,48.8h78.8
		C100.5,73.2,65.6,50.4,61.4,24.4z"/>
	<path fill="#FFFFFF" d="M26.7,101.5h68.8V77.1H26.7V101.5z M79.7,81.3H90v2.5h-3.7v13.8h-2.9V83.8h-3.7V81.3z M67.5,81.3h2.3
		l4.6,7.2v-7.2h2.9v16.4h-2.9v-4.6l-4.1-6.3v10.9h-2.9V81.3z M56.3,81.3h7.9v2.5h-5v4.3h3.6v2.4h-3.6v4.5h5.2v2.7h-8.1V81.3z
		 M45.9,81.3l2.5,11.3L51,81.3h3l-4.3,16.4h-2.5L43,81.3H45.9z M33.4,81.3h7.9v2.5h-5v4.3H40v2.4h-3.6v4.5h5.2v2.7h-8.1V81.3z"/>
</g>
</svg>
