<?xml version="1.0" encoding="utf-8"?>
<!-- Generator: Adobe Illustrator 22.0.0, SVG Export Plug-In . SVG Version: 6.00 Build 0)  -->
<svg version="1.2" baseProfile="tiny" id="Layer_1" xmlns="http://www.w3.org/2000/svg" xmlns:xlink="http://www.w3.org/1999/xlink"
	 x="0px" y="0px" viewBox="0 0 122 106" xml:space="preserve">
<g>
	<path fill="#FFFFFF" d="M62,30.9L62,30.9L62,30.9L62,30.9L62,30.9c6.1,0,11-4.9,11-11c0-6.1-4.9-11-11-11v0h0h0v0
		c-6.1,0-11,4.9-11,11C51,26,56,30.9,62,30.9z"/>
	<path fill="#FFFFFF" d="M80.3,87h-7V36.9H45.6c-2.7,0-3.9,2.2-3.9,4.9v0.9c0,2.7,1.3,4.9,3.9,4.9h6.1V87h-7c-2.7,0-3.9,2.2-3.9,4.9
		v0.9c0,2.7,1.3,4.9,3.9,4.9h35.7c2.7,0,3.9-2.2,3.9-4.9v-0.9C84.3,89.2,83,87,80.3,87z"/>
</g>
</svg>
