<svg id="Layer_1" data-name="Layer 1" xmlns="http://www.w3.org/2000/svg" viewBox="0 0 276 36"><defs><style>.cls-1{fill:#e30613;}</style></defs><title>Untitled-3</title><path class="cls-1" d="M26.57,3.56a10.23,10.23,0,0,0-14.46,0L4.78,10.9a10.26,10.26,0,0,0,0,14.44l7.33,7.33a10.21,10.21,0,0,0,14.46,0l7.35-7.33a10.26,10.26,0,0,0,0-14.44ZM15,28.9h0a1.08,1.08,0,0,1-1.06-1,1.1,1.1,0,0,1,.26-.78,1.08,1.08,0,0,1,.76-.36A1.09,1.09,0,1,1,15,28.9Zm13.05-4.53c-1.48,2.35-3.45,4-5.24,4.44h-.06a5.32,5.32,0,0,1-1,.1,4.73,4.73,0,0,1-2.57-.82,8.23,8.23,0,0,1-1.61-1.53c-3.1-4-3.29-11.45-3.32-12.29-.05-2,.25-4.68,1.81-6.24a3.82,3.82,0,0,1,2.81-1.12h.19A3.86,3.86,0,0,1,22,8c1.53,1.56,1.83,4.24,1.8,6.24A20.27,20.27,0,0,1,21.2,24a1.06,1.06,0,0,1-.84.47.68.68,0,0,1-.49-.16A1,1,0,0,1,19.52,23a17,17,0,0,0,2.28-8.71c0-2.28-.4-4-1.24-4.81a1.89,1.89,0,0,0-1.44-.57h-.19a1.91,1.91,0,0,0-1.45.57c-.83.82-1.26,2.53-1.23,4.81.05,2.8.73,8.29,2.92,11.13a5.41,5.41,0,0,0,1.16,1.1,2.64,2.64,0,0,0,1.48.51,3.23,3.23,0,0,0,.61-.06c1.27-.31,2.82-1.72,4-3.6a1,1,0,0,1,.83-.45.73.73,0,0,1,.51.17.82.82,0,0,1,.43.59A1,1,0,0,1,28.08,24.37Z"/><path class="cls-1" d="M172.88,22.93h6.3v1.44H170a1.43,1.43,0,0,1-1.43-1.43V12.37h3.59v9.85a.71.71,0,0,0,.72.71M103.15,12.37h9.79v1.42H106a.71.71,0,0,0-.71.71v2.8h7.51v1.4h-7.51v3.54A.71.71,0,0,0,106,23h6.91v1.42h-9.79a1.43,1.43,0,0,1-1.43-1.43V13.8a1.43,1.43,0,0,1,1.43-1.43M50.07,22.93h6.3v1.44H47.19a1.43,1.43,0,0,1-1.43-1.43V12.37h3.59v9.85a.71.71,0,0,0,.72.71M86.79,12.37h12.9v1.44h-5V24.37H91V13.81H86.79Zm-14.26,0H85.42v1.44H81.23V24.37H77.49V13.81h-5ZM64.34,23.52c-2.26,0-4-2.29-4-5.11s1.72-5.12,4-5.12,4,2.29,4,5.12-1.72,5.11-4,5.11m0-11.63c-4.72,0-7.54,2.92-7.54,6.52s2.82,6.5,7.54,6.5,7.54-2.91,7.54-6.5-2.82-6.52-7.54-6.52m71.72.48-3.14,11.07a1.11,1.11,0,0,1-1.11.95h-1.75a1.11,1.11,0,0,1-1.11-.95L127,17l-1.84,6.47a1.12,1.12,0,0,1-1.12.95h-1.74a1.12,1.12,0,0,1-1.12-.95l-3.28-11.07H121l2.76,9.49,2.65-9.49h2.32l2.78,9.49,2.57-9.49ZM186.59,23h-2.41V13.8h2.41c2.27,0,3.56,1.75,3.56,4.58S188.86,23,186.59,23m.19-10.58h-5.94v12h5.94c4.73,0,6.94-2.4,6.94-6s-2.21-6-6.94-6M144.43,23.52c-2.25,0-4-2.29-4-5.11s1.72-5.12,4-5.12,4,2.29,4,5.12-1.71,5.11-4,5.11m0-11.63c-4.71,0-7.54,2.92-7.54,6.52s2.83,6.5,7.54,6.5S152,22,152,18.41s-2.83-6.52-7.55-6.52m15.42,6.05h-2.63V13.78h2.71A2,2,0,0,1,162,15.84a2.09,2.09,0,0,1-2.16,2.1m5.23,3c-.56-1.14-1.05-1.91-2.3-2.1a3.08,3.08,0,0,0,2.68-3.05c0-1.89-1.34-3.46-4.6-3.43h-7v12h3.34v-5h1.6A2.87,2.87,0,0,1,161.48,21l1.62,3.36h3.66Zm40.46-7.12V24.39h-3.6V13.83h-4.43V12.39H210v1.44Zm42.56-1.45h9.79V13.8H251a.71.71,0,0,0-.72.71v2.8h7.53v1.41h-7.53v3.54A.71.71,0,0,0,251,23h6.91v1.42H248.1A1.43,1.43,0,0,1,246.67,23V13.81a1.43,1.43,0,0,1,1.43-1.43m-30,11.13c-2.26,0-4-2.29-4-5.12s1.72-5.11,4-5.11,4,2.29,4,5.11-1.72,5.12-4,5.12m0-11.63c-4.72,0-7.54,2.91-7.54,6.51s2.82,6.52,7.54,6.52,7.56-2.91,7.56-6.52-2.83-6.51-7.56-6.51m26.59.51-3.15,11.08a1.11,1.11,0,0,1-1.11.94h-1.74a1.12,1.12,0,0,1-1.12-.94L235.67,17l-1.83,6.48a1.13,1.13,0,0,1-1.13.94H231a1.12,1.12,0,0,1-1.12-.94l-3.28-11.08h3.08l2.76,9.49,2.65-9.49h2.33l2.77,9.49,2.57-9.49Zm18.83,1.39h2.71a2,2,0,0,1,2.08,2.06,2.09,2.09,0,0,1-2.16,2.1h-2.63Zm-3.34-1.41v12h3.34v-5h1.6A2.87,2.87,0,0,1,267.82,21l1.62,3.36h3.66L271.42,21c-.56-1.14-1.05-1.91-2.3-2.1a3.08,3.08,0,0,0,2.68-3.05c0-1.89-1.34-3.46-4.6-3.43Z"/></svg>