<svg id="Layer_1" data-name="Layer 1" xmlns="http://www.w3.org/2000/svg" viewBox="0 0 276 36"><defs><style>.cls-1{fill:#e30613;}</style></defs><title>Untitled-3</title><path class="cls-1" d="M33.82,3.45a10.2,10.2,0,0,0-14.45,0L12,10.78a10.26,10.26,0,0,0,0,14.44l7.33,7.33a10.2,10.2,0,0,0,14.45,0l7.36-7.33a10.26,10.26,0,0,0,0-14.44ZM22.29,28.78h0a1.08,1.08,0,0,1-1.06-1,1.1,1.1,0,0,1,.26-.78,1.08,1.08,0,0,1,.76-.36,1.09,1.09,0,1,1,.08,2.18Zm13.05-4.52c-1.48,2.35-3.45,4-5.24,4.43H30a5.44,5.44,0,0,1-1,.11A4.73,4.73,0,0,1,26.5,28a8.56,8.56,0,0,1-1.62-1.53c-3.09-4-3.28-11.45-3.31-12.29-.05-2,.25-4.68,1.81-6.24a3.81,3.81,0,0,1,2.8-1.11h.2a3.87,3.87,0,0,1,2.84,1.11c1.53,1.56,1.83,4.24,1.8,6.24a20.22,20.22,0,0,1-2.57,9.69,1.05,1.05,0,0,1-.83.47.72.72,0,0,1-.5-.17.94.94,0,0,1-.34-1.32,16.88,16.88,0,0,0,2.27-8.7c0-2.28-.39-4-1.23-4.82a1.89,1.89,0,0,0-1.44-.57h-.19a1.91,1.91,0,0,0-1.45.57c-.83.83-1.27,2.54-1.23,4.82,0,2.79.73,8.28,2.92,11.12a5.68,5.68,0,0,0,1.15,1.11,2.78,2.78,0,0,0,1.49.5,3.23,3.23,0,0,0,.61-.06c1.26-.31,2.82-1.71,4-3.6a1,1,0,0,1,.83-.45.79.79,0,0,1,.51.17.87.87,0,0,1,.43.59A1,1,0,0,1,35.34,24.26Z"/><path class="cls-1" d="M260.58,22.83a.73.73,0,0,1-.73-.73v-10h-3.68v10.8a1.46,1.46,0,0,0,1.46,1.45H267V22.83Zm-12.41,0a.72.72,0,0,1-.73-.73v-10h-3.69v10.8a1.46,1.46,0,0,0,1.45,1.45h9.43V22.83Zm-14.48-8.06,2.7,5.64H231ZM242,24.29,236,12.05h-2.89l-6.35,12.24h2.41l1.19-2.46h6.75l1.2,2.46Zm-26.87,0-3.53-10v10h-2.22V12h4.71l3.08,8.79,3-8.79h4.77V24.29h-3.81V14.21L217.6,24.29Z"/><path class="cls-1" d="M182.31,22.1l0-10.1h-3.66l0,10.81a1.43,1.43,0,0,0,1.44,1.47l9.39,0V22.8H183a.7.7,0,0,1-.73-.71m-72-8.54v9.35a1.45,1.45,0,0,0,1.43,1.46l10,0V22.93h-7a.73.73,0,0,1-.74-.72V18.58h7.67V17.15H114v-2.9a.71.71,0,0,1,.74-.71h7V12.07l-10,0a1.46,1.46,0,0,0-1.42,1.47m-53.55,8.7,0-10.1H53V23a1.45,1.45,0,0,0,1.46,1.47l9.39,0V23H57.46a.7.7,0,0,1-.73-.71M95,13.61h4.3V24.38h3.81V13.6h5.07v-1.5L95,12.11Zm-14.59,0H85.5V24.4H89.3V13.62h4.3v-1.5l-13.18,0Zm-4.31,4.7c0-2.89-1.77-5.22-4.08-5.21s-4,2.33-4,5.22,1.75,5.21,4,5.21,4.08-2.33,4.08-5.22m3.64,0C79.75,22,76.87,25,72,25s-7.69-3-7.7-6.63,2.87-6.66,7.7-6.66,7.71,3,7.72,6.63M143.32,12l-2.58,9.74-2.85-9.73h-2.4l-2.67,9.72L130,12.06h-3.13l3.36,11.33a1.15,1.15,0,0,0,1.14,1h1.8a1.12,1.12,0,0,0,1.13-1l1.87-6.65,2,6.64a1.08,1.08,0,0,0,1.11.94H141a1.14,1.14,0,0,0,1.16-.94L145.39,12Zm57.36,6.1c0-2.9-1.3-4.7-3.61-4.7H194.6v9.38h2.48c2.31,0,3.61-1.81,3.6-4.69m3.67,0c0,3.67-2.27,6.12-7.11,6.13h-6.08l0-12.27h6.08c4.85,0,7.12,2.47,7.13,6.15M158,18.22c0-2.89-1.81-5.21-4.1-5.21s-4.09,2.33-4.08,5.23,1.8,5.21,4.09,5.21S158,21.11,158,18.22m3.64,0c0,3.69-2.88,6.66-7.72,6.67s-7.73-3-7.73-6.64,2.89-6.65,7.7-6.66,7.74,3,7.75,6.63m10.24-2.63a2,2,0,0,0-2.1-2.1H167v4.23h2.67a2.1,2.1,0,0,0,2.2-2.14m4.87,8.7H173l-1.65-3.41a3,3,0,0,0-2.74-1.72H167V24.3h-3.46V12h7.15c3.32,0,4.72,1.61,4.72,3.49a3.22,3.22,0,0,1-2.74,3.19c1.27.16,1.77.94,2.33,2.14Z"/></svg>