<svg id="Layer_1" data-name="Layer 1" xmlns="http://www.w3.org/2000/svg" viewBox="0 0 276 36"><defs><style>.cls-1{fill:#131e29;}</style></defs><title>Untitled-3</title><path class="cls-1" d="M173.16,12.09h6.08V10h-8.48V25.83h8.52V23.75h-6.12V18.61h6.13V16.49h-6.13Z"/><path class="cls-1" d="M119.09,12.09h6.08V10h-8.48V25.83h8.52V23.75h-6.12V18.61h6.14V16.49h-6.14Z"/><path class="cls-1" d="M141.73,10v12l-6.41-12h-2.61V25.83h2.36V14.24l6.27,11.61,2.75,0V10Z"/><path class="cls-1" d="M103.69,22.9C103.13,21.27,99.17,10,99.17,10H96.73l5.67,15.86h2.53L110.7,10h-2.45S104.27,21.27,103.69,22.9Z"/><path class="cls-1" d="M85.87,10,80.21,25.83h2.43s4-11.29,4.52-12.93l4.56,12.93h2.44L88.4,10Z"/><path class="cls-1" d="M160.76,10V20.4a4.62,4.62,0,0,1-.42,2.26c-.49.81-1.49,1.22-3,1.22a2.83,2.83,0,0,1-2.73-1.23,4.62,4.62,0,0,1-.43-2.25V10h-2.4V21a5.16,5.16,0,0,0,.89,3,5.38,5.38,0,0,0,4.67,2c2.35,0,4-.68,5-2a5,5,0,0,0,.84-3V10Z"/><path class="cls-1" d="M189.1,23.71V10h-2.4V25.78h9.09V23.71Z"/></svg>