<?xml version="1.0" encoding="utf-8"?>
<!-- Generator: Adobe Illustrator 22.0.0, SVG Export Plug-In . SVG Version: 6.00 Build 0)  -->
<svg version="1.2" baseProfile="tiny" id="Layer_1" xmlns="http://www.w3.org/2000/svg" xmlns:xlink="http://www.w3.org/1999/xlink"
	 x="0px" y="0px" viewBox="0 0 650 144" xml:space="preserve">
<g>
	<path fill="#ED1C24" d="M113.3,59.3c-9.6,0-15.4,6-15.4,13.3c0,7.4,5.8,13.3,15.4,13.3c9.6,0,15.4-6,15.4-13.3
		C128.8,65.3,123,59.3,113.3,59.3z M113.3,83.1c-4.6,0-8.1-4.7-8.1-10.5c0-5.8,3.5-10.5,8.1-10.5c4.6,0,8.1,4.7,8.1,10.5
		C121.5,78.4,117.9,83.1,113.3,83.1z"/>
	<polygon fill="#ED1C24" points="130.1,63.3 140.2,63.3 140.2,84.9 147.9,84.9 147.9,63.3 156.5,63.3 156.5,60.3 130.1,60.3 	"/>
	<polygon fill="#ED1C24" points="159.3,63.3 167.8,63.3 167.8,84.9 175.5,84.9 175.5,63.3 185.6,63.3 185.6,60.3 159.3,60.3 	"/>
	<path fill="#ED1C24" d="M82.6,80.5V60.3h-7.3v21.6c0,1.6,1.3,2.9,2.9,2.9H97v-2.9H84.1C83.3,81.9,82.6,81.3,82.6,80.5z"/>
	<path fill="#ED1C24" d="M189.8,63.2v18.7c0,1.6,1.3,2.9,2.9,2.9h20V82h-14.1c-0.8,0-1.5-0.7-1.5-1.5v-7.2h15.4v-2.9h-15.4v-5.7
		c0-0.8,0.6-1.5,1.5-1.5h14.1v-2.9h-20C191.1,60.3,189.8,61.6,189.8,63.2z"/>
</g>
<g>
	<g>
		<path fill="#636569" d="M254.4,79c-1.8,2.7-4.6,4-8,4c-5.7,0-9.7-4.2-9.7-10.1c0-5.8,4.1-10.1,9.7-10.1c3.3,0,6,1.3,7.7,3.8
			l0.2,0.3l2.6-1.9l-0.2-0.3c-2.2-3.3-5.8-5-10.3-5c-7.6,0-13.3,5.7-13.3,13.2c0,7.6,5.7,13.2,13.3,13.2c4.5,0,8.3-1.9,10.7-5.3
			l0.2-0.3l-2.7-1.9L254.4,79z"/>
		<path fill="#636569" d="M277.7,59.7c-7.6,0-13.3,5.7-13.3,13.2c0,7.6,5.7,13.2,13.3,13.2c7.6,0,13.3-5.7,13.3-13.2
			C291,65.4,285.3,59.7,277.7,59.7 M277.7,83c-5.7,0-9.8-4.2-9.8-10.1c0-5.8,4.1-10.1,9.8-10.1c5.7,0,9.8,4.3,9.8,10.1
			C287.5,78.8,283.4,83,277.7,83"/>
		<path fill="#636569" d="M317.4,77.3c0,0.5,0,1,0.1,1.5c-0.3-0.4-0.7-0.9-1-1.3l-15.1-17.9h-1v26.2h3.3V68.5c0-0.4,0-1-0.1-1.5
			c0.3,0.4,0.7,0.9,0.9,1.2l15.1,17.9h1V60h-3.2V77.3z"/>
		<path fill="#636569" d="M351.2,79c-1.8,2.7-4.6,4-8,4c-5.6,0-9.8-4.2-9.8-10.1c0-5.8,4.1-10.1,9.8-10.1c3.3,0,6,1.3,7.7,3.8
			L351,67l2.6-1.9l-0.2-0.3c-2.2-3.3-5.8-5-10.3-5c-7.6,0-13.3,5.7-13.3,13.2c0,7.6,5.7,13.2,13.3,13.2c4.5,0,8.3-1.9,10.7-5.3
			l0.2-0.3l-2.7-1.9L351.2,79z"/>
		<polygon fill="#636569" points="366.2,74.4 377.5,74.4 377.5,71.3 366.2,71.3 366.2,63.1 378.9,63.1 378.9,60 362.8,60 
			362.8,85.9 379.4,85.9 379.4,82.8 366.2,82.8 		"/>
		<path fill="#636569" d="M406.2,68.1c0-5.1-3.5-8.1-9.3-8.1h-7.9v25.9h3.4V76h4.2c0.3,0,0.7,0,1,0l5.8,9.9h4L401,75.4
			C404.3,74.2,406.2,71.6,406.2,68.1 M392.3,63.1h4.4c4,0,5.9,1.6,5.9,5c0,3.3-2,4.9-5.9,4.9h-4.4V63.1z"/>
		<polygon fill="#636569" points="413,63.1 420.8,63.1 420.8,85.9 424.2,85.9 424.2,63.1 431.9,63.1 431.9,60 413,60 		"/>
		<polygon fill="#636569" points="470,71.7 457.3,71.7 457.3,60 453.8,60 453.8,85.9 457.3,85.9 457.3,74.9 470,74.9 470,85.9 
			473.4,85.9 473.4,60 470,60 		"/>
		<path fill="#636569" d="M492.6,59.7l-10.7,26.2h3.4l2.2-5.7h11l2.3,5.7h3.6l-11-26.2H492.6z M497.3,77.2h-8.6l3.6-9.1
			c0.2-0.5,0.5-1.2,0.6-1.8c0.2,0.6,0.4,1.3,0.6,1.8L497.3,77.2z"/>
		<polygon fill="#636569" points="516.4,60 513,60 513,85.9 528.2,85.9 528.2,82.8 516.4,82.8 		"/>
		<polygon fill="#636569" points="540.5,82.8 540.5,60 537.1,60 537.1,85.9 552.4,85.9 552.4,82.8 		"/>
	</g>
</g>
</svg>
