<?xml version="1.0" encoding="utf-8"?>
<!-- Generator: Adobe Illustrator 22.0.0, SVG Export Plug-In . SVG Version: 6.00 Build 0)  -->
<svg version="1.2" baseProfile="tiny" id="Layer_1" xmlns="http://www.w3.org/2000/svg" xmlns:xlink="http://www.w3.org/1999/xlink"
	 x="0px" y="0px" viewBox="0 0 650 144" xml:space="preserve">
<g>
	<g>
		<path fill="#ED1C24" d="M301.3,77.7c-1.8,4.2-5.9,7.2-12.1,7.2c-8,0-12.8-5-12.8-11.1c0-6.1,4.7-11.1,12.8-11.1
			c6.5,0,10.3,2.9,12.1,7h-6c-1.1-2.7-3.3-4.7-6-4.7c-3.9,0-6.8,4-6.8,8.8c0,5.1,3.1,8.8,6.8,8.8c2.6,0,5-1.9,6.1-4.8H301.3z"/>
		<path fill="#ED1C24" d="M304.4,63.6h6.2V84h-6.2V63.6z"/>
		<path fill="#ED1C24" d="M338.6,82.3c0,1-0.7,1.7-1.9,1.7h-3.3c-1.5,0-2.2-0.7-2.8-1.8L321.5,68v16h-6.2V65.3c0-1,0.6-1.7,1.9-1.7
			h3.6c1.3,0,2.2,0.7,2.7,1.6l8.9,14.3V63.6h6.2V82.3z"/>
		<path fill="#ED1C24" d="M362.3,71.9v2.4h-12.7v5.8c0,0.8,0.1,1.5,1.5,1.5h11.4V84h-15.9c-1.8,0-3.1-0.3-3.1-3V66.6
			c0-2.7,1.4-3,2.9-3h16.1V66h-11.2c-1.1,0-1.6,0.2-1.6,1.5v4.4H362.3z"/>
		<path fill="#ED1C24" d="M378.1,84c-0.8,0-1.5,0.2-2.3-1.7l-5.3-13.4V84h-3.7V65.3c0-1,0.6-1.7,1.9-1.7h4c1.3,0,2.2,0.7,2.5,1.7
			l4.3,11.6l4.6-11.6c0.4-1,1.2-1.7,2.5-1.7h4.3c1.3,0,1.9,0.7,1.9,1.7V84h-6.2V68.5l-5.6,14c-0.6,1.6-1.4,1.5-2.1,1.5H378.1z"/>
		<path fill="#ED1C24" d="M415.5,84l-2.1-4.1h-11.8l-2.1,4.1h-4l10.4-19.1c0.4-0.8,1.2-1.3,2.2-1.3h2.1c1,0,1.8,0.5,2.2,1.3L422,84
			H415.5z M402.9,77.5h9.3l-3.5-7c-0.3-0.5-0.6-1-1.1-1c-0.5,0-0.9,0.5-1.1,1L402.9,77.5z"/>
	</g>
	<g>
		<path fill="#ED1C24" d="M116.6,98.1c-6.6,6.6-17.5,6.6-24.1,0L80.3,85.8c-6.6-6.6-6.6-17.5,0-24.1l12.2-12.2
			c6.6-6.6,17.5-6.6,24.1,0l12.2,12.2c6.6,6.6,6.6,17.5,0,24.1L116.6,98.1z"/>
		<g>
			<g>
				<path fill="#FFFFFF" d="M97.3,91.8c-1,0-1.8-0.8-1.8-1.7c0-0.5,0.1-0.9,0.5-1.3c0.3-0.4,0.8-0.6,1.3-0.6c1,0,1.8,0.7,1.9,1.7
					C99.2,90.9,98.4,91.7,97.3,91.8C97.3,91.8,97.3,91.8,97.3,91.8z"/>
			</g>
			<g>
				<path fill="#FFFFFF" d="M103.9,58.4c-1,0-1.8,0.3-2.4,1c-1.4,1.4-2.1,4.2-2.1,8c0.1,4.7,1.2,13.8,4.9,18.6
					c0.6,0.8,1.2,1.4,1.9,1.8c0.6,0.4,1.4,0.8,2.5,0.8c0.3,0,0.6,0,1-0.1c2.1-0.5,4.7-2.9,6.7-6c0.3-0.5,0.8-0.8,1.4-0.8
					c0.3,0,0.6,0.1,0.9,0.2c0.4,0.2,0.6,0.6,0.7,1c0.1,0.4,0,0.9-0.2,1.2c-2.5,3.9-5.8,6.7-8.8,7.4c0,0,0,0-0.1,0
					c-0.6,0.1-1.1,0.2-1.6,0.2c-1.9,0-3.3-0.7-4.3-1.4c-1-0.6-1.9-1.5-2.7-2.5c-5.2-6.6-5.5-19.1-5.6-20.5c-0.1-3.3,0.4-7.8,3-10.4
					c1.3-1.3,2.8-1.9,4.7-1.9l0.3,0c1.9,0,3.5,0.6,4.7,1.9c2.6,2.6,3.1,7.1,3,10.4c-0.1,3.5-0.7,10.1-4.3,16.1
					c-0.3,0.5-0.8,0.8-1.4,0.8c-0.3,0-0.6-0.1-0.8-0.2c-0.8-0.5-1-1.5-0.6-2.2c2.5-4.2,3.7-8.8,3.8-14.5c0.1-3.8-0.7-6.6-2.1-8
					c-0.6-0.6-1.4-1-2.4-1H103.9z"/>
			</g>
		</g>
	</g>
	<g>
		<path fill="#ED1C24" d="M180.1,62.8c-8,0-12.8,5-12.8,11.1c0,6.1,4.8,11.1,12.8,11.1c8,0,12.8-5,12.8-11.1
			C192.9,67.7,188.1,62.8,180.1,62.8z M180.1,82.6c-3.8,0-6.8-3.9-6.8-8.7c0-4.8,2.9-8.7,6.8-8.7c3.9,0,6.8,3.9,6.8,8.7
			C186.8,78.6,183.9,82.6,180.1,82.6z"/>
		<polygon fill="#ED1C24" points="194,66 202.5,66 202.5,84 208.8,84 208.8,66 216,66 216,63.6 194,63.6 		"/>
		<polygon fill="#ED1C24" points="218.3,66 225.4,66 225.4,84 231.8,84 231.8,66 240.2,66 240.2,63.6 218.3,63.6 		"/>
		<path fill="#ED1C24" d="M154.6,80.3V63.6h-6.1v18c0,1.3,1.1,2.4,2.4,2.4h15.6v-2.5h-10.7C155.1,81.6,154.6,81,154.6,80.3z"/>
		<path fill="#ED1C24" d="M243.7,66v15.6c0,1.3,1.1,2.4,2.4,2.4h16.6v-2.4H251c-0.7,0-1.2-0.5-1.2-1.2v-6h12.8V72h-12.8v-4.8
			c0-0.7,0.5-1.2,1.2-1.2h11.7v-2.4h-16.7C244.8,63.6,243.7,64.7,243.7,66z"/>
	</g>
</g>
</svg>
