<?xml version="1.0" encoding="utf-8"?>
<!-- Generator: Adobe Illustrator 22.0.0, SVG Export Plug-In . SVG Version: 6.00 Build 0)  -->
<svg version="1.2" baseProfile="tiny" id="Layer_1" xmlns="http://www.w3.org/2000/svg" xmlns:xlink="http://www.w3.org/1999/xlink"
	 x="0px" y="0px" viewBox="0 0 650 144" xml:space="preserve">
<path fill="#ED1C24" d="M116.4,50c-6.6-6.7-17.5-6.7-24.2,0L80,62.3c-6.6,6.6-6.6,17.5,0,24.1l12.3,12.3c6.7,6.7,17.5,6.7,24.2,0
	l12.3-12.3c6.6-6.6,6.6-17.5,0-24.1L116.4,50z M97.1,92.4C97.1,92.4,97.1,92.4,97.1,92.4c-1,0-1.8-0.8-1.9-1.7
	c0-0.5,0.1-0.9,0.4-1.3c0.4-0.4,0.8-0.6,1.3-0.6c1,0,1.9,0.7,1.9,1.8C98.9,91.5,98.1,92.3,97.1,92.4z M118.9,84.8
	c-2.5,3.9-5.8,6.7-8.8,7.4c0,0,0,0-0.1,0c-0.5,0.1-1.1,0.2-1.6,0.2c-1.9,0-3.3-0.8-4.3-1.4c-0.9-0.7-1.8-1.5-2.7-2.5
	c-5.2-6.7-5.5-19.1-5.5-20.6c-0.1-3.3,0.4-7.8,3-10.4c1.3-1.3,2.9-1.9,4.7-1.9h0.3c1.9,0,3.5,0.6,4.7,1.9c2.6,2.6,3.1,7.1,3,10.4
	c-0.1,3.5-0.7,10.1-4.3,16.2c-0.3,0.4-0.8,0.8-1.4,0.8c-0.3,0-0.6-0.1-0.8-0.3c-0.8-0.4-1.1-1.5-0.6-2.2c2.5-4.2,3.7-8.8,3.8-14.6
	c0.1-3.8-0.7-6.7-2.1-8.1c-0.6-0.7-1.4-1-2.4-1h-0.3c-1,0-1.8,0.3-2.4,1c-1.4,1.4-2.1,4.2-2.1,8.1c0.1,4.7,1.2,13.8,4.9,18.6
	c0.6,0.8,1.3,1.4,1.9,1.8c0.7,0.4,1.4,0.8,2.5,0.8c0.3,0,0.6,0,1-0.1c2.1-0.5,4.7-2.9,6.7-6c0.3-0.4,0.8-0.8,1.4-0.8
	c0.3,0,0.6,0.1,0.9,0.3c0.4,0.2,0.6,0.5,0.7,1C119.2,84,119.1,84.4,118.9,84.8z"/>
<g>
	<path fill="#ED1C24" d="M495.5,82.4c-0.7,0-1.2-0.5-1.2-1.2V64.4h-6.2v18.1c0,1.3,1.1,2.4,2.4,2.4h15.7v-2.4H495.5z M474.7,82.4
		c-0.7,0-1.2-0.5-1.2-1.2V64.4h-6.2v18.1c0,1.3,1.1,2.4,2.4,2.4h15.8v-2.4H474.7z M450.5,68.9l4.5,9.4h-9L450.5,68.9z M464.5,84.8
		l-10.1-20.5h-4.8l-10.6,20.5h4l2-4.1h11.3l2,4.1H464.5z M419.6,84.8L413.6,68v16.8h-3.7V64.3h7.9L423,79l4.9-14.7h8v20.5h-6.4V68
		l-5.9,16.8H419.6z"/>
</g>
<path fill="#ED1C24" d="M364.6,81.2l0-16.9h-6.1l0,18.1c0,1.4,1.1,2.5,2.4,2.5l15.7,0v-2.4l-10.8,0
	C365.1,82.4,364.6,81.8,364.6,81.2 M244.2,66.9l0,15.6c0,1.4,1.1,2.4,2.4,2.4l16.7,0v-2.4l-11.8,0c-0.7,0-1.2-0.6-1.2-1.2l0-6.1
	l12.8,0l0-2.4l-12.8,0l0-4.8c0-0.7,0.5-1.2,1.2-1.2l11.8,0v-2.5l-16.7,0C245.3,64.4,244.2,65.6,244.2,66.9 M154.7,81.5l0-16.9
	l-6.2,0l0,18.1c0,1.4,1.1,2.5,2.5,2.4l15.7,0v-2.4l-10.7,0C155.1,82.6,154.7,82.1,154.7,81.5 M218.7,67h7.2l0,18l6.4,0l0-18l8.5,0
	v-2.5l-22,0L218.7,67z M194.3,67l8.5,0l0,18h6.3l0-18l7.2,0v-2.5l-22,0V67z M187.1,74.9c0-4.8-3-8.7-6.8-8.7c-3.8,0-6.7,3.9-6.7,8.7
	c0,4.8,2.9,8.7,6.7,8.7C184.1,83.6,187.1,79.7,187.1,74.9 M193.2,74.9c0,6.2-4.8,11.1-12.9,11.1c-8.1,0-12.9-4.9-12.9-11.1
	c0-6.2,4.8-11.1,12.9-11.1C188.3,63.8,193.1,68.7,193.2,74.9 M299.4,64.4l-4.3,16.3l-4.8-16.3l-4,0l-4.5,16.3l-4.8-16.3l-5.2,0
	l5.6,18.9c0.3,1.1,1,1.6,1.9,1.6h3c1,0,1.6-0.5,1.9-1.6l3.1-11.1l3.4,11.1c0.3,1.1,0.9,1.6,1.9,1.6l3,0c1,0,1.6-0.5,1.9-1.6l5.3-19
	H299.4z M395.3,74.6c0-4.8-2.2-7.9-6-7.9l-4.1,0l0,15.7h4.1C393.2,82.4,395.4,79.4,395.3,74.6 M401.5,74.5c0,6.2-3.8,10.2-11.9,10.3
	h-10.2l0-20.5l5.8,0l4.4,0C397.7,64.2,401.5,68.4,401.5,74.5 M324,74.7c0-4.8-3-8.7-6.9-8.7c-3.8,0-6.8,3.9-6.8,8.7
	c0,4.8,3,8.7,6.8,8.7C321,83.4,324,79.5,324,74.7 M330.1,74.7c0,6.2-4.8,11.1-12.9,11.1c-8.1,0-12.9-4.9-12.9-11.1
	c0-6.1,4.8-11.1,12.9-11.1C325.3,63.6,330.1,68.5,330.1,74.7 M347.3,70.3c0-1.8-1.3-3.5-3.5-3.5l-4.6,0l0,7.1h4.5
	C345.9,73.9,347.3,72.1,347.3,70.3 M355.4,84.8h-6.3l-2.8-5.7c-1-1.6-2.2-2.9-4.6-2.9h-2.7l0,8.6l-5.8,0l0-20.5l12,0
	c5.6-0.1,7.9,2.7,7.9,5.8c0,2.8-1.9,4.8-4.6,5.3c2.1,0.3,3,1.6,3.9,3.6L355.4,84.8z"/>
</svg>
