<svg id="Layer_1" data-name="Layer 1" xmlns="http://www.w3.org/2000/svg" viewBox="0 0 240 240"><defs><style>.cls-1{fill:#4e5154;}.cls-2{fill:#fff;}</style></defs><title>comn-ic</title><rect class="cls-1" width="240" height="240" rx="12" ry="12"/><path class="cls-2" d="M56.58,187.92H67.94v-146H56.58ZM78.05,71.81H165.1V61.36H126.36v-19l11.18,11.19v-11L121.78,26.77,105.64,43.41v11l11.58-12v19H78.05Zm35.4,31.25.34,11.85-5.6,41.8a3.46,3.46,0,1,0,6.86.95l4.45-30.54,1-1.14,1,1.14,4.41,30.54a3.5,3.5,0,0,0,3.89,3,3.55,3.55,0,0,0,3-4l-5.59-41.8.34-11.85,2.32,7.43.37,1.19.44.75.25.26.1.09,3.26-.46,6.74-8.9-.38-3.37-3.35.39L133.14,106l-2.93-9.23a4.07,4.07,0,0,0-4.38-2.93H115.18a4,4,0,0,0-4.38,2.93l-7.72,24.08,1.39,3a2.09,2.09,0,0,0,2.79-1.5Zm13.07-16.78a6,6,0,1,0-6,6.27,6.14,6.14,0,0,0,6-6.27m-.59,90.5H165.1V166.35h-87v10.43h38.77v19.11L105.64,184.7v10.21l15.73,15.85,16.17-16.66V184l-11.61,11.94ZM186.6,41.89H175.15v146H186.6Z"/></svg>