<svg id="Layer_1" data-name="Layer 1" xmlns="http://www.w3.org/2000/svg" viewBox="0 0 240 240"><defs><style>.cls-1{fill:#4e5154;}.cls-2{fill:#fff;}</style></defs><title>comn-ic</title><rect class="cls-1" width="240" height="240" rx="12" ry="12"/><path class="cls-2" d="M99.94,105.12a9.9,9.9,0,0,0-19.79,0v16.67l19.79-11.4ZM90,93.7a9.69,9.69,0,1,0,0-19.37A9.69,9.69,0,1,0,90,93.7m30.17-17.35a9.68,9.68,0,1,0-9.85-9.67,9.81,9.81,0,0,0,9.85,9.67m9.92,11.46a9.89,9.89,0,0,0-19.77,0V104.4L130.1,93Zm53.2,36.36H169.82l-2.48.64L76.13,177.33H53.78a15.07,15.07,0,1,1,0-30.14H67.32l2.51-.68L161.05,94H183.3a15.09,15.09,0,1,1,0,30.17m0-39.84H159.66l-2.51.72L66,137.5H53.78a25,25,0,0,0-25.27,24.78c0,13.63,11.33,24.72,25.27,24.72H77.51l2.5-.67,91.16-52.51H183.3a24.75,24.75,0,1,0,0-49.49"/></svg>