<svg id="Layer_1" data-name="Layer 1" xmlns="http://www.w3.org/2000/svg" viewBox="0 0 130 124"><defs><style>.cls-1{fill:#464646;}</style></defs><title>ic-tit</title><path class="cls-1" d="M65.86,29.68h.08V19.59h16.6L65,6.86V17.19h0V29.68h.11C60.51,58.34,22,83.47,22,83.47h86.93S70.43,58.34,65.86,29.68Z"/><path class="cls-1" d="M27.53,114.67h75.89V87.79H27.53ZM86,92.36H97.39v2.8h-4.1v15.26H90.11V95.16H86Zm-13.4,0h2.54l5.12,8v-8h3.2v18.06h-3.2v-5.06l-4.48-7v12H72.63Zm-12.44,0h8.74v2.77H63.41v4.7h4v2.64h-4v5h5.72v3H60.19Zm-11.4,0,2.79,12.49,2.8-12.49h3.27l-4.71,18.06H50.22L45.51,92.36Zm-13.8,0h8.74v2.77H38.2v4.7h4v2.64h-4v5h5.72v3H35Z"/></svg>