<?xml version="1.0" encoding="utf-8"?>
<!-- Generator: Adobe Illustrator 22.0.0, SVG Export Plug-In . SVG Version: 6.00 Build 0)  -->
<svg version="1.2" baseProfile="tiny" id="Layer_1" xmlns="http://www.w3.org/2000/svg" xmlns:xlink="http://www.w3.org/1999/xlink"
	 x="0px" y="0px" viewBox="0 0 28 28" xml:space="preserve">
<polygon fill="#A6A7A9" points="15.2,14.8 12.8,14.8 14,11.4 "/>
<path fill="#A6A7A9" d="M0.9,13.5C0.7,20.4,6,26.4,13,26.9c0.4,0,0.7,0,1.1,0c2.2,0,4.4-0.6,6.4-1.6c0.3-0.1,0.6-0.2,0.8,0l4.5,2
	l-1.3-4.9c-0.1-0.3,0-0.6,0.2-0.8c1.4-2,2.3-4.3,2.5-6.7c0.3-3.5-0.8-6.9-3.1-9.6C21.7,2.7,18.5,1,15,0.8c-0.4,0-0.7,0-1.1,0
	c-1.5,0-2.9,0.3-4.3,0.7C9,1.7,8.3,2,7.7,2.4c-3.3,1.8-5.8,5.1-6.5,8.9c-0.1,0.5-0.2,1-0.2,1.5C0.9,13,0.9,13.3,0.9,13.5z M9.5,18.7
	l1.1-3.2c0,0,0,0,0,0l0,0l2.5-7.1c0.1-0.4,0.5-0.6,0.9-0.6c0.4,0,0.8,0.3,0.9,0.6l2.5,7.1l0,0l1.2,3.3c0.2,0.5-0.1,1-0.6,1.2
	c-0.1,0-0.2,0.1-0.3,0.1c-0.4,0-0.8-0.2-0.9-0.6l-0.9-2.6h-3.7l-0.9,2.6c-0.2,0.5-0.7,0.8-1.2,0.6C9.5,19.7,9.3,19.2,9.5,18.7z"/>
</svg>
