<svg id="Layer_1" data-name="Layer 1" xmlns="http://www.w3.org/2000/svg" viewBox="0 0 240 240"><defs><style>.cls-1{fill:#a6a7a9;}.cls-2{fill:#fff;}</style></defs><title>comn-ic</title><rect class="cls-1" x="0.05" width="240" height="240" rx="12" ry="12"/><path class="cls-2" d="M55,187.92H66.41v-146H55ZM76.51,71.81h87.06V61.36H124.83v-19L136,53.59v-11L120.24,26.77,104.1,43.41v11l11.59-12v19H76.51Zm35.4,31.25.34,11.85-5.6,41.8a3.47,3.47,0,1,0,6.87.95L118,127.12l1-1.14,1,1.14,4.41,30.54a3.48,3.48,0,1,0,6.89-.95l-5.59-41.8.35-11.85,2.32,7.43.37,1.19.44.75.24.26.1.09,3.27-.46,6.74-8.9-.39-3.37-3.35.39L131.61,106l-2.94-9.23a4.06,4.06,0,0,0-4.38-2.93H113.64a4.05,4.05,0,0,0-4.38,2.93l-7.71,24.08,1.38,3a2.08,2.08,0,0,0,2.79-1.5ZM125,86.28a6,6,0,1,0-6,6.27,6.14,6.14,0,0,0,6-6.27m-.59,90.5h39.18V166.35H76.51v10.43h38.78v19.11L104.1,184.7v10.21l15.73,15.85L136,194.1V184l-11.61,11.94ZM185.06,41.89H173.61v146h11.45Z"/></svg>