<svg id="Layer_1" data-name="Layer 1" xmlns="http://www.w3.org/2000/svg" viewBox="0 0 130 124"><defs><style>.cls-1{fill:#464646;}</style></defs><title>ic-tit</title><path class="cls-1" d="M31,46.79v16.8a4.68,4.68,0,0,0,4.67,4.67H94.29A4.68,4.68,0,0,0,99,63.59V46.79A11,11,0,0,1,105.05,37v-5A10.47,10.47,0,0,0,94.61,21.5H35.39A10.47,10.47,0,0,0,25,31.94v5A11,11,0,0,1,31,46.79Z"/><path class="cls-1" d="M110,40.34a6.44,6.44,0,0,0-6.44,6.45v16.8a9.24,9.24,0,0,1-9.22,9.22H35.71a9.24,9.24,0,0,1-9.22-9.22V46.79a6.45,6.45,0,1,0-12.89,0v16.8A22.14,22.14,0,0,0,35.71,85.7h.21l-5,20.8h3.48l8-20.8H89.75l8,20.8h3.48l-5-20.89a22.14,22.14,0,0,0,20.2-22V46.79A6.45,6.45,0,0,0,110,40.34Z"/></svg>