<?xml version="1.0" encoding="utf-8"?>
<!-- Generator: Adobe Illustrator 22.0.0, SVG Export Plug-In . SVG Version: 6.00 Build 0)  -->
<svg version="1.1" xmlns="http://www.w3.org/2000/svg" xmlns:xlink="http://www.w3.org/1999/xlink" x="0px" y="0px"
	 viewBox="0 0 76 66" style="enable-background:new 0 0 76 66;" xml:space="preserve">
<style type="text/css">
	.st0{display:none;}
	.st1{display:inline;fill:#474747;}
	.st2{fill:#FFFFFF;}
</style>
<g id="Layer_2" class="st0">
	<rect class="st1" width="76" height="66"/>
</g>
<g id="Layer_1">
	<g>
		<path class="st2" d="M35.4,11.8L35,22.1c0,0.3-0.3,0.6-0.6,0.6c-0.3,0-0.6-0.3-0.6-0.6l-0.4-10.3h-1.6l-0.4,10.3
			c0,0.3-0.3,0.6-0.6,0.6c-0.3,0-0.6-0.3-0.6-0.6L30,11.8h-1.6L28,22.1c0,0.3-0.3,0.6-0.6,0.6c-0.3,0-0.6-0.3-0.6-0.6l-0.4-10.3
			h-1.4c0,0-0.7,9.9-0.7,11c0.1,1.6,0.5,3.9,2.3,5.7c2.5,2.5,2.5,3,2.7,4.9l-0.3,22.8c0,0,0.1,1,1.8,1c1.7,0,1.8-1,1.8-1l-0.3-22.8
			c0.2-1.9,0.2-2.4,2.7-4.9c1.8-1.8,2.2-4.2,2.3-5.7v-0.1v-0.1c0-1.7-0.7-10.8-0.7-10.8H35.4z"/>
		<path class="st2" d="M50.3,11.8c-3,0-5.5,2.5-5.5,5.5v14.9c0,2.3,1.4,4.2,3.4,5.1V56c0,0.7,0.6,1.3,1.3,1.3h0.8
			c0.7,0,1.3-0.6,1.3-1.3V37.7V11.8H50.3z"/>
	</g>
</g>
</svg>
