<?xml version="1.0" encoding="utf-8"?>
<!-- Generator: Adobe Illustrator 22.0.0, SVG Export Plug-In . SVG Version: 6.00 Build 0)  -->
<svg version="1.1" xmlns="http://www.w3.org/2000/svg" xmlns:xlink="http://www.w3.org/1999/xlink" x="0px" y="0px"
	 viewBox="0 0 76 66" style="enable-background:new 0 0 76 66;" xml:space="preserve">
<style type="text/css">
	.st0{display:none;}
	.st1{display:inline;fill:#474747;}
	.st2{fill:#FFFFFF;}
</style>
<g id="Layer_2" class="st0">
	<rect class="st1" width="76" height="66"/>
</g>
<g id="Layer_1">
	<g>
		<path class="st2" d="M43.4,12.7c-1.1-3.2-3-5.2-5.1-5.2c-2.2,0-4,2-5.2,5.2H21.9v21.5h32.2V12.7H43.4z M32.8,17.6
			c-0.4,0-0.8-0.4-0.8-0.8c0-0.4,0.4-0.8,0.8-0.8c0.4,0,0.8,0.4,0.8,0.8C33.6,17.2,33.2,17.6,32.8,17.6z M34.3,12.7
			c1-2.5,2.4-4.1,4-4.1c1.6,0,3,1.6,4,4.1H34.3z M43.7,17.6c-0.5,0-0.8-0.4-0.8-0.8c0-0.4,0.3-0.8,0.8-0.8c0.4,0,0.8,0.4,0.8,0.8
			C44.5,17.2,44.1,17.6,43.7,17.6z"/>
		<path class="st2" d="M52.7,48.9L52.7,48.9l-0.2-0.1L39.2,41c-1.2-0.7-1.7-1-1.8-1c-0.4-0.1-0.7-0.1-0.7-0.1
			c-0.7,0.1-1.1,0.9-1.1,0.9c-0.6,2.1,1.5,3.7,1.5,3.7l5.3,3.2c0.8,0.7,0.1,1.6,0.1,1.6l-2.8,2.5c-0.7,0.6-1.9,0.4-1.9,0.4l-7.3-1.3
			l-5.5-6.1c-0.6-0.7-1.7-0.8-2.4-0.2c-0.7,0.6-0.8,1.7-0.2,2.4l5.8,6.8l0.2,0.2v0l0,0c0.1,0.1,0.3,0.2,0.5,0.3l6.5,3.7
			c0.9,0.6,1.5,0.6,1.5,0.6h14.3c2.5,0,2.6-1.7,2.6-1.7v-5.1v-0.2v-0.1c0-1.1-0.4-1.8-0.8-2.2C52.9,49,52.7,48.9,52.7,48.9z"/>
		<path class="st2" d="M39.4,51.5l-4.9-5.6c-0.6-0.7-1.7-0.8-2.4-0.2c-0.1,0.1-0.3,0.3-0.3,0.4l4.1,4.8L39.4,51.5z"/>
		<path class="st2" d="M27.4,45.1c-0.1,0.1-0.2,0.3-0.3,0.4l3.9,4.5l3.4,0.6l-4.6-5.4C29.1,44.5,28.1,44.5,27.4,45.1z"/>
	</g>
</g>
</svg>
