<?xml version="1.0" encoding="utf-8"?>
<!-- Generator: Adobe Illustrator 22.0.0, SVG Export Plug-In . SVG Version: 6.00 Build 0)  -->
<svg version="1.1" xmlns="http://www.w3.org/2000/svg" xmlns:xlink="http://www.w3.org/1999/xlink" x="0px" y="0px"
	 viewBox="0 0 76 66" style="enable-background:new 0 0 76 66;" xml:space="preserve">
<style type="text/css">
	.st0{display:none;}
	.st1{display:inline;fill:#474747;}
	.st2{fill:#FFFFFF;}
</style>
<g id="Layer_2" class="st0">
	<rect class="st1" width="76" height="66"/>
</g>
<g id="Layer_1">
	<g>
		<path class="st2" d="M24,27v7.8c0,1.2,1,2.2,2.2,2.2h27.1c1.2,0,2.2-1,2.2-2.2V27c0-2,1.2-3.7,2.8-4.5v-2.3c0-2.7-2.2-4.8-4.8-4.8
			H26.1c-2.7,0-4.8,2.2-4.8,4.8v2.3C22.9,23.3,24,25,24,27z"/>
		<path class="st2" d="M60.6,24.1c-1.6,0-3,1.3-3,3v7.8c0,2.4-1.9,4.3-4.3,4.3H26.2c-2.4,0-4.3-1.9-4.3-4.3V27c0-1.6-1.3-3-3-3
			c-1.6,0-3,1.3-3,3v7.8C16,40.5,20.6,45,26.2,45h0.1L24,54.7h1.6l3.7-9.6h21.9l3.7,9.6h1.6L54.2,45c5.2-0.4,9.3-4.8,9.3-10.2V27
			C63.5,25.4,62.2,24.1,60.6,24.1z"/>
	</g>
</g>
</svg>
