<?xml version="1.0" encoding="utf-8"?>
<!-- Generator: Adobe Illustrator 22.0.0, SVG Export Plug-In . SVG Version: 6.00 Build 0)  -->
<svg version="1.1" xmlns="http://www.w3.org/2000/svg" xmlns:xlink="http://www.w3.org/1999/xlink" x="0px" y="0px"
	 viewBox="0 0 76 66" style="enable-background:new 0 0 76 66;" xml:space="preserve">
<style type="text/css">
	.st0{display:none;}
	.st1{display:inline;fill:#474747;}
	.st2{fill:#FFFFFF;}
</style>
<g id="Layer_2" class="st0">
	<rect class="st1" width="76" height="66"/>
</g>
<g id="Layer_1">
	<g>
		<path class="st2" d="M65.4,13.1H54c-0.4,0-0.7,0.3-0.7,0.7v8.9h-8.9c-0.4,0-0.7,0.3-0.7,0.7v8.9h-8.9c-0.4,0-0.7,0.3-0.7,0.7v8.9
			H25c-0.4,0-0.7,0.3-0.7,0.7v8.9H12.2c-0.4,0-0.7,0.3-0.7,0.7v1.7c0,0.4,0.3,0.7,0.7,0.7h14.6c0.4,0,0.7-0.3,0.7-0.7v-8.9h8.9
			c0.4,0,0.7-0.3,0.7-0.7v-8.9h8.9c0.4,0,0.7-0.3,0.7-0.7V26h8.9c0.4,0,0.7-0.3,0.7-0.7v-8.9h8.9c0.4,0,0.7-0.3,0.7-0.7v-1.7
			C66.2,13.5,65.8,13.1,65.4,13.1z"/>
		<polygon class="st2" points="20.1,34.2 36.8,18.3 36.5,25.4 38.4,25.5 38.9,15.1 28.4,14.6 28.3,16.5 35.1,16.8 18.5,32.6 		"/>
	</g>
</g>
</svg>
