<?xml version="1.0" encoding="utf-8"?>
<!-- Generator: Adobe Illustrator 22.0.0, SVG Export Plug-In . SVG Version: 6.00 Build 0)  -->
<svg version="1.1" xmlns="http://www.w3.org/2000/svg" xmlns:xlink="http://www.w3.org/1999/xlink" x="0px" y="0px"
	 viewBox="0 0 76 66" style="enable-background:new 0 0 76 66;" xml:space="preserve">
<style type="text/css">
	.st0{display:none;}
	.st1{display:inline;fill:#474747;}
	.st2{fill:#FFFFFF;}
</style>
<g id="Layer_2" class="st0">
	<rect class="st1" width="76" height="66"/>
</g>
<g id="Layer_1">
	<g>
		<path class="st2" d="M38.8,22L38.8,22L38.8,22L38.8,22L38.8,22c3.2,0,5.8-2.6,5.8-5.8c0-3.2-2.6-5.7-5.7-5.8v0h0h0v0
			c-3.2,0-5.7,2.6-5.7,5.8C33,19.4,35.6,22,38.8,22z"/>
		<path class="st2" d="M48.3,51.3h-3.7V25.1H30.2c-1.4,0-2.1,1.1-2.1,2.5v0.5c0,1.4,0.7,2.5,2.1,2.5h3.2v20.6h-3.7
			c-1.4,0-2.1,1.1-2.1,2.5v0.5c0,1.4,0.7,2.5,2.1,2.5h18.6c1.4,0,2.1-1.1,2.1-2.5v-0.5C50.4,52.5,49.7,51.3,48.3,51.3z"/>
	</g>
</g>
</svg>
