<?xml version="1.0" encoding="utf-8"?>
<!-- Generator: Adobe Illustrator 22.0.0, SVG Export Plug-In . SVG Version: 6.00 Build 0)  -->
<svg version="1.1" xmlns="http://www.w3.org/2000/svg" xmlns:xlink="http://www.w3.org/1999/xlink" x="0px" y="0px"
	 viewBox="0 0 76 66" style="enable-background:new 0 0 76 66;" xml:space="preserve">
<style type="text/css">
	.st0{display:none;}
	.st1{display:inline;fill:#474747;}
	.st2{fill:#FFFFFF;}
</style>
<g id="Layer_2" class="st0">
	<rect class="st1" width="76" height="66"/>
</g>
<g id="Layer_1">
	<g>
		<path class="st2" d="M38.2,18.5L38.2,18.5l0-4.7H46l-8.2-6v4.8h0v5.8h0c-2.1,13.4-20.1,25.2-20.1,25.2h40.7
			C58.3,43.6,40.3,31.9,38.2,18.5z"/>
		<path class="st2" d="M20.3,58.2h35.5V45.6H20.3V58.2z M47.6,47.8h5.3v1.3H51v7.1h-1.5v-7.1h-1.9V47.8z M41.3,47.8h1.2l2.4,3.7
			v-3.7h1.5v8.4h-1.5v-2.4l-2.1-3.3v5.6h-1.5V47.8z M35.5,47.8h4.1v1.3H37v2.2h1.9v1.2H37v2.3h2.7v1.4h-4.2V47.8z M30.2,47.8
			l1.3,5.8l1.3-5.8h1.5l-2.2,8.4h-1.3l-2.2-8.4H30.2z M23.7,47.8h4.1v1.3h-2.6v2.2h1.9v1.2h-1.9v2.3h2.7v1.4h-4.2V47.8z"/>
	</g>
</g>
</svg>
