<svg id="Layer_1" data-name="Layer 1" xmlns="http://www.w3.org/2000/svg" viewBox="0 0 70 12.92"><defs><style>.cls-1{fill:#fff;}</style></defs><title>다국어-kr</title><path class="cls-1" d="M19.6,7.3a39.75,39.75,0,0,1-6.18.37l-.14-1h1.27V3h-1V2h5.71V3h-1V6.5c.42,0,.84-.06,1.23-.11Zm2.92,3.45v1h-7.3V8.52h1.24v2.23ZM15.74,6.63l1.38,0V3H15.74ZM21,6.23H19.42v-1H21V4.12H19.42v-1H21v-2h1.24v8H21Z"/><path class="cls-1" d="M24.37,8.67a49,49,0,0,0,7-.36l.09.9a38.27,38.27,0,0,1-6.9.48Zm6.39-4.18a2.7,2.7,0,0,1-3,2.61,2.69,2.69,0,0,1-2.94-2.61,2.69,2.69,0,0,1,2.94-2.6A2.7,2.7,0,0,1,30.76,4.49Zm-4.68,0A1.57,1.57,0,0,0,27.81,6a1.56,1.56,0,1,0,0-3.09A1.56,1.56,0,0,0,26.08,4.49Zm7.15-3.37V12H32V1.12Z"/><path class="cls-1" d="M39.35,3.81a5.24,5.24,0,0,0,2.81,4.75l-.72,1a5.36,5.36,0,0,1-2.69-3.25A5.6,5.6,0,0,1,36,9.78l-.73-1a5.44,5.44,0,0,0,2.86-4.94V2h1.23Zm4.92-2.69V12H43V1.12Z"/><path class="cls-1" d="M52.14,6.51A4.13,4.13,0,0,1,49.65,4.3,4.38,4.38,0,0,1,47,6.75l-.64-1A3.58,3.58,0,0,0,49,2.38V1.47h1.24v.91a3.41,3.41,0,0,0,2.55,3.17Zm3.6,4.35v1h-7.4V9h5.8V8.16H48.32v-1h7V9.94H49.56v.92ZM54.13,3.93H51.94v-1h2.19V1.12h1.24V6.69H54.13Z"/></svg>