<svg id="Layer_1" data-name="Layer 1" xmlns="http://www.w3.org/2000/svg" viewBox="0 0 70 12.92"><defs><style>.cls-1{fill:#fff;}</style></defs><title>다국어-kr</title><path class="cls-1" d="M19.2,5.91c0,2.35-1.17,3.82-2.79,3.82s-2.78-1.47-2.78-3.82,1.17-3.82,2.78-3.82S19.2,3.58,19.2,5.91Zm-4.39,0c0,1.7.66,2.72,1.6,2.72S18,7.61,18,5.91s-.66-2.7-1.61-2.7S14.81,4.23,14.81,5.91Zm7.37-4.62V12.16H20.93V1.29Z"/><path class="cls-1" d="M34.09,6.57v1H24.3v-1h2.32V5.13a1.8,1.8,0,0,1-1.28-1.61c0-1.27,1.49-2,3.86-2s3.86.77,3.86,2a1.83,1.83,0,0,1-1.3,1.62V6.57Zm-1.18,3.62c0,1.25-1.39,1.94-3.73,1.94s-3.73-.69-3.73-1.94,1.4-1.94,3.73-1.94S32.91,9,32.91,10.19Zm-6.3-6.67c0,.7,1,1.09,2.59,1.09s2.58-.39,2.58-1.09-1-1.08-2.58-1.08S26.61,2.82,26.61,3.52Zm5.05,6.67c0-.65-.9-1-2.48-1s-2.47.35-2.47,1,.88,1,2.47,1S31.66,10.85,31.66,10.19Zm-3.8-3.62h2.66V5.46a8.86,8.86,0,0,1-1.32.1,9,9,0,0,1-1.34-.1Z"/><path class="cls-1" d="M38.36,7.44a2.71,2.71,0,1,1,2.89-2.71A2.72,2.72,0,0,1,38.36,7.44Zm0-1.06A1.6,1.6,0,0,0,40,4.73a1.68,1.68,0,0,0-3.35,0A1.59,1.59,0,0,0,38.36,6.38Zm-.17,4.54h6v1H36.94V8.43h1.25Zm7.15-6.4v1H43.8v3.7H42.57V1.3H43.8V4.52Z"/><path class="cls-1" d="M48.1,8.34A20.24,20.24,0,0,0,51.28,8l.13,1.05a20.32,20.32,0,0,1-3.82.33h-.72V2.55H48.1Zm7.5-7V12.13H54.42V6.63H53.14v5H52V1.52h1.16V5.61h1.28V1.3Z"/></svg>