<svg id="Layer_1" data-name="Layer 1" xmlns="http://www.w3.org/2000/svg" viewBox="0 0 70 12.92"><defs><style>.cls-1{fill:#fff;}</style></defs><title>다국어-eng</title><path class="cls-1" d="M20.34,10.19l.82-1a3.4,3.4,0,0,0,2.35,1c1.07,0,1.67-.51,1.67-1.25S24.58,8,23.76,7.62l-1.22-.53a2.54,2.54,0,0,1-1.8-2.32,2.62,2.62,0,0,1,2.9-2.43,3.82,3.82,0,0,1,2.68,1.11l-.74.89a2.81,2.81,0,0,0-1.94-.79c-.9,0-1.49.43-1.49,1.14s.71,1,1.43,1.33l1.21.52a2.45,2.45,0,0,1,1.8,2.38c0,1.42-1.17,2.57-3.1,2.57A4.4,4.4,0,0,1,20.34,10.19Z"/><path class="cls-1" d="M28,9.17V5.84h-1v-1l1-.07.16-1.83H29.4V4.74h1.72v1.1H29.4V9.19c0,.79.28,1.2,1,1.2a2,2,0,0,0,.71-.16l.25,1a4.23,4.23,0,0,1-1.29.24C28.54,11.49,28,10.57,28,9.17Z"/><path class="cls-1" d="M31.89,8.05a3.13,3.13,0,1,1,6.21,0,3.12,3.12,0,1,1-6.21,0Zm4.79,0c0-1.41-.64-2.34-1.69-2.34s-1.68.93-1.68,2.34S34,10.36,35,10.36,36.68,9.44,36.68,8.05Z"/><path class="cls-1" d="M39.72,4.74h1.13L41,5.92h0a2.29,2.29,0,0,1,1.87-1.35,1.76,1.76,0,0,1,.75.14l-.25,1.2a2,2,0,0,0-.66-.11c-.54,0-1.19.38-1.61,1.42v4.11H39.72Z"/><path class="cls-1" d="M44,8.05a3.2,3.2,0,0,1,3-3.48c1.75,0,2.69,1.26,2.69,3.13a4,4,0,0,1-.06.69H45.39a2,2,0,0,0,2,2A2.84,2.84,0,0,0,49,9.92l.48.87a4,4,0,0,1-2.23.7A3.17,3.17,0,0,1,44,8.05Zm4.51-.6c0-1.14-.52-1.8-1.48-1.8a1.79,1.79,0,0,0-1.69,1.8Z"/></svg>