<svg id="Layer_1" data-name="Layer 1" xmlns="http://www.w3.org/2000/svg" viewBox="0 0 70 12.92"><defs><style>.cls-1{fill:#fff;}</style></defs><title>다국어-chn</title><path class="cls-1" d="M14.86,1.67A19.31,19.31,0,0,1,13.68,4.2v8.1H12.62V5.86a14.59,14.59,0,0,1-1,1.25A8.3,8.3,0,0,0,11,6a13.39,13.39,0,0,0,2.84-4.62ZM22.32,7V9.11h-1V7.84H15.36V9.13h-1V7ZM17.77,2.42V1.35h1.11V2.42h3.31v1H14.61v-1Zm-2.32,4V3.94h5.88V6.37Zm.41,2.14h5v.9h-2v1.77c0,.55-.09.84-.54,1a6.66,6.66,0,0,1-1.95.15,4.26,4.26,0,0,0-.33-1c.64,0,1.29,0,1.48,0s.23-.05.23-.19V9.41H15.86Zm.65-2.89h3.7V4.69h-3.7Z"/><path class="cls-1" d="M34.05,10.15H30v2.17H28.76V10.15H23.48V9.06h5.28V7.48H26.12a2.8,2.8,0,0,0-1.33.18,7.8,7.8,0,0,0-.42-1.15c.3-.09.54-.41.86-.94a12.8,12.8,0,0,0,.84-1.48H23.69V3h2.89c.25-.58.49-1.19.69-1.79l1.28.34c-.19.49-.4,1-.64,1.45h5.91V4.09H27.38A20.61,20.61,0,0,1,26,6.41h2.76V4.72H30V6.41h3.1V7.48H30V9.06h4.1Z"/><path class="cls-1" d="M39.49,7.42,38,7.85v3.23c0,.57-.12.87-.47,1a4.08,4.08,0,0,1-1.68.19,4.61,4.61,0,0,0-.32-1,8.75,8.75,0,0,0,1.14,0c.16,0,.22-.05.22-.22V8.17c-.51.16-1,.29-1.45.41L35.15,7.5c.48-.12,1.07-.25,1.73-.43V4.68H35.31v-1h1.57V1.32H38V3.65h1.3v1H38V6.76l1.35-.37ZM40,7h5.69v5.23H44.57v-.48H41.05v.54H40ZM44.4,5.15c.63,0,.72-.22.81-1.44a3.41,3.41,0,0,0,1,.41c-.15,1.62-.48,2-1.74,2H41.9c-1.5,0-1.9-.33-1.9-1.5V1.35h1.11V3A19.71,19.71,0,0,0,44.67,2l.83.81a23.74,23.74,0,0,1-4.39,1.18v.72c0,.42.14.49.87.49ZM41.05,8V9h3.52V8Zm3.52,2.92v-1H41.05v1Z"/><path class="cls-1" d="M53.21,3.47c0,.39-.1.76-.16,1.09h4.4V11.1c0,.6-.16.87-.58,1a6.5,6.5,0,0,1-2.06.17,4,4,0,0,0-.4-1c.69,0,1.42,0,1.62,0s.28-.06.28-.25V5.59H49.18V12.3H48.07V4.56H52c0-.32.09-.7.13-1.09H47.5v-1h4.71c0-.4.06-.78.07-1.12l1.22.12c0,.33-.08.66-.13,1H58v1Zm0,6.6v2H52.18v-2H49.77v-.9h2.41v-1H50V7.26h1.11a6.06,6.06,0,0,0-.57-1.33l.88-.23a6,6,0,0,1,.62,1.37l-.63.19h2A12.86,12.86,0,0,0,54,5.67l1,.22c-.21.47-.41,1-.61,1.37H55.5v.88H53.24v1h2.49v.9Z"/></svg>