<svg id="Layer_1" data-name="Layer 1" xmlns="http://www.w3.org/2000/svg" viewBox="0 0 70 12.92"><defs><style>.cls-1{fill:#fff;}</style></defs><title>다국어-jp</title><path class="cls-1" d="M11.11,11.41a5.28,5.28,0,0,0,.62-2.64l.64.13a5.75,5.75,0,0,1-.66,2.85Zm5.3-4.24s0,.28,0,.41c-.15,2.91-.28,4-.58,4.36a.91.91,0,0,1-.67.35,7.56,7.56,0,0,1-1.09,0,2.31,2.31,0,0,0-.24-.89,6.42,6.42,0,0,0,.86.05.42.42,0,0,0,.34-.13A3.21,3.21,0,0,0,15.3,10l-.4.15a6.8,6.8,0,0,0-.62-1.54l.48-.17a7.27,7.27,0,0,1,.56,1.21c0-.43.07-1,.1-1.61H11.79V1.77h4.46v.92h-1.6v.89H16v.88H14.65v.91H16v.87H14.65v.93ZM13.12,8.83A13.13,13.13,0,0,1,13.29,11l-.56.09a13.26,13.26,0,0,0-.15-2.2Zm-.38-6.14v.89h1V2.69Zm1,1.77h-1v.91h1Zm-1,2.71h1V6.24h-1Zm1.13,3.55a9.71,9.71,0,0,0-.42-1.94l.51-.1a8.87,8.87,0,0,1,.46,1.92Zm8.45.15v1.05H16.27V10.87H18.8V8H16.89V7H18.8V4.53H16.6v-1h3.17A12.36,12.36,0,0,0,17.49,2l.67-.79a11.72,11.72,0,0,1,2.62,1.62l-.51.63h1.84v1H19.89V7h2V8h-2v2.89Z"/><path class="cls-1" d="M34.14,10.64H29.29v1.71H28.14V10.64H23.4v-1h4.74V8.81H24.62V4.11h3.52V3.36H23.75v-1h4.39v-1h1.15v1h4.46v1H29.29v.75h3.59v4.7H29.29v.83h4.85ZM25.7,6h2.44V5H25.7ZM28.14,7.9v-1H25.7v1ZM29.29,5V6h2.48V5Zm2.48,1.85H29.29v1h2.48Z"/><path class="cls-1" d="M42.14,9.5a11.19,11.19,0,0,0,4.26,1.74,4.64,4.64,0,0,0-.71.94,11,11,0,0,1-4.42-2.29v2.42H40.16V10a10.71,10.71,0,0,1-4.32,2.22,4.44,4.44,0,0,0-.68-.9A10.63,10.63,0,0,0,39.34,9.5H35.41V8.58h4.75V7.66h1.11v.92h4.85V9.5Zm-5-3.2c.31-.33.66-.77,1-1.22H35.61v-.9h3.22c.26-.36.53-.71.75-1l1.05.3c-.17.24-.35.48-.54.73h5.84v.9H43.72a3.83,3.83,0,0,1-1.14,1.46c1.08.29,2.06.6,2.8.88l-.68.78a25.72,25.72,0,0,0-3.19-1,16.64,16.64,0,0,1-5.22,1,3,3,0,0,0-.37-.87,22.82,22.82,0,0,0,4-.51c-.56-.15-1.1-.27-1.61-.37l-.21.24Zm-.34-2.37h-1V2.16h4.45V1.31H41.3v.85h4.51V3.93H44.74V3.1h-8Zm2.63,1.15-.48.61c.77.14,1.61.32,2.45.53a2.89,2.89,0,0,0,1.16-1.14Z"/><path class="cls-1" d="M57.59,11c0,.66-.15,1-.6,1.17a6.7,6.7,0,0,1-2.24.2,4.78,4.78,0,0,0-.38-1.12c.78,0,1.59,0,1.82,0s.3-.07.3-.29V4.41H53.32a8.71,8.71,0,0,1-.19,1.47,38,38,0,0,1,3.18,3.17l-.91.73A28.32,28.32,0,0,0,52.78,7,6.35,6.35,0,0,1,50,10a4.12,4.12,0,0,0-.79-.84,5.08,5.08,0,0,0,3-4.72H49.05v7.94H47.94v-9h4.24v-2h1.15v2h4.26Z"/></svg>