<svg id="Layer_1" data-name="Layer 1" xmlns="http://www.w3.org/2000/svg" viewBox="0 0 70 12.92"><defs><style>.cls-1{fill:#fff;}</style></defs><title>다국어-chn</title><path class="cls-1" d="M18.49,6.85h3.79v.94H21.16a4.3,4.3,0,0,1-1.07,2c.77.34,1.47.66,2,.95l-.75.79c-.55-.32-1.29-.69-2.1-1.08a10.08,10.08,0,0,1-3.73,1.06,3,3,0,0,0-.42-1,10.12,10.12,0,0,0,3-.61c-.34-.14-.69-.29-1.05-.42l-.15.23-.94-.3c.27-.45.61-1,.93-1.62H15.38V6.87l-.58.78A16.15,16.15,0,0,0,14,6v5.4H13V6.36a11.13,11.13,0,0,1-1.29,2.88,5.49,5.49,0,0,0-.52-1A12.86,12.86,0,0,0,12.86,4H11.4V3H13V.44h1V3h1.28V4H14v.71c.33.44,1.22,1.8,1.41,2.12v0h1.94c.18-.33.34-.67.48-1l1.07.23ZM19.92,3.6a8.21,8.21,0,0,0,2.44,1.61,5.42,5.42,0,0,0-.7.82,8.47,8.47,0,0,1-2.37-1.87V6H18.22V4.25a7.18,7.18,0,0,1-2.36,1.93,4,4,0,0,0-.67-.8A6.43,6.43,0,0,0,17.61,3.6H15.5V2.68h1.21a7.08,7.08,0,0,0-.81-1.56l.83-.39a7.12,7.12,0,0,1,.89,1.54l-.83.41h1.43V.44h1.07V2.68h2.85V3.6ZM18,7.79l-.5.9c.52.19,1.06.39,1.58.61a3.14,3.14,0,0,0,1-1.51ZM21.8,1.05c-.4.59-.82,1.21-1.17,1.63l-.74-.36A10.61,10.61,0,0,0,20.81.63Z"/><path class="cls-1" d="M25.42,4.13v.34c0,2-.16,5-1.29,6.94a4.8,4.8,0,0,0-1-.56C24.21,9,24.3,6.35,24.3,4.48V1h9.1V4.13Zm0-2.19V3.18h6.86V1.94Zm3.77,6.13a15.62,15.62,0,0,1-1.53,2l4.05-.23c-.28-.43-.54-.87-.79-1.24l1-.41c.62.9,1.42,2.12,1.8,2.82l-1,.51c-.11-.23-.26-.51-.44-.81-4.86.35-5.46.41-5.87.56a8.07,8.07,0,0,0-.4-1,1.43,1.43,0,0,0,.67-.53A9.8,9.8,0,0,0,27.8,8.07H25.72v-1H34v1ZM26.46,6V5H33.2V6Z"/><path class="cls-1" d="M39.49,6.54,38,7V10.2c0,.58-.12.88-.47,1a4,4,0,0,1-1.68.2,4.45,4.45,0,0,0-.32-1c.5,0,1,0,1.14,0s.22,0,.22-.23V7.3c-.51.15-1,.29-1.45.4l-.28-1.07c.48-.12,1.07-.26,1.73-.44V3.81H35.31v-1h1.57V.45H38V2.78h1.3v1H38V5.88l1.35-.37Zm.5-.39h5.69v5.23H44.57V10.9H41.05v.54H40ZM44.4,4.28c.63,0,.72-.22.81-1.44a3.38,3.38,0,0,0,1,.4c-.15,1.62-.48,2-1.74,2H41.9C40.4,5.28,40,5,40,3.78V.47h1.11V2.16a18.23,18.23,0,0,0,3.56-1.09l.83.82a23.76,23.76,0,0,1-4.39,1.17v.72c0,.42.14.5.87.5ZM41.05,7.07v1h3.52v-1ZM44.57,10V9H41.05V10Z"/><path class="cls-1" d="M53.21,2.6c0,.38-.1.75-.16,1.09h4.4v6.53c0,.6-.16.88-.58,1a6.89,6.89,0,0,1-2.06.16,4.35,4.35,0,0,0-.4-1c.69,0,1.42,0,1.62,0s.28-.06.28-.26V4.72H49.18v6.7H48.07V3.69H52c0-.33.09-.71.13-1.09H47.5v-1h4.71c0-.39.06-.78.07-1.11L53.5.56c0,.32-.08.66-.13,1H58V2.6Zm0,6.59v2H52.18v-2H49.77v-.9h2.41v-1H50V6.39h1.11a5.93,5.93,0,0,0-.57-1.34l.88-.22a6,6,0,0,1,.62,1.36l-.63.2h2A12.42,12.42,0,0,0,54,4.79L55,5c-.21.47-.41,1-.61,1.37H55.5v.87H53.24v1h2.49v.9Z"/></svg>