<svg id="Layer_1" data-name="Layer 1" xmlns="http://www.w3.org/2000/svg" viewBox="0 0 70 12.92"><defs><style>.cls-1{fill:#fff;}</style></defs><title>다국어-jp</title><path class="cls-1" d="M20.22,10.24a9,9,0,0,0,.08,1.41H18.82c0-.26.07-.92.07-1.41V6a23.31,23.31,0,0,1-4.34,1.76l-.69-1.16a18.83,18.83,0,0,0,5.41-2.19A13.05,13.05,0,0,0,22.4,1.7l1,.92a20,20,0,0,1-3.2,2.58Z"/><path class="cls-1" d="M25.56,7.09c.56-.56,1.55-1.82,2.34-2.75s1.24-.88,2.15-.11a27.24,27.24,0,0,1,2.47,2.46c.8.86,2,2.19,2.91,3.21l-1,1.08c-.81-1-1.9-2.3-2.64-3.17A32.07,32.07,0,0,0,29.51,5.4c-.46-.38-.65-.38-1,.09-.54.66-1.49,1.92-2,2.58l-.72,1L24.65,8C25,7.67,25.22,7.43,25.56,7.09ZM33.61,4.9l-.86.38a13.88,13.88,0,0,0-1.11-1.93L32.48,3A21.85,21.85,0,0,1,33.61,4.9Zm1.61-.66-.85.41a12.65,12.65,0,0,0-1.16-1.9l.84-.38A16.11,16.11,0,0,1,35.22,4.24Z"/><path class="cls-1" d="M41.8,8.62A11.46,11.46,0,0,0,46,4.1l.73,1.3a12.41,12.41,0,0,1-4.21,4.35,13.14,13.14,0,0,1-4.59,1.78l-.81-1.23A12.41,12.41,0,0,0,41.8,8.62Zm-.41-3.84-1,1a27.15,27.15,0,0,0-3-2.54l.88-.94A24.47,24.47,0,0,1,41.39,4.78Z"/><path class="cls-1" d="M54.8,8.27A32,32,0,0,0,50.27,6.4v3.7a11.92,11.92,0,0,0,.1,1.54H48.89A12.58,12.58,0,0,0,49,10.1V3.17a9,9,0,0,0-.11-1.34h1.47c0,.39-.08.92-.08,1.34V5A42.91,42.91,0,0,1,55.34,7Z"/></svg>