<svg id="Layer_1" data-name="Layer 1" xmlns="http://www.w3.org/2000/svg" viewBox="0 0 70 12.92"><defs><style>.cls-1{fill:#fff;}</style></defs><title>다국어-kr</title><path class="cls-1" d="M24.71,5.91c0,2.35-1.18,3.82-2.8,3.82s-2.78-1.47-2.78-3.82,1.17-3.82,2.78-3.82S24.71,3.58,24.71,5.91Zm-4.39,0c0,1.7.66,2.72,1.59,2.72s1.61-1,1.61-2.72-.66-2.7-1.61-2.7S20.32,4.23,20.32,5.91Zm7.36-4.62V12.16H26.43V1.29Z"/><path class="cls-1" d="M34.47,7.54H30.24V2.15H31.4V3.9h1.92V2.15h1.15V4.37H35.7V1.5h1.16V9.18H35.7V5.38H34.47ZM33.32,4.86H31.4V6.55h1.92Zm6,6.06v1H31.81V8.43h1.25v2.49ZM39,9.5H37.8V1.3H39Z"/><path class="cls-1" d="M50.67,9.79v1H40.85v-1ZM49.57,8H42.06V2.18h7.42v1H43.32V4.56h5.92v1H43.32V7h6.25Z"/></svg>