<svg id="Layer_1" data-name="Layer 1" xmlns="http://www.w3.org/2000/svg" viewBox="0 0 70 12.92"><defs><style>.cls-1{fill:#fff;}</style></defs><title>다국어-eng</title><path class="cls-1" d="M21.2,1.67h5.23V2.84H22.59V5.53h3.27V6.7H22.59v3.8H21.2Z"/><path class="cls-1" d="M27.87,9v-8h1.37V9c0,.38.17.51.34.51a.73.73,0,0,0,.22,0L30,10.55a2.13,2.13,0,0,1-.74.11C28.25,10.66,27.87,10,27.87,9Z"/><path class="cls-1" d="M31,7.21a3.12,3.12,0,1,1,6.21,0,3.12,3.12,0,1,1-6.21,0Zm4.8,0c0-1.4-.65-2.34-1.69-2.34s-1.68.94-1.68,2.34.65,2.32,1.68,2.32S35.78,8.61,35.78,7.21Z"/><path class="cls-1" d="M38.35,7.21a3.12,3.12,0,1,1,6.21,0,3.12,3.12,0,1,1-6.21,0Zm4.8,0c0-1.4-.65-2.34-1.69-2.34s-1.68.94-1.68,2.34.64,2.32,1.68,2.32S43.15,8.61,43.15,7.21Z"/><path class="cls-1" d="M46.19,3.9h1.12l.11,1.19h0a2.26,2.26,0,0,1,1.87-1.35,1.58,1.58,0,0,1,.74.14l-.25,1.2A2,2,0,0,0,49.16,5c-.54,0-1.19.37-1.61,1.42V10.5H46.19Z"/></svg>