<svg id="Layer_1" data-name="Layer 1" xmlns="http://www.w3.org/2000/svg" viewBox="0 0 70 12.92"><defs><style>.cls-1{fill:#fff;}</style></defs><title>다국어-eng</title><path class="cls-1" d="M19.87,2.38h5.21V3.54H21.26V6H24.5V7.18H21.26V10h4v1.18H19.87Z"/><path class="cls-1" d="M25.93,4.61h1.41l1.13,3.55c.18.65.38,1.32.58,2h0c.2-.65.4-1.32.58-2L30.8,4.61h1.34l-2.28,6.6H28.27Z"/><path class="cls-1" d="M32.82,7.92a3.21,3.21,0,0,1,3-3.48c1.75,0,2.68,1.26,2.68,3.13a3.31,3.31,0,0,1-.06.7H34.17a2,2,0,0,0,2,2,2.8,2.8,0,0,0,1.57-.49l.48.88a4,4,0,0,1-2.23.69A3.16,3.16,0,0,1,32.82,7.92Zm4.51-.6c0-1.14-.52-1.8-1.48-1.8a1.79,1.79,0,0,0-1.69,1.8Z"/><path class="cls-1" d="M40.06,4.61h1.13l.11.91h0a3.21,3.21,0,0,1,2.19-1.08c1.4,0,2,.94,2,2.62v4.15H44.17v-4c0-1.14-.34-1.6-1.12-1.6a2.25,2.25,0,0,0-1.62.9v4.68H40.06Z"/><path class="cls-1" d="M47.77,9.05V5.71h-1v-1l1-.07L48,2.79h1.17V4.61h1.71v1.1H49.15V9.06c0,.79.27,1.2,1,1.2a1.84,1.84,0,0,0,.7-.16l.26,1a4.3,4.3,0,0,1-1.3.24C48.28,11.36,47.77,10.44,47.77,9.05Z"/></svg>