<svg id="Layer_1" data-name="Layer 1" xmlns="http://www.w3.org/2000/svg" viewBox="0 0 70 12.92"><defs><style>.cls-1{fill:#fff;}</style></defs><title>다국어-eng</title><path class="cls-1" d="M11.5,8.52H8.43L7.68,11H6.26L9.19,2.21H10.8L13.72,11H12.25Zm-.33-1.09-.35-1.18c-.3-1-.56-1.95-.84-2.94H9.93c-.25,1-.53,2-.81,2.94L8.76,7.43Z"/><path class="cls-1" d="M14.77,4.45H15.9l.1.92h0a2.86,2.86,0,0,1,2-1.09A1.76,1.76,0,0,1,19.9,5.49a3,3,0,0,1,2.15-1.21c1.38,0,2,.93,2,2.61V11H22.7v-4c0-1.14-.36-1.6-1.11-1.6a2.2,2.2,0,0,0-1.48.9V11H18.73v-4c0-1.14-.35-1.6-1.11-1.6a2.22,2.22,0,0,0-1.48.9V11H14.77Z"/><path class="cls-1" d="M25.6,7.76a3.21,3.21,0,0,1,3-3.48c1.75,0,2.68,1.26,2.68,3.13a3.2,3.2,0,0,1-.06.69H27a2,2,0,0,0,2,2,2.8,2.8,0,0,0,1.57-.49l.48.87a4,4,0,0,1-2.23.7A3.17,3.17,0,0,1,25.6,7.76Zm4.51-.6c0-1.14-.51-1.8-1.47-1.8A1.78,1.78,0,0,0,27,7.16Z"/><path class="cls-1" d="M32.85,4.45H34l.11.91h0a3.17,3.17,0,0,1,2.19-1.08c1.4,0,2,.93,2,2.61V11H37v-4c0-1.14-.33-1.6-1.11-1.6a2.29,2.29,0,0,0-1.62.9V11H32.85Z"/><path class="cls-1" d="M40.15,2.39A.8.8,0,0,1,41,1.58a.82.82,0,0,1,.89.81.83.83,0,0,1-.89.82A.82.82,0,0,1,40.15,2.39Zm.19,2.06h1.37V11H40.34Z"/><path class="cls-1" d="M44,8.88V5.55H43v-1l1-.07.16-1.83h1.16V4.45h1.71v1.1H45.38V8.9c0,.79.28,1.19,1,1.19a2.09,2.09,0,0,0,.71-.15l.25,1a4.24,4.24,0,0,1-1.3.24C44.52,11.2,44,10.27,44,8.88Z"/><path class="cls-1" d="M48.34,2.39a.81.81,0,0,1,.88-.81.82.82,0,0,1,.89.81.84.84,0,0,1-.89.82A.83.83,0,0,1,48.34,2.39Zm.2,2.06H49.9V11H48.54Z"/><path class="cls-1" d="M51.51,7.76a3.21,3.21,0,0,1,3-3.48c1.75,0,2.69,1.26,2.69,3.13a3.2,3.2,0,0,1-.06.69H52.87a2,2,0,0,0,2,2,2.83,2.83,0,0,0,1.57-.49l.48.87a4,4,0,0,1-2.23.7A3.17,3.17,0,0,1,51.51,7.76ZM56,7.16c0-1.14-.51-1.8-1.47-1.8a1.78,1.78,0,0,0-1.69,1.8Z"/><path class="cls-1" d="M58.06,10.29l.65-.89a2.92,2.92,0,0,0,1.87.75c.8,0,1.17-.38,1.17-.88S61,8.4,60.28,8.13c-.87-.34-1.88-.81-1.88-1.92s.89-1.93,2.34-1.93a3.48,3.48,0,0,1,2.15.78l-.65.85a2.48,2.48,0,0,0-1.48-.58c-.72,0-1,.36-1,.82s.68.78,1.4,1c.92.35,1.94.76,1.94,2s-.87,2-2.5,2A4.14,4.14,0,0,1,58.06,10.29Z"/></svg>