<svg id="Layer_1" data-name="Layer 1" xmlns="http://www.w3.org/2000/svg" viewBox="0 0 70 12.92"><defs><style>.cls-1{fill:#fff;}</style></defs><title>다국어-jp</title><path class="cls-1" d="M8.08,7.71A4.55,4.55,0,0,0,7.85,9c0,.83.83,1.43,2.65,1.43A15.5,15.5,0,0,0,14.6,10v1.31a17.36,17.36,0,0,1-4.07.42C8,11.68,6.6,10.82,6.6,9.26a7,7,0,0,1,.24-1.67ZM7.36,2.8A26.37,26.37,0,0,0,10.54,3c1.16,0,2.43-.09,3.31-.17V4c-.82.06-2.2.14-3.3.14s-2.23-.06-3.19-.13Zm7.82.34-.79.34a12.53,12.53,0,0,0-1-1.66l.78-.33A17,17,0,0,1,15.18,3.14Zm1.39-.52L15.79,3a11.08,11.08,0,0,0-1-1.66L15.57,1A17.06,17.06,0,0,1,16.57,2.62Z"/><path class="cls-1" d="M20.15,4.7h2.17v1H20.15v.79C20.74,7,22,8,22.32,8.32l-.64.94c-.33-.38-1-1-1.53-1.58v4.45H19.06V7.37A12.13,12.13,0,0,1,17,10.57a7.48,7.48,0,0,0-.58-1.08,11.68,11.68,0,0,0,2.43-3.76H16.66v-1h2.4V2.91c-.73.14-1.48.26-2.17.35a3.42,3.42,0,0,0-.34-.87,22.38,22.38,0,0,0,4.88-1.18l.81.85a15,15,0,0,1-2.09.62Zm4,4.47H23V2.57h1.08ZM27,1.37v9.37c0,.7-.17,1-.59,1.21a7.13,7.13,0,0,1-2.25.21,5,5,0,0,0-.4-1.16c.82,0,1.57,0,1.81,0s.31-.07.31-.29V1.37Z"/><path class="cls-1" d="M38.7,10.75c0,.65-.16,1-.59,1.15a6.54,6.54,0,0,1-2.24.2A4.76,4.76,0,0,0,35.5,11c.76,0,1.55,0,1.78,0s.3-.07.3-.3V8.59h-2.9V12H33.56V8.59H30.81a7,7,0,0,1-1.5,3.64,3.64,3.64,0,0,0-.88-.73c1.31-1.46,1.43-3.58,1.43-5.27V2H38.7ZM33.56,7.54V5.76H31v.48c0,.41,0,.85-.05,1.3ZM31,3V4.72h2.6V3Zm6.62,0h-2.9V4.72h2.9Zm0,4.51V5.76h-2.9V7.54Z"/><path class="cls-1" d="M47.42,9.34a11.42,11.42,0,0,0,4.26,1.74A4.67,4.67,0,0,0,51,12a11,11,0,0,1-4.41-2.29v2.42H45.44V9.78A10.61,10.61,0,0,1,41.13,12a5.26,5.26,0,0,0-.69-.9,10.88,10.88,0,0,0,4.19-1.76H40.7V8.41h4.74V7.49h1.12v.92h4.85v.93Zm-5-3.21c.31-.33.66-.76,1-1.22H40.9V4h3.21l.76-1,1,.3c-.17.24-.35.48-.54.73h5.84v.9H49a4,4,0,0,1-1.14,1.47,27.14,27.14,0,0,1,2.79.87L50,8A30.38,30.38,0,0,0,46.8,7a16.72,16.72,0,0,1-5.23,1,3.08,3.08,0,0,0-.36-.86,23.49,23.49,0,0,0,4-.52c-.55-.14-1.09-.26-1.61-.37l-.2.24Zm-.34-2.37H41V2h4.45V1.15h1.11V2h4.51V3.76H50V2.93h-8Zm2.63,1.15-.48.61c.76.15,1.6.33,2.44.53a2.86,2.86,0,0,0,1.17-1.14Z"/><path class="cls-1" d="M62.88,10.79c0,.66-.16,1-.6,1.17a6.42,6.42,0,0,1-2.24.21A4.46,4.46,0,0,0,59.65,11c.78,0,1.6,0,1.82,0s.3-.07.3-.28V4.24H58.61a11.4,11.4,0,0,1-.19,1.47,36.31,36.31,0,0,1,3.17,3.17l-.91.73a29.31,29.31,0,0,0-2.61-2.82,6.35,6.35,0,0,1-2.78,3,4.18,4.18,0,0,0-.8-.84,5.06,5.06,0,0,0,3-4.72H54.34v7.94H53.22v-9h4.25v-2h1.15v2h4.26Z"/></svg>