<svg id="Layer_1" data-name="Layer 1" xmlns="http://www.w3.org/2000/svg" viewBox="0 0 70 12.92"><defs><style>.cls-1{fill:#fff;}</style></defs><title>다국어-jp</title><path class="cls-1" d="M4.71,10.73a1.34,1.34,0,0,0,.13-.68V3.35a7,7,0,0,0-.11-1.21H6.22a7.76,7.76,0,0,0-.11,1.2V9.9a13.35,13.35,0,0,0,6.39-4l.69,1a14.39,14.39,0,0,1-7,4.31,2.4,2.4,0,0,0-.6.25Z"/><path class="cls-1" d="M22.68,3.07a3.29,3.29,0,0,0-.35.63,16.54,16.54,0,0,1-2,3.42,30.81,30.81,0,0,1,3.43,3.51l-1.06.94a26.23,26.23,0,0,0-3.17-3.51,15.21,15.21,0,0,1-4.62,3.44l-1-1A13.51,13.51,0,0,0,18.9,7a9.86,9.86,0,0,0,1.91-3.16h-4.4c-.47,0-1.12.06-1.31.07V2.53a11.55,11.55,0,0,0,1.31.09h4.45a3.73,3.73,0,0,0,1-.12Z"/><path class="cls-1" d="M32.24,8.21a30.91,30.91,0,0,0-4.53-1.87V10a14.18,14.18,0,0,0,.1,1.54H26.33a12.58,12.58,0,0,0,.1-1.54V3.11a8.86,8.86,0,0,0-.11-1.34h1.47c0,.39-.08.92-.08,1.34V5A41.23,41.23,0,0,1,32.78,6.9Z"/><path class="cls-1" d="M43.32,5.4a2.71,2.71,0,0,0-.18.41,8.74,8.74,0,0,1-1.76,3.37,8.84,8.84,0,0,1-4.3,2.55l-.93-1.08A8.18,8.18,0,0,0,40.34,8.5a5.55,5.55,0,0,0,1.33-2.4h-6.1c-.29,0-.82,0-1.27,0V4.9A12.68,12.68,0,0,0,35.57,5h6.14a2.42,2.42,0,0,0,.77-.11ZM35.39,2.1a10.07,10.07,0,0,0,1.14.06h4.68a10.37,10.37,0,0,0,1.17-.06V3.34c-.3,0-.78,0-1.19,0H36.53c-.37,0-.8,0-1.14,0Z"/><path class="cls-1" d="M49.51,8.55A11.33,11.33,0,0,0,53.67,4l.74,1.31A12.39,12.39,0,0,1,50.2,9.68a13.28,13.28,0,0,1-4.6,1.79l-.8-1.24A12.41,12.41,0,0,0,49.51,8.55ZM49.1,4.72l-.94,1a27,27,0,0,0-3-2.54L46,2.21A23,23,0,0,1,49.1,4.72Z"/><path class="cls-1" d="M58.33,3.85a12.13,12.13,0,0,1-1,1.72V12.1h-1V7a11.34,11.34,0,0,1-.91.92,7.28,7.28,0,0,0-.62-1,10,10,0,0,0,2.53-3.36Zm-.28-2.39a11.74,11.74,0,0,1-2.5,2.8,7.65,7.65,0,0,0-.6-.84A7.79,7.79,0,0,0,57,1.08Zm4.74,9.22c-1.71.23-3.5.43-4.8.59l-.12-1c.55,0,1.22-.12,2-.19V8.38H58.2v-1h1.62V6.06h1.06V7.42h1.63v1H60.88V9.92l1.88-.21ZM59.84,3.45H58.36v-1h1.48V1.08h1V2.5h1.5v1h-1.5v1.4h1.7v1H58.13v-1h1.71ZM66,5.94H65v4.87c0,.58-.11.91-.49,1.08a4.46,4.46,0,0,1-1.8.2A5.28,5.28,0,0,0,62.44,11c.57,0,1.11,0,1.28,0s.21-.05.21-.2V5.94H62.79V5H66Zm-.15-3.19h-3v-1h3Z"/></svg>