<svg id="Layer_1" data-name="Layer 1" xmlns="http://www.w3.org/2000/svg" viewBox="0 0 70 12.92"><defs><style>.cls-1{fill:#fff;}</style></defs><title>다국어-eng</title><path class="cls-1" d="M21.82,2.32H27V3.48H23.21v2.7h3.26V7.34H23.21v3.81H21.82Z"/><path class="cls-1" d="M27.82,7.86a3.13,3.13,0,1,1,6.21,0,3.12,3.12,0,1,1-6.21,0Zm4.79,0c0-1.4-.65-2.34-1.69-2.34s-1.68.94-1.68,2.34.65,2.31,1.68,2.31S32.61,9.25,32.61,7.86Z"/><path class="cls-1" d="M35.18,7.86a3.13,3.13,0,1,1,6.22,0,3.13,3.13,0,1,1-6.22,0Zm4.8,0c0-1.4-.65-2.34-1.69-2.34s-1.68.94-1.68,2.34.65,2.31,1.68,2.31S40,9.25,40,7.86Z"/><path class="cls-1" d="M42.58,7.86c0-2.15,1.35-3.48,2.83-3.48a2.53,2.53,0,0,1,1.77.75L47.12,4V1.59H48.5v9.56H47.37l-.12-.75h0a2.76,2.76,0,0,1-1.92.9C43.64,11.3,42.58,10,42.58,7.86Zm4.54,1.5V6.13a2.08,2.08,0,0,0-1.45-.6c-.92,0-1.67.88-1.67,2.3s.59,2.33,1.62,2.33A1.94,1.94,0,0,0,47.12,9.36Z"/></svg>