<svg id="Layer_1" data-name="Layer 1" xmlns="http://www.w3.org/2000/svg" viewBox="0 0 70 12.92"><defs><style>.cls-1{fill:#fff;}</style></defs><title>다국어-kr</title><path class="cls-1" d="M23.05,6V7h-9.8V6Zm-9.3-1.54c2.2-.16,3.55-.93,3.69-1.91H14.23v-1h3.3v-1h1.23v1h3.3v1H18.85c.14,1,1.5,1.75,3.69,1.91l-.38.94c-1.89-.16-3.34-.77-4-1.73-.67,1-2.12,1.57-4,1.73ZM21.86,9.6c0,1.18-1.38,1.82-3.73,1.82S14.4,10.78,14.4,9.6s1.39-1.81,3.73-1.81S21.86,8.42,21.86,9.6Zm-1.25,0c0-.59-.88-.9-2.48-.9s-2.47.31-2.47.9.87.89,2.47.89S20.61,10.19,20.61,9.6Z"/><path class="cls-1" d="M29.78,5.83h-5V1.07H26V2.49h2.56V1.07h1.21v1H32V.59h1.25V6.21H32V5H29.78ZM28.57,3.44H26V4.85h2.56Zm5.06,6.88v1h-7.4V8.49h5.82V7.66H26.22v-1h7.05V9.4H27.45v.92ZM29.78,3V4H32V3Z"/><path class="cls-1" d="M38.35,6.73A2.71,2.71,0,1,1,41.24,4,2.72,2.72,0,0,1,38.35,6.73Zm0-1.06A1.6,1.6,0,0,0,40,4a1.68,1.68,0,0,0-3.35,0A1.59,1.59,0,0,0,38.35,5.67Zm-.17,4.54h6v1h-7.3V7.72h1.25Zm7.15-6.4v1H43.79v3.7H42.56V.59h1.23V3.81Z"/><path class="cls-1" d="M48.09,7.63a19.11,19.11,0,0,0,3.18-.32l.13,1.06a21,21,0,0,1-3.82.32h-.72V1.84h1.23Zm7.5-7V11.42H54.41V5.92H53.13v5H52V.81h1.16V4.9h1.28V.59Z"/></svg>