<svg id="Layer_1" data-name="Layer 1" xmlns="http://www.w3.org/2000/svg" viewBox="0 0 70 12.92"><defs><style>.cls-1{fill:#fff;}</style></defs><title>다국어-chn</title><path class="cls-1" d="M25.48,6.66C25,6.33,24,5.75,23.28,5.38l.61-.83c.68.34,1.7.87,2.21,1.19Zm-2,4.6a36.2,36.2,0,0,0,2.25-3.79l.81.74C26,9.45,25.16,10.88,24.45,12Zm2.53-7.84c-.49-.34-1.49-.92-2.2-1.31l.63-.8c.69.34,1.71.88,2.23,1.21Zm5,2.27V7.47h2.47v4.61H32.45v-.44h-4v.5h-1V7.47H30V5.69H26.65V4.62H30V2.92c-.84.13-1.7.23-2.49.29a3.63,3.63,0,0,0-.33-.94,27.12,27.12,0,0,0,5.7-1.09l.88.86a16,16,0,0,1-2.7.7V4.62h3.18V5.69Zm1.41,2.78h-4v2.16h4Z"/><path class="cls-1" d="M40,10.38c-.05-.2-.12-.44-.19-.71a21.65,21.65,0,0,0-3.91,1.09v0a0,0,0,0,0,0,0c-.06-.21-.24-.74-.35-1,.19-.08.37-.39.56-.82a20.49,20.49,0,0,0,.91-3H35.42v-1h5.24v1H38.14A22.83,22.83,0,0,1,37,9.3l2.48-.56c-.19-.57-.41-1.17-.62-1.67l.9-.24A22.69,22.69,0,0,1,41,10.06Zm.46-7.29H35.83v-1h4.62Zm5.61.73s0,.38,0,.54c-.15,4.86-.28,6.56-.69,7.09a1.19,1.19,0,0,1-.91.53,12.48,12.48,0,0,1-1.63,0,2.75,2.75,0,0,0-.33-1.08c.63,0,1.19,0,1.45,0a.43.43,0,0,0,.45-.18c.29-.34.43-1.87.55-5.87H43.4c-.16,3-.66,5.6-2.39,7.25a2.86,2.86,0,0,0-.84-.82c1.56-1.44,2-3.77,2.15-6.43h-1.5V3.82h1.53c0-.8,0-1.62,0-2.46h1.1q0,1.26,0,2.46Z"/></svg>