<svg id="Layer_1" data-name="Layer 1" xmlns="http://www.w3.org/2000/svg" viewBox="0 0 70 12.92"><defs><style>.cls-1{fill:#fff;}</style></defs><title>다국어-eng</title><path class="cls-1" d="M7.41,11.25l-2-3.56H4v3.56H2.59V2.42H5.48c1.83,0,3.19.65,3.19,2.56A2.46,2.46,0,0,1,6.83,7.51L9,11.25ZM4,6.57H5.32c1.28,0,2-.52,2-1.59s-.69-1.44-2-1.44H4Z"/><path class="cls-1" d="M9.13,8a3.2,3.2,0,0,1,3-3.47c1.75,0,2.69,1.26,2.69,3.13a3.2,3.2,0,0,1-.06.69H10.49a2,2,0,0,0,2,2,2.8,2.8,0,0,0,1.57-.49l.48.87a4,4,0,0,1-2.23.7A3.17,3.17,0,0,1,9.13,8Zm4.51-.6c0-1.14-.51-1.79-1.47-1.79a1.78,1.78,0,0,0-1.69,1.79Z"/><path class="cls-1" d="M15.31,8a3.24,3.24,0,0,1,3.27-3.47,2.83,2.83,0,0,1,1.93.75l-.69.9a1.73,1.73,0,0,0-1.18-.51c-1.11,0-1.9.93-1.9,2.33s.76,2.32,1.86,2.32A2.31,2.31,0,0,0,20,9.68l.56.91a3.22,3.22,0,0,1-2.13.82A3.12,3.12,0,0,1,15.31,8Z"/><path class="cls-1" d="M20.61,8a3.12,3.12,0,1,1,6.21,0,3.12,3.12,0,1,1-6.21,0ZM25.4,8c0-1.4-.64-2.33-1.69-2.33S22,6.56,22,8s.65,2.32,1.68,2.32S25.4,9.36,25.4,8Z"/><path class="cls-1" d="M27.84,4.65H29l.11.93h0a2.9,2.9,0,0,1,2-1.09A1.75,1.75,0,0,1,33,5.7a3,3,0,0,1,2.15-1.21c1.38,0,2,.93,2,2.61v4.15H35.77v-4c0-1.14-.36-1.6-1.1-1.6a2.19,2.19,0,0,0-1.49.9v4.68H31.8v-4c0-1.14-.35-1.6-1.1-1.6a2.21,2.21,0,0,0-1.49.9v4.68H27.84Z"/><path class="cls-1" d="M38.54,4.65h1.13l.11.93h0a2.86,2.86,0,0,1,2-1.09A1.76,1.76,0,0,1,43.68,5.7a3,3,0,0,1,2.15-1.21c1.37,0,2,.93,2,2.61v4.15H46.47v-4c0-1.14-.36-1.6-1.1-1.6a2.19,2.19,0,0,0-1.49.9v4.68H42.5v-4c0-1.14-.34-1.6-1.1-1.6a2.24,2.24,0,0,0-1.49.9v4.68H38.54Z"/><path class="cls-1" d="M48.78,8a3.2,3.2,0,0,1,3-3.47c1.75,0,2.69,1.26,2.69,3.13a4,4,0,0,1-.06.69H50.14a2,2,0,0,0,2,2,2.83,2.83,0,0,0,1.57-.49l.48.87a4,4,0,0,1-2.23.7A3.17,3.17,0,0,1,48.78,8Zm4.51-.6c0-1.14-.51-1.79-1.47-1.79a1.78,1.78,0,0,0-1.69,1.79Z"/><path class="cls-1" d="M55.43,4.65h1.13l.1.92h0a3.12,3.12,0,0,1,2.18-1.08c1.41,0,2,.93,2,2.61v4.15H59.53v-4c0-1.14-.33-1.6-1.11-1.6a2.25,2.25,0,0,0-1.62.9v4.68H55.43Z"/><path class="cls-1" d="M61.87,8c0-2.14,1.36-3.47,2.83-3.47a2.53,2.53,0,0,1,1.78.74l-.06-1.09V1.69H67.8v9.56H66.67l-.12-.74h0a2.76,2.76,0,0,1-1.91.9C62.94,11.41,61.87,10.15,61.87,8Zm4.55,1.5V6.24A2,2,0,0,0,65,5.64c-.93,0-1.67.87-1.67,2.3s.59,2.33,1.62,2.33A2,2,0,0,0,66.42,9.46Z"/></svg>