<svg id="Layer_1" data-name="Layer 1" xmlns="http://www.w3.org/2000/svg" viewBox="0 0 70 12.92"><defs><style>.cls-1{fill:#fff;}</style></defs><title>다국어-jp</title><path class="cls-1" d="M10.79,6.52a9.2,9.2,0,0,1,2.47-.37c1.76,0,3.09.95,3.09,2.47s-.81,2.4-2.56,2.82a7.83,7.83,0,0,1-1.5.17l-.43-1.2a8.22,8.22,0,0,0,1.42-.08c1-.18,1.87-.71,1.87-1.72s-.82-1.41-1.9-1.41a8,8,0,0,0-2.44.39c0,1,0,2,0,2.45,0,1.26-.47,1.62-1.16,1.62-1,0-2.62-.94-2.62-2.09S8.29,7.52,9.7,6.91V6.17c0-.42,0-.87,0-1.31l-.78,0a15.54,15.54,0,0,1-1.56-.06l0-1.15a11.05,11.05,0,0,0,1.58.1l.81,0c0-.53,0-1,0-1.18a6.91,6.91,0,0,0-.07-.94H11c0,.23-.06.63-.08.91s0,.68,0,1.09a14.1,14.1,0,0,0,2.34-.45l0,1.17a23.29,23.29,0,0,1-2.39.4c0,.48,0,1,0,1.37Zm-1,3.33c0-.38,0-1.06,0-1.83-.86.42-1.46,1-1.46,1.5s.69.88,1.1.88C9.61,10.4,9.76,10.24,9.76,9.85Zm4.77-6.91a21.05,21.05,0,0,1,2.81,1.7l-.59,1A17.66,17.66,0,0,0,14,3.85Z"/><path class="cls-1" d="M28.13,4.29c-.71,0-1.83-.06-3.55-.06,0,.64,0,1.34,0,1.86A3,3,0,0,1,25,7.68c0,1.58-.84,3.44-3.66,4.25l-1-1a4.73,4.73,0,0,0,3.06-1.72A2,2,0,0,1,20.56,7.3a2.15,2.15,0,0,1,2.22-2.13,2.34,2.34,0,0,1,.66.08l0-1c-1.79,0-3.74.09-5.21.19l0-1.15c1.34,0,3.55-.09,5.24-.11,0-.25,0-.47,0-.6,0-.3-.06-.7-.1-.86h1.37c0,.15-.06.69-.06.86s0,.35,0,.59h3.55ZM22.78,8.34c.61,0,1.06-.5.91-1.62a1,1,0,0,0-.93-.55A1.06,1.06,0,0,0,21.7,7.28,1,1,0,0,0,22.78,8.34Z"/><path class="cls-1" d="M39,4.29c-.71,0-1.83-.06-3.55-.06,0,.64,0,1.34,0,1.86a3,3,0,0,1,.42,1.59c0,1.58-.84,3.44-3.66,4.25l-1-1a4.73,4.73,0,0,0,3.06-1.72A2,2,0,0,1,31.42,7.3a2.15,2.15,0,0,1,2.22-2.13,2.34,2.34,0,0,1,.66.08l0-1c-1.79,0-3.74.09-5.21.19l0-1.15c1.34,0,3.55-.09,5.24-.11,0-.25,0-.47,0-.6,0-.3-.06-.7-.1-.86h1.37c0,.15-.06.69-.06.86s0,.35,0,.59H39ZM33.64,8.34c.61,0,1.06-.5.91-1.62a1,1,0,0,0-.93-.55,1.05,1.05,0,0,0-1.06,1.11A1,1,0,0,0,33.64,8.34Z"/><path class="cls-1" d="M47.68,2c-.09.3-.18.77-.24,1s-.1.42-.16.63a3.83,3.83,0,0,1,3.17,3.91c0,2.44-1.74,3.89-4.25,4.25l-.72-1.08c2.53-.23,3.75-1.53,3.75-3.21A2.73,2.73,0,0,0,47,4.68,15.07,15.07,0,0,1,45.33,8.6a5.82,5.82,0,0,0,.69.78l-1,.77-.49-.59a3.15,3.15,0,0,1-2.34,1.38c-1,0-1.76-.78-1.76-2.24A5.07,5.07,0,0,1,42.28,5c-.13-.35-.24-.7-.35-1a7.17,7.17,0,0,0-.43-1.15l1.25-.39c.07.35.16.75.25,1.09s.15.54.25.83a6.11,6.11,0,0,1,2.89-.79c.06-.25.12-.49.16-.72a7,7,0,0,0,.07-1ZM43.77,8.4a14.12,14.12,0,0,1-1.1-2.32,3.86,3.86,0,0,0-1.09,2.53c0,.7.29,1.13.78,1.13s1.06-.48,1.55-1.12Zm.85-.82a14.64,14.64,0,0,0,1.24-3,4.82,4.82,0,0,0-2.26.75,11.9,11.9,0,0,0,.91,2Z"/><path class="cls-1" d="M62.75,2.65V3.73H53.91v2c0,1.87-.18,4.65-1.23,6.49a5.56,5.56,0,0,0-.94-.64c1-1.7,1-4.14,1-5.85V2.65h4.32V1.19h1.16V2.65ZM58.69,5.23h3.89v1H58.69V7.76h3.13v4.43H60.68v-.44H55.91v.45H54.82V7.76h2.74V4h1.13Zm2,3.51H55.91v2h4.77Z"/></svg>