<svg id="Layer_1" data-name="Layer 1" xmlns="http://www.w3.org/2000/svg" viewBox="0 0 70 12.92"><defs><style>.cls-1{fill:#fff;}</style></defs><title>다국어-chn</title><path class="cls-1" d="M15,1.46a20.61,20.61,0,0,1-1.18,2.41V12.2H12.8V5.48a12.3,12.3,0,0,1-1.16,1.36A8.38,8.38,0,0,0,11,5.71a13,13,0,0,0,3-4.6Zm3.83,6.35a5,5,0,0,1-.73,2.2,11.9,11.9,0,0,0,4.26,1.15,4.63,4.63,0,0,0-.66,1,11.69,11.69,0,0,1-4.25-1.37,6.42,6.42,0,0,1-2.59,1.38,4.12,4.12,0,0,0-.68-.92,5.84,5.84,0,0,0,2.36-1.08A6.66,6.66,0,0,1,15,8.29L15.88,8a5.11,5.11,0,0,0,1.35,1.44,4.18,4.18,0,0,0,.54-1.64H15V4.44h2.86v-1H14.68v-1h3.16V1.21h1.1V2.39h3.31v1H18.94v1h3V7.81Zm-1-.92V5.37H16V6.89Zm1.1-1.52V6.89h1.9V5.37Z"/><path class="cls-1" d="M33.41,10.75c0,.65-.15,1-.59,1.15a6.54,6.54,0,0,1-2.24.2A4.76,4.76,0,0,0,30.21,11c.77,0,1.56,0,1.79,0s.3-.07.3-.3V8.59H29.39V12H28.28V8.59H25.52A6.84,6.84,0,0,1,24,12.23a3.59,3.59,0,0,0-.87-.73c1.3-1.46,1.42-3.58,1.42-5.27V2h8.84ZM28.28,7.54V5.76h-2.6v.48c0,.41,0,.85-.05,1.3ZM25.68,3V4.72h2.6V3ZM32.3,3H29.39V4.72H32.3Zm0,4.51V5.76H29.39V7.54Z"/><path class="cls-1" d="M39.49,7.25,38,7.68v3.23c0,.57-.12.87-.47,1a3.91,3.91,0,0,1-1.68.19,4.78,4.78,0,0,0-.32-1c.5,0,1,0,1.14,0s.22-.05.22-.23V8l-1.45.4-.28-1.08c.48-.12,1.07-.25,1.73-.43V4.52H35.31v-1h1.57V1.16H38V3.48h1.3v1H38V6.59l1.35-.37Zm.5-.4h5.69v5.23H44.57V11.6H41.05v.54H40ZM44.4,5c.63,0,.72-.21.81-1.44a3.41,3.41,0,0,0,1,.41c-.15,1.62-.48,2-1.74,2H41.9C40.4,6,40,5.67,40,4.49V1.18h1.11V2.87a18.94,18.94,0,0,0,3.56-1.09l.83.82a23.76,23.76,0,0,1-4.39,1.17v.72c0,.42.14.49.87.49Zm-3.35,2.8v1h3.52v-1Zm3.52,2.92v-1H41.05v1Z"/><path class="cls-1" d="M53.21,3.3c0,.39-.1.76-.16,1.1h4.4v6.53c0,.6-.16.88-.58,1a6.5,6.5,0,0,1-2.06.17,4.35,4.35,0,0,0-.4-1,14.58,14.58,0,0,0,1.62,0c.22,0,.28-.06.28-.25V5.43H49.18v6.7H48.07V4.4H52c0-.33.09-.71.13-1.1H47.5v-1h4.71c0-.39.06-.78.07-1.11l1.22.12c0,.32-.08.65-.13,1H58v1Zm0,6.6v2H52.18v-2H49.77V9h2.41V8H50V7.09h1.11a6.06,6.06,0,0,0-.57-1.33l.88-.22a6,6,0,0,1,.62,1.36l-.63.19h2A12.3,12.3,0,0,0,54,5.5l1,.23c-.21.46-.41.94-.61,1.36H55.5V8H53.24V9h2.49v.9Z"/></svg>