<?xml version="1.0" encoding="utf-8"?>
<!-- Generator: Adobe Illustrator 22.0.0, SVG Export Plug-In . SVG Version: 6.00 Build 0)  -->
<svg version="1.2" baseProfile="tiny" id="Layer_1" xmlns="http://www.w3.org/2000/svg" xmlns:xlink="http://www.w3.org/1999/xlink"
	 x="0px" y="0px" viewBox="0 0 28 28" xml:space="preserve">
<path fill="#C3231C" d="M0.7,23.3L0.5,14c0-0.4,0.3-0.6,0.7-0.4L9.2,18c0.4,0.2,0.4,0.6,0,0.8l-2.4,1.5c1.4,1.6,3.3,2.7,5.4,3.1
	c4.1,0.8,8.3-1.4,10.1-5.2c0.4-0.8,1.4-1.2,2.3-0.8c0.8,0.4,1.2,1.4,0.8,2.3C23.3,24.2,18.8,27,14,27c-0.7,0-1.5-0.1-2.2-0.2
	c-3.1-0.6-5.8-2.2-7.7-4.7l-2.6,1.6C1.1,23.9,0.8,23.8,0.7,23.3z M18.8,9.9l8.1,4.4c0.4,0.2,0.7,0,0.7-0.4l-0.3-9.3
	c0-0.4-0.3-0.6-0.7-0.4L24,5.9c-1.9-2.4-4.7-4.1-7.7-4.7c-5.6-1-11.2,1.9-13.8,7C2.1,9,2.4,10.1,3.3,10.5c0.2,0.1,0.5,0.2,0.7,0.2
	c0.6,0,1.2-0.3,1.5-0.9c1.9-3.8,6-5.9,10.1-5.2c2.1,0.4,4,1.5,5.4,3.1l-2.4,1.5C18.4,9.4,18.4,9.7,18.8,9.9z"/>
</svg>
