<?xml version="1.0" encoding="utf-8"?>
<!-- Generator: Adobe Illustrator 22.0.0, SVG Export Plug-In . SVG Version: 6.00 Build 0)  -->
<svg version="1.2" baseProfile="tiny" id="Layer_1" xmlns="http://www.w3.org/2000/svg" xmlns:xlink="http://www.w3.org/1999/xlink"
	 x="0px" y="0px" viewBox="0 0 57 56" xml:space="preserve">
<path fill="#828282" d="M30.3,12v-1.7c0-0.5-0.4-0.8-0.8-0.8c-0.5,0-0.8,0.4-0.8,0.8V12c0,0.5,0.4,0.8,0.8,0.8
	C29.9,12.8,30.3,12.4,30.3,12z"/>
<path fill="#828282" d="M28.6,44v1.7c0,0.5,0.4,0.8,0.8,0.8c0.5,0,0.8-0.4,0.8-0.8V44c0-0.5-0.4-0.8-0.8-0.8
	C29,43.2,28.6,43.6,28.6,44z"/>
<path fill="#828282" d="M44.6,28c-0.5,0-0.8,0.4-0.8,0.8c0,0.5,0.4,0.8,0.8,0.8h1.7c0.5,0,0.8-0.4,0.8-0.8c0-0.5-0.4-0.8-0.8-0.8
	H44.6z"/>
<path fill="#828282" d="M10.9,28c-0.5,0-0.8,0.4-0.8,0.8c0,0.5,0.4,0.8,0.8,0.8h1.7c0.5,0,0.8-0.4,0.8-0.8c0-0.5-0.4-0.8-0.8-0.8
	H10.9z"/>
<path fill="#828282" d="M47.6,21.2c0.8,2.1,1.2,4.4,1.2,6.8c0,11.2-9.1,20.3-20.2,20.3C17.4,48.2,8.4,39.2,8.4,28
	c0-11.2,9.1-20.3,20.2-20.3c5,0,9.6,1.9,13.2,4.9l4.8-4.8C41.8,3.6,35.5,1,28.6,1C13.7,1,1.6,13.1,1.6,28c0,14.9,12.1,27,26.9,27
	c14.9,0,26.9-12.1,26.9-27c0-4.3-1-8.3-2.8-12L47.6,21.2z"/>
<path fill="#828282" d="M20.1,19.8c-0.2-0.2-0.4-0.2-0.6-0.2c-0.2,0-0.4,0.1-0.6,0.2l-3.6,3.6c-0.3,0.3-0.3,0.9,0,1.2l10.8,10.9
	c0.6,0.6,1.5,1,2.4,1c0.9,0,1.7-0.4,2.4-1L55.4,11c0.3-0.3,0.3-0.9,0-1.2l-3.6-3.6C51.6,6,51.4,6,51.2,6C51,6,50.8,6,50.6,6.2
	l-22,22.1L20.1,19.8z"/>
</svg>
