<?xml version="1.0" encoding="utf-8"?>
<!-- Generator: Adobe Illustrator 22.0.0, SVG Export Plug-In . SVG Version: 6.00 Build 0)  -->
<svg version="1.2" baseProfile="tiny" id="Layer_1" xmlns="http://www.w3.org/2000/svg" xmlns:xlink="http://www.w3.org/1999/xlink"
	 x="0px" y="0px" viewBox="0 0 28 28" xml:space="preserve">
<path fill="#C3231C" d="M25.6,6.7V6.2V6.1V3.6c0-1.7-5.1-3-11.4-3c-6.3,0-11.4,1.4-11.4,3v2.5v0.1v0.4C1.5,6.8,0.5,7.9,0.5,9.2V10
	c0,1.3,1,2.4,2.3,2.6V21c0,1,0.4,1.8,1.1,2.4v2c0,1.2,1,2.1,2.1,2.1h0.3c1.2,0,2.1-0.9,2.1-2.1v-1.3h11.4v1.3c0,1.2,1,2.1,2.1,2.1
	h0.3c1.2,0,2.1-0.9,2.1-2.1v-2c0.7-0.6,1.1-1.4,1.1-2.4v-8.5c1.1-0.3,1.9-1.3,1.9-2.5V9.2C27.5,8,26.7,7,25.6,6.7z M10.3,2.7h7.8
	v2.2h-7.8V2.7z M6.2,22.4c-0.8,0-1.4-0.6-1.4-1.4c0-0.8,0.6-1.4,1.4-1.4c0.8,0,1.4,0.6,1.4,1.4C7.6,21.8,7,22.4,6.2,22.4z
	 M22.2,22.4c-0.8,0-1.4-0.6-1.4-1.4c0-0.8,0.6-1.4,1.4-1.4s1.4,0.6,1.4,1.4C23.6,21.8,23,22.4,22.2,22.4z M23.7,15.8
	c0,1-0.8,1.7-1.7,1.7H6.5c-1,0-1.7-0.8-1.7-1.7V8.3c0-1,0.8-1.7,1.7-1.7h15.4c1,0,1.7,0.8,1.7,1.7V15.8z"/>
</svg>
