<svg id="Layer_1" data-name="Layer 1" xmlns="http://www.w3.org/2000/svg" viewBox="0 0 130 124"><defs><style>.cls-1{fill:#464646;}</style></defs><title>ic-tit</title><path class="cls-1" d="M65.62,38.09h0c6,0,10.9-5.3,10.9-11.81S71.68,14.5,65.66,14.47h0c-6,0-10.89,5.3-10.89,11.81S59.6,38.07,65.62,38.09M83.77,98.15H76.83V44.48H49.37c-2.66,0-3.91,2.33-3.91,5.2v1c0,2.87,1.25,5.2,3.91,5.2h6v42.3h-7c-2.66,0-3.91,2.33-3.91,5.2v1c0,2.87,1.25,5.2,3.91,5.2H83.77c2.66,0,3.91-2.33,3.91-5.2v-1c0-2.87-1.25-5.2-3.91-5.2"/></svg>