<svg id="Layer_1" data-name="Layer 1" xmlns="http://www.w3.org/2000/svg" viewBox="0 0 130 124"><defs><style>.cls-1{fill:#464646;}</style></defs><title>ic-tit</title><path class="cls-1" d="M78.08,30.13a1.67,1.67,0,0,1,0-3.34,1.67,1.67,0,1,1,0,3.34M58.65,20c2-5.15,4.94-8.5,8.2-8.5S73.07,14.81,75,20Zm-3,10.17a1.67,1.67,0,1,1,1.67-1.67,1.69,1.69,0,0,1-1.67,1.67M77.46,20C75.13,13.41,71.25,9.18,66.85,9.18S58.49,13.41,56.19,20H33.11V64.38H99.67V20Z"/><path class="cls-1" d="M97.67,95.65a3.88,3.88,0,0,0-.86-.78l-.14-.08-.31-.18L68.85,78.42c-2.54-1.49-3.61-2-3.64-2a3.21,3.21,0,0,0-1.37-.12,3.1,3.1,0,0,0-2.23,1.82c-1.28,4.3,3.14,7.58,3.14,7.58l11,6.53c1.71,1.36.21,3.31.21,3.31l-5.88,5.16a4.89,4.89,0,0,1-3.84.84L51,98.88,39.62,86.22a3.49,3.49,0,1,0-5.29,4.56l12,14,.41.39h0a3.15,3.15,0,0,0,1,.56l13.46,7.7a6.33,6.33,0,0,0,3.07,1.32H93.92c5.2,0,5.38-3.46,5.38-3.46V100.22a6.48,6.48,0,0,0-1.63-4.57"/><path class="cls-1" d="M69.31,100.19,59.25,88.5a3.49,3.49,0,0,0-4.92-.37,3.23,3.23,0,0,0-.7.87l8.58,10Z"/><path class="cls-1" d="M58.84,98.36,49.31,87.29a3.48,3.48,0,0,0-4.92-.36,3.14,3.14,0,0,0-.7.84l8.08,9.37Z"/></svg>