<?xml version="1.0" encoding="utf-8"?>
<!-- Generator: Adobe Illustrator 22.0.0, SVG Export Plug-In . SVG Version: 6.00 Build 0)  -->
<svg version="1.2" baseProfile="tiny" id="Layer_1" xmlns="http://www.w3.org/2000/svg" xmlns:xlink="http://www.w3.org/1999/xlink"
	 x="0px" y="0px" viewBox="0 0 650 144" xml:space="preserve">
<path fill="#343D43" d="M224.6,106.9V95.3h-4.2v12.4c0,0.9,0.8,1.7,1.7,1.7h10.8v-1.7h-7.4C225,107.8,224.6,107.4,224.6,106.9
	 M141.8,97v10.7c0,0.9,0.8,1.7,1.7,1.7H155v-1.7h-8.1c-0.5,0-0.8-0.4-0.8-0.8v-4.2h8.8v-1.6H146v-3.3c0-0.5,0.4-0.8,0.8-0.8h8.1
	v-1.7h-11.5C142.5,95.3,141.8,96.1,141.8,97 M80.2,106.9V95.3H76v12.4c0,0.9,0.8,1.7,1.7,1.7h10.8v-1.7h-7.4
	C80.6,107.8,80.2,107.4,80.2,106.9 M124.2,97h4.9v12.4h4.4V97h5.8v-1.7h-15.2V97z M107.5,97h5.8v12.4h4.4V97h4.9v-1.7h-15.2V97z
	 M102.5,102.4c0-3.3-2-6-4.7-6c-2.7,0-4.7,2.7-4.7,6c0,3.3,2,6,4.7,6C100.5,108.5,102.5,105.8,102.5,102.4 M106.7,102.4
	c0,4.2-3.3,7.6-8.9,7.6c-5.5,0-8.9-3.4-8.9-7.6c0-4.2,3.3-7.7,8.9-7.7C103.4,94.8,106.7,98.2,106.7,102.4 M179.8,95.3l-3,11.2
	l-3.3-11.2h-2.7l-3.1,11.2l-3.2-11.2h-3.6l3.9,13c0.2,0.8,0.7,1.1,1.3,1.1h2c0.7,0,1.1-0.4,1.3-1.1l2.2-7.6l2.3,7.6
	c0.2,0.8,0.6,1.1,1.3,1.1h2.1c0.7,0,1.1-0.4,1.3-1.1l3.7-13H179.8z M245.7,102.4c0-3.3-1.5-5.4-4.2-5.4h-2.8v10.8h2.8
	C244.2,107.8,245.7,105.7,245.7,102.4 M249.9,102.4c0,4.2-2.6,7.1-8.2,7.1h-7V95.3h3.9h3C247.3,95.3,249.9,98.2,249.9,102.4
	 M196.7,102.4c0-3.3-2-6-4.7-6c-2.7,0-4.7,2.7-4.7,6c0,3.3,2,6,4.7,6C194.7,108.5,196.7,105.8,196.7,102.4 M200.9,102.4
	c0,4.2-3.3,7.6-8.9,7.6c-5.5,0-8.9-3.4-8.9-7.6c0-4.2,3.3-7.7,8.9-7.7C197.5,94.8,200.9,98.2,200.9,102.4 M212.7,99.4
	c0-1.2-0.9-2.4-2.4-2.4H207v4.9h3.1C211.7,101.9,212.7,100.7,212.7,99.4 M218.2,109.5h-4.3l-1.9-4c-0.6-1.1-1.5-2-3.1-2H207v5.9
	h-3.9V95.3h8.2c3.8,0,5.4,1.8,5.4,4c0,1.8-1.3,3.3-3.2,3.6c1.5,0.2,2.1,1.1,2.7,2.5L218.2,109.5z M269,97.1v-1.7h-14.6v1.7h5.2v12.4
	h4.2V97.1H269z M312.2,97v10.8c0,0.9,0.8,1.7,1.7,1.7h11.5v-1.7h-8.1c-0.5,0-0.8-0.4-0.8-0.8v-4.2h8.8v-1.7h-8.8v-3.3
	c0-0.5,0.4-0.8,0.8-0.8h8.1v-1.7h-11.5C312.9,95.4,312.2,96.1,312.2,97 M283.3,102.4c0-3.3-2-6-4.7-6c-2.7,0-4.7,2.7-4.7,6
	c0,3.3,2,6,4.7,6C281.3,108.4,283.3,105.7,283.3,102.4 M287.5,102.4c0,4.2-3.3,7.7-8.9,7.7c-5.5,0-8.9-3.4-8.9-7.7
	c0-4.2,3.3-7.7,8.9-7.7C284.2,94.8,287.5,98.2,287.5,102.4 M307.6,95.4l-3,11.2l-3.3-11.2h-2.7l-3.1,11.2l-3.2-11.2h-3.6l3.8,13
	c0.2,0.7,0.7,1.1,1.3,1.1h2c0.7,0,1.1-0.4,1.3-1.1l2.2-7.6l2.3,7.6c0.2,0.7,0.6,1.1,1.3,1.1h2.1c0.7,0,1.1-0.4,1.3-1.1l3.7-13H307.6
	z M332,101.9h3.1c1.6,0,2.5-1.2,2.5-2.5c0-1.2-0.9-2.4-2.4-2.4H332V101.9z M336.3,95.3c3.8,0,5.4,1.8,5.4,4c0,1.8-1.3,3.3-3.2,3.6
	c1.5,0.2,2.1,1.1,2.7,2.5l2,4h-4.3l-1.9-4c-0.6-1.1-1.5-2-3.1-2H332v5.9h-3.9V95.3H336.3z"/>
<g>
	<path fill="#004053" d="M88.8,80.6c-7.5,0-12.2-4.5-12.2-11.3v-3h7.5v2.6c0,3.2,1.5,5,4.5,5c2.9,0,4.3-1.7,4.3-4.4
		c0-3.5-2.2-5.9-6.6-9.1c-4.5-3.2-9.3-7.6-9.3-13.7c0-6.3,4.1-11.8,12-11.8c6.9,0,11.5,4.7,11.5,11.2V49h-7.4v-2.6
		c0-2.7-1.4-4.7-4.1-4.7c-2.4,0-3.9,1.5-3.9,3.9c0,3.7,2.2,5.6,7,9.1c5.2,3.9,8.9,7.8,8.9,13.7C100.9,75.6,96,80.6,88.8,80.6"/>
	<polygon fill="#004053" points="109,79.6 109,35.8 129.9,35.8 129.9,42.9 117.2,42.9 117.2,53.7 126,53.7 126,60.2 117.2,60.2 
		117.2,72.3 129.9,72.3 129.9,79.6 	"/>
	<path fill="#004053" d="M150,80.6c-7.6,0-12.4-5-12.4-12V46.8c0-6.9,4.8-11.9,12.4-11.9c7.7,0,12.4,5,12.4,11.9v21.8
		C162.5,75.6,157.7,80.6,150,80.6 M154.2,46.3c0-2.6-1.5-4.3-4.2-4.3c-2.6,0-4.1,1.7-4.1,4.3v22.9c0,2.6,1.5,4.3,4.1,4.3
		c2.7,0,4.2-1.7,4.2-4.3V46.3z"/>
	<path fill="#004053" d="M184.6,80.6c-7.1,0-12.4-4.5-12.4-11.1V35.8h8.3v33.7c0,2.6,1.4,4,4.1,4c2.7,0,4.1-1.4,4.1-4V35.8h8v33.7
		C196.7,76.1,191.7,80.6,184.6,80.6"/>
	<polygon fill="#004053" points="207,79.6 207,35.8 215.2,35.8 215.2,72.4 227.4,72.4 227.4,79.6 	"/>
	<path fill="#004053" d="M265.2,80.6c-7.5,0-12.2-4.5-12.2-11.3v-3h7.5v2.6c0,3.2,1.5,5,4.5,5c2.9,0,4.3-1.7,4.3-4.4
		c0-3.5-2.2-5.9-6.6-9.1c-4.5-3.2-9.3-7.6-9.3-13.7c0-6.3,4.1-11.8,12-11.8c6.9,0,11.5,4.7,11.5,11.2V49h-7.4v-2.6
		c0-2.7-1.4-4.7-4.1-4.7c-2.4,0-3.9,1.5-3.9,3.9c0,3.7,2.2,5.6,7,9.1c5.2,3.9,8.9,7.8,8.9,13.7C277.3,75.6,272.4,80.6,265.2,80.6"/>
	<polygon fill="#004053" points="304.7,79.6 298.6,61.6 295.8,67.4 295.8,79.6 287.6,79.6 287.6,35.8 295.8,35.8 295.8,55.9 
		304.6,35.8 312.8,35.8 304.2,54.3 313.2,79.6 	"/>
	<polygon fill="#004053" points="336.1,61.8 336.1,79.6 328,79.6 328,61.8 318.3,35.8 326.8,35.8 332.5,53.7 337.9,35.8 346,35.8 	
		"/>
</g>
</svg>
