<?xml version="1.0" encoding="utf-8"?>
<!-- Generator: Adobe Illustrator 22.0.0, SVG Export Plug-In . SVG Version: 6.00 Build 0)  -->
<svg version="1.2" baseProfile="tiny" id="Layer_1" xmlns="http://www.w3.org/2000/svg" xmlns:xlink="http://www.w3.org/1999/xlink"
	 x="0px" y="0px" viewBox="0 0 650 144" xml:space="preserve">
<g>
	<path fill="#00A6CE" d="M483.5,82.7c3.4-0.7,6.6-2,9.8-3.7c1.6-0.8,3.1-1.8,4.6-2.9l1.1-0.8c0.4-0.3,0.7-0.6,1.1-0.9
		c0.7-0.6,1.4-1.3,2.1-1.9c1.3-1.3,2.5-2.7,3.7-4.1c1.1-1.5,2.1-3,3-4.6c1.8-3.2,3-6.6,3.8-10l0.1-0.6l0.1-0.6
		c0.1-0.4,0.2-0.8,0.2-1.3c0.1-0.8,0.2-1.7,0.3-2.5c0.2-1.7,0.2-3.3,0.1-4.9c-0.2-3.2-0.7-6.2-1.5-8.9c-0.8-2.7-1.8-5.1-2.9-7.1
		c-0.3-0.5-0.5-1-0.8-1.5c-0.3-0.5-0.5-0.9-0.8-1.3c-0.3-0.4-0.5-0.8-0.8-1.2c-0.1-0.2-0.3-0.4-0.4-0.5c-0.1-0.2-0.3-0.3-0.4-0.5
		c-0.2-0.3-0.5-0.6-0.7-0.9c-0.2-0.3-0.5-0.5-0.7-0.8c-0.2-0.2-0.4-0.5-0.6-0.7c-0.2-0.2-0.3-0.4-0.5-0.5c-0.6-0.6-0.9-1-0.9-1
		s0.3,0.3,0.9,1c0.2,0.2,0.3,0.3,0.5,0.5c0.2,0.2,0.4,0.4,0.6,0.7c0.2,0.2,0.4,0.5,0.7,0.8c0.2,0.3,0.5,0.6,0.7,0.9
		c0.1,0.2,0.3,0.3,0.4,0.5c0.1,0.2,0.3,0.4,0.4,0.5c0.3,0.4,0.5,0.8,0.8,1.2c0.3,0.4,0.6,0.9,0.8,1.3c0.3,0.5,0.6,0.9,0.8,1.4
		c1.1,2,2.2,4.4,3.1,7.1c0.9,2.7,1.5,5.7,1.7,9c0.1,1.6,0.1,3.3,0,5c0,0.9-0.1,1.7-0.2,2.6c-0.1,0.4-0.1,0.9-0.2,1.3l-0.1,0.7
		l-0.1,0.7c-0.7,3.5-1.9,7-3.6,10.4c-0.9,1.7-1.9,3.3-3,4.8c-1.1,1.6-2.4,3-3.7,4.4c-0.7,0.7-1.3,1.3-2.1,2c-0.4,0.3-0.7,0.7-1.1,1
		l-1.1,0.9c-1.5,1.2-3.1,2.2-4.8,3.2c-3.3,1.9-6.8,3.3-10.3,4.1c-0.4,0.1-0.9,0.2-1.3,0.3c-0.4,0.1-0.9,0.2-1.3,0.3
		c-0.9,0.1-1.8,0.3-2.6,0.4c-1.7,0.2-3.5,0.2-5.1,0.2c-3.3-0.1-6.5-0.6-9.3-1.3c-0.8-0.2-1.6-0.5-2.4-0.7c7.1,0.5,12.3,0.1,14.6-0.1
		C478.9,83.6,482.1,83,483.5,82.7"/>
	<path fill="#00A6CE" d="M447.7,81.6c0.1,0.1,0.3,0.2,0.4,0.3c0.2,0.1,0.4,0.3,0.6,0.4c0.2,0.1,0.4,0.3,0.6,0.4
		c0.4,0.3,0.9,0.6,1.3,0.9c0.5,0.3,1,0.6,1.5,0.9c0.5,0.3,1.1,0.6,1.6,0.9c2.3,1.2,5,2.3,8,3.2c3,0.9,6.4,1.4,10.1,1.6
		c1.8,0.1,3.7,0,5.6-0.2c0.9-0.1,1.9-0.2,2.8-0.4c0.5-0.1,1-0.2,1.4-0.3l0.7-0.1l0.7-0.2c3.8-0.9,7.7-2.3,11.3-4.3
		c1.8-1,3.5-2.2,5.2-3.4c1.6-1.3,3.2-2.7,4.7-4.1l1.1-1.2c0.4-0.4,0.7-0.8,1-1.2c0.3-0.4,0.7-0.8,1-1.2l0.9-1.2
		c1.2-1.7,2.3-3.4,3.2-5.2c1.9-3.6,3.2-7.5,4-11.3l0.1-0.7l0.1-0.7c0.1-0.5,0.2-0.9,0.2-1.4c0.1-0.9,0.2-1.9,0.3-2.8
		c0.1-1.9,0.1-3.7,0-5.5c-0.3-3.5-0.9-6.8-1.8-9.8c-0.9-2.9-2.1-5.5-3.3-7.7c-0.3-0.5-0.6-1.1-0.9-1.6c-0.3-0.5-0.6-1-0.9-1.4
		c-0.3-0.4-0.6-0.9-0.9-1.3c-0.1-0.2-0.3-0.4-0.4-0.6c-0.1-0.2-0.3-0.4-0.4-0.5c-0.3-0.4-0.5-0.7-0.8-1c-0.3-0.3-0.5-0.6-0.7-0.8
		c-0.2-0.3-0.4-0.5-0.6-0.7c-0.2-0.2-0.4-0.4-0.6-0.6c-0.7-0.7-1-1.1-1-1.1s0.3,0.4,1,1.1c0.2,0.2,0.4,0.4,0.5,0.6
		c0.2,0.2,0.4,0.5,0.6,0.7c0.2,0.3,0.5,0.5,0.7,0.9c0.2,0.3,0.5,0.7,0.8,1c0.1,0.2,0.3,0.4,0.4,0.5c0.1,0.2,0.3,0.4,0.4,0.6
		c0.3,0.4,0.6,0.8,0.9,1.3c0.3,0.5,0.6,0.9,0.9,1.4c0.3,0.5,0.6,1,0.9,1.6c1.2,2.2,2.3,4.8,3.1,7.7c0.9,2.9,1.4,6.2,1.6,9.7
		c0.1,1.7,0.1,3.5-0.1,5.3c-0.1,0.9-0.2,1.8-0.3,2.7c-0.1,0.5-0.2,0.9-0.2,1.4l-0.1,0.7l-0.2,0.7c-0.8,3.7-2.2,7.4-4.1,10.8
		c-0.9,1.7-2.1,3.4-3.3,5c-1.2,1.6-2.6,3.1-4,4.5c-1.5,1.4-3,2.7-4.6,3.9c-1.6,1.2-3.3,2.2-5,3.1c-3.5,1.8-7.2,3.1-10.8,3.9
		l-0.7,0.1l-0.7,0.1c-0.5,0.1-0.9,0.2-1.4,0.2c-0.9,0.1-1.8,0.2-2.7,0.3c-1.8,0.1-3.5,0.1-5.2,0c-3.4-0.2-6.6-0.8-9.4-1.7
		c-1.3-0.4-2.4-0.8-3.6-1.3c-3.4-1.3-6.1-1.9-7.7-2.3C449.6,82.1,447.7,81.6,447.7,81.6"/>
	<path fill="#00A6CE" d="M464.5,108.9c4.6,0.3,9.5,0,14.4-0.9c4.9-1,9.9-2.6,14.6-5c4.7-2.4,9.1-5.4,13-9.1
		c3.9-3.6,7.3-7.8,9.9-12.3c2.7-4.5,4.7-9.3,5.9-14.1c1.3-4.8,1.9-9.6,1.9-14.1c0-2.3-0.1-4.4-0.1-6.5c0-2.1,0.2-4.1,0.4-6.1
		c0.5-3.9,1.5-7.3,2.8-10.2c1.2-2.9,2.7-5.3,4-7.2c1.3-1.9,2.5-3.3,3.3-4.2c0.8-0.9,1.3-1.4,1.3-1.4s-0.5,0.5-1.3,1.4
		c-0.8,0.9-2,2.3-3.4,4.1s-2.9,4.2-4.2,7.1c-1.3,2.9-2.5,6.4-3.1,10.3c-0.3,2-0.5,4-0.6,6.1c-0.1,2.1-0.1,4.3-0.1,6.6
		c-0.1,4.4-0.8,9.1-2.2,13.8c-1.3,4.7-3.4,9.3-6.1,13.6c-2.7,4.3-6,8.3-9.9,11.7c-3.8,3.4-8.2,6.3-12.7,8.5
		c-4.6,2.2-9.3,3.6-14.1,4.5c-4.7,0.8-9.4,1-13.7,0.6c-4.4-0.4-8.4-1.3-12-2.5c-3.6-1.2-6.8-2.7-9.5-4.2c-2.5-1.4-4.5-2.8-6.2-4.1
		c0.6,0.9,1.4,1.9,2.2,3c6.8,7.1,12.2,8.5,18.7,9.9C460,108.5,462.2,108.8,464.5,108.9"/>
	<path fill="#00A6CE" d="M441.8,83.3c0.3,0.2,0.5,0.4,0.8,0.7c0.3,0.2,0.6,0.5,1,0.8c0.4,0.3,0.7,0.6,1.1,0.9
		c0.2,0.2,0.4,0.3,0.6,0.5c0.2,0.1,0.4,0.3,0.7,0.5c0.5,0.3,0.9,0.6,1.4,1c0.5,0.3,1,0.6,1.6,1c0.6,0.3,1.2,0.6,1.8,1
		c2.5,1.3,5.4,2.5,8.6,3.5c3.3,1,6.9,1.6,10.8,1.8c1.9,0.1,4,0.1,6-0.1c1-0.1,2-0.2,3.1-0.4c0.5-0.1,1-0.2,1.5-0.3l0.8-0.1l0.8-0.2
		c4.1-0.9,8.3-2.5,12.2-4.6c2-1.1,3.8-2.3,5.6-3.7l1.3-1c0.4-0.3,0.9-0.7,1.3-1.1c0.9-0.7,1.6-1.5,2.4-2.3c1.6-1.6,3-3.3,4.3-5.1
		c1.3-1.8,2.5-3.7,3.5-5.7c2-3.9,3.5-8,4.3-12.2l0.2-0.8l0.1-0.8c0.1-0.5,0.2-1,0.2-1.5c0.1-1,0.2-2,0.3-3c0.1-2,0.1-4,0-5.9
		c-0.3-3.8-1-7.4-2-10.6c-1-3.2-2.3-6-3.6-8.3c-0.3-0.6-0.7-1.2-1-1.7c-0.3-0.5-0.7-1-1-1.5c-0.3-0.5-0.7-0.9-1-1.4
		c-0.2-0.2-0.3-0.4-0.5-0.6c-0.2-0.2-0.3-0.4-0.5-0.6c-0.3-0.4-0.6-0.7-0.9-1.1c-0.3-0.3-0.6-0.6-0.8-0.9c-0.2-0.3-0.5-0.5-0.7-0.8
		c-0.2-0.2-0.4-0.4-0.6-0.6c-0.7-0.7-1.1-1.1-1.1-1.1s0.4,0.4,1.1,1.2c0.2,0.2,0.4,0.4,0.6,0.6c0.2,0.2,0.4,0.5,0.7,0.8
		c0.2,0.3,0.5,0.6,0.8,0.9c0.3,0.3,0.5,0.7,0.8,1.1c0.1,0.2,0.3,0.4,0.4,0.6c0.1,0.2,0.3,0.4,0.4,0.6c0.3,0.4,0.6,0.9,0.9,1.4
		c0.3,0.5,0.6,1,0.9,1.5c0.3,0.5,0.6,1.1,0.9,1.7c1.2,2.4,2.4,5.2,3.4,8.3c0.9,3.2,1.5,6.7,1.7,10.4c0.1,1.9,0.1,3.8-0.1,5.8
		c-0.1,1-0.2,2-0.3,3c-0.1,0.5-0.2,1-0.3,1.5l-0.1,0.7l-0.2,0.7c-0.9,4-2.4,8-4.4,11.7c-1,1.9-2.2,3.7-3.5,5.4
		c-1.3,1.7-2.8,3.3-4.3,4.9c-0.8,0.7-1.6,1.5-2.4,2.2c-0.4,0.3-0.8,0.7-1.2,1l-1.3,1c-1.8,1.2-3.6,2.4-5.5,3.4
		c-3.8,2-7.7,3.3-11.7,4.1l-0.7,0.1l-0.7,0.1c-0.5,0.1-1,0.2-1.5,0.2c-1,0.1-2,0.2-2.9,0.3c-1.9,0.1-3.8,0.1-5.7,0
		c-3.7-0.3-7.1-0.9-10.2-1.9c-3.1-1-5.7-2.2-8-3.5c-0.6-0.3-1.1-0.6-1.6-1c-0.5-0.3-1-0.6-1.5-0.9c-0.5-0.3-0.9-0.6-1.3-0.9
		c-0.2-0.1-0.4-0.3-0.6-0.4c-0.2-0.2-0.4-0.3-0.6-0.4c-0.4-0.3-0.7-0.6-1-0.8c-0.3-0.3-0.6-0.5-0.9-0.8c-0.3-0.2-0.5-0.5-0.8-0.7
		c-0.1-0.1-0.1-0.1-0.2-0.2c-0.9,0.1-2.5,0.7-3.4,1.4c0.2,0.2,0.4,0.4,0.7,0.7C441.3,82.9,441.6,83.1,441.8,83.3"/>
	<path fill="#00A6CE" d="M436.6,85.8c0.2,0.2,0.5,0.4,0.8,0.8c0.8,0.8,2.1,1.8,3.7,3.1c1.7,1.3,3.8,2.7,6.4,4.1
		c2.6,1.4,5.6,2.7,9,3.7c3.4,1,7.2,1.8,11.3,2c4.1,0.3,8.4,0,12.8-0.8c4.4-0.9,8.7-2.3,12.9-4.5c4.1-2.1,8-4.9,11.5-8.1
		c3.4-3.2,6.4-7,8.7-10.9c2.3-4,4-8.2,5.1-12.5c1.1-4.2,1.5-8.5,1.5-12.5c0-1.4,0-2.8-0.1-4.1h-0.8c0,1.3,0,2.7-0.1,4.1
		c-0.1,3.9-0.6,8.1-1.8,12.2c-1.2,4.1-2.9,8.2-5.3,12c-2.3,3.8-5.3,7.3-8.7,10.4c-3.4,3-7.2,5.6-11.2,7.5c-4,1.9-8.2,3.2-12.4,4
		c-4.2,0.7-8.3,0.8-12.1,0.5c-3.8-0.3-7.4-1.1-10.6-2.2c-3.2-1-6-2.4-8.4-3.7c-2.4-1.3-4.3-2.7-5.8-3.9c-1.5-1.2-2.7-2.2-3.4-3
		c-0.4-0.4-0.7-0.6-0.9-0.8c0,0-0.7,0.5-1.3,1.2C437.1,84.9,436.6,85.8,436.6,85.8"/>
	<path fill="#00A6CE" d="M440.9,95.8c1.1,0.7,2.4,1.5,3.8,2.2c2.8,1.5,6,2.9,9.7,4c3.7,1.1,7.8,1.9,12.2,2.1c4.4,0.3,9.1,0,13.7-1
		c4.7-1,9.4-2.6,13.8-4.9c4.4-2.3,8.6-5.3,12.2-8.9c3.6-3.5,6.7-7.6,9.2-11.9c2.4-4.3,4.2-9,5.3-13.6c1.1-4.6,1.5-9.2,1.4-13.5
		c0-2.1,0-4.2,0.1-6.2c0.2-2,0.4-3.9,0.8-5.7c0.8-3.6,2-6.8,3.3-9.6c1.3-2.7,2.8-5,4.1-6.7c1.3-1.8,2.4-3.1,3.2-3.9
		c0.8-0.9,1.2-1.3,1.2-1.3s-0.4,0.4-1.2,1.3c-0.8,0.9-1.9,2.1-3.3,3.9c-1.3,1.7-2.8,3.9-4.2,6.7c-1.4,2.7-2.7,5.9-3.6,9.6
		c-0.4,1.8-0.8,3.8-1,5.8c-0.2,2-0.3,4.1-0.3,6.3c0,4.3-0.5,8.7-1.6,13.2c-1.2,4.5-3,8.9-5.4,13.1c-2.5,4.2-5.6,8-9.2,11.4
		c-3.6,3.3-7.6,6.1-12,8.3c-4.3,2.1-8.8,3.6-13.3,4.4c-4.5,0.8-8.9,1-13.1,0.7c-4.2-0.3-8-1.2-11.5-2.3c-3.5-1.1-6.5-2.5-9.1-4
		c-1.3-0.7-2.4-1.5-3.5-2.2c-1-0.7-2-1.4-2.8-2.1c-1.7-1.3-2.9-2.4-3.7-3.2c-0.2-0.2-0.3-0.3-0.5-0.4c-0.6,1.2-0.9,2.7-1,3.8
		c0.8,0.7,1.8,1.5,3.1,2.5C438.8,94.3,439.8,95.1,440.9,95.8"/>
	<path fill="#00A6CE" d="M483.9,67c0.1,3.3-2.2,14.8-15.1,15.3c0,0,0,0,0,0c0,0,0,0,0,0c12.3,1.1,18.1-9.7,18.4-15.2L483.9,67z"/>
	<path fill="#00A6CE" d="M509.9,118.4c-1.4-3-8.6-12.2-20.3-6.9c0,0,0,0,0,0c0,0,0,0,0,0c10.5-6.5,20.6,0.5,23.3,5.3L509.9,118.4z"
		/>
	<path fill="#00A6CE" d="M536.7,19.3c-0.2,0.2-0.6,0.6-1,1.1c-0.9,1-2.1,2.4-3.4,4.4c-0.7,1-1.4,2.1-2.1,3.4c-0.7,1.3-1.4,2.7-2,4.3
		c-0.6,1.6-1.2,3.3-1.6,5.1c-0.4,1.8-0.8,3.8-1,5.9c-0.2,2.1-0.3,4.2-0.3,6.4c0,1.1,0,2.2,0,3.4c0,1.1,0,2.3-0.1,3.5
		c-0.3,4.7-1.1,9.5-2.6,14.4c-1.5,4.8-3.8,9.6-6.7,14.1c-2.9,4.4-6.5,8.5-10.6,12c-4.1,3.5-8.7,6.4-13.5,8.6
		c-4.8,2.2-9.8,3.6-14.8,4.4c-5,0.8-9.8,0.9-14.4,0.4c-2.9-0.3-5.7-0.8-8.3-1.4c6,2.9,20,5.7,32.8,1.2c2.2-0.8,4-1.6,5.8-2.4
		c5-2.4,9.7-5.5,13.8-9.2c4.2-3.7,7.8-8,10.7-12.7c2.9-4.6,5.1-9.6,6.5-14.6c1.5-5,2.2-10,2.4-14.7c0-1.2,0-2.3,0-3.5
		c0-1.1-0.1-2.3-0.1-3.4c-0.1-2.2-0.1-4.3,0.1-6.4c0.1-2,0.4-4,0.8-5.8c0.4-1.8,0.9-3.5,1.5-5.1c0.6-1.6,1.2-3,1.9-4.3
		c0.7-1.3,1.3-2.4,2-3.4c1.3-2,2.5-3.5,3.3-4.4C536.2,19.9,536.5,19.6,536.7,19.3c0.2-0.2,0.3-0.4,0.3-0.4S537,19.1,536.7,19.3"/>
</g>
<g>
	<g>
		<path fill="#ED1C24" d="M230,107.6c-0.7-1.5-1.4-2.5-3-2.7c2.1-0.4,3.5-1.9,3.5-4c0-2.5-1.7-4.5-6-4.5h-9.1v15.6h4.3v-6.6h2.1
			c1.8,0,2.8,1,3.5,2.2l2.1,4.4h4.7L230,107.6z M223.2,103.7h-3.4v-5.4h3.5c1.7,0,2.7,1.3,2.7,2.7
			C226,102.4,224.9,103.7,223.2,103.7 M203.2,95.9c-6.1,0-9.8,3.8-9.8,8.5c0,4.7,3.7,8.4,9.8,8.4c6.1,0,9.8-3.8,9.8-8.4
			C213,99.6,209.3,95.9,203.2,95.9 M203.2,111c-2.9,0-5.2-3-5.2-6.6c0-3.7,2.2-6.6,5.2-6.6c2.9,0,5.2,3,5.2,6.6
			C208.3,108,206.1,111,203.2,111 M258.2,96.5h-3.4h-4.3v15.6h7.7c6.1,0,9-3.1,9-7.8C267.2,99.6,264.3,96.5,258.2,96.5 M257.9,110.2
			h-3.1V98.3h3.1c2.9,0,4.6,2.3,4.6,5.9C262.5,107.9,260.9,110.2,257.9,110.2 M192.3,96.5l-4.1,14.4c-0.2,0.8-0.7,1.2-1.4,1.2h-2.3
			c-0.7,0-1.2-0.4-1.4-1.2l-2.5-8.4l-2.4,8.4c-0.2,0.8-0.7,1.2-1.5,1.2h-2.3c-0.7,0-1.2-0.4-1.5-1.2l-4.3-14.4h4l3.6,12.3l3.4-12.3
			h3l3.6,12.3l3.3-12.3H192.3z M99.1,95.9c-6.1,0-9.8,3.8-9.8,8.5c0,4.7,3.7,8.4,9.8,8.4c6.1,0,9.8-3.8,9.8-8.4
			C108.9,99.6,105.3,95.9,99.1,95.9 M99.1,111c-2.9,0-5.2-3-5.2-6.6c0-3.7,2.2-6.6,5.2-6.6c2.9,0,5.2,3,5.2,6.6
			C104.3,108,102.1,111,99.1,111 M109.8,96.5h16.7v1.9h-5.4v13.7h-4.9V98.3h-6.4V96.5z M128.3,96.5H145v1.9h-6.5v13.7h-4.9V98.3
			h-5.4V96.5z M80.6,110.2h8.2v1.9H76.9c-1,0-1.9-0.8-1.9-1.8V96.5h4.7v12.8C79.7,109.8,80.1,110.2,80.6,110.2 M149.5,96.5h12.7v1.8
			h-9c-0.5,0-0.9,0.4-0.9,0.9v3.6h9.8v1.8h-9.8v4.6c0,0.5,0.4,0.9,0.9,0.9h9v1.8h-12.7c-1,0-1.9-0.8-1.9-1.9V98.3
			C147.7,97.3,148.5,96.5,149.5,96.5 M240.1,110.2h8.2v1.9h-11.9c-1,0-1.9-0.8-1.9-1.8V96.5h4.7v12.8
			C239.2,109.8,239.6,110.2,240.1,110.2"/>
		<path fill="#ED1C24" d="M291.3,112.1l-7.7-15.7h-3.7l-8.1,15.7h3.1l1.5-3.1h8.6l1.5,3.1H291.3z M280.7,99.9l3.4,7.2h-6.8
			L280.7,99.9z"/>
		<path fill="#ED1C24" d="M349.3,112.1l-7.7-15.7h-3.7l-8.1,15.7h3.1l1.5-3.1h8.6l1.5,3.1H349.3z M338.7,99.9l3.4,7.2h-6.8
			L338.7,99.9z"/>
		<path fill="#ED1C24" d="M307.9,110.1l3.2,2.6h-5l-0.9-0.7c-1.2,0.5-2.7,0.8-4.3,0.8c-6,0-9.4-4-9.4-8.5c0-4.5,3.2-8.5,9.4-8.5
			c6.2,0,9.4,4,9.4,8.5C310.3,106.5,309.5,108.5,307.9,110.1 M296,104.2c0,3.7,2.2,6.7,5,6.7c0.8,0,1.6-0.3,2.2-0.7l-3.9-3.2h5
			l0.9,0.7c0.5-1,0.7-2.3,0.7-3.6c0-3.7-2.1-6.8-5-6.8C298.1,97.5,296,100.5,296,104.2"/>
		<path fill="#ED1C24" d="M317.3,96.4v10.4c0,2.8,1.7,4.1,3.7,4.1c2.1,0,3.7-1.3,3.7-4.1V96.4h4.5v9.7c0,4-3.2,6.6-8.3,6.6
			c-5.1,0-8.2-2.6-8.2-6.6v-9.7H317.3z"/>
		<rect x="370.5" y="96.4" fill="#ED1C24" width="4.5" height="15.7"/>
		<path fill="#ED1C24" d="M382.7,96.4v10.4c0,2.8,1.7,4.1,3.7,4.1c2.1,0,3.7-1.3,3.7-4.1V96.4h4.5v9.7c0,4-3.2,6.6-8.2,6.6
			c-5.1,0-8.2-2.6-8.2-6.6v-9.7H382.7z"/>
		<path fill="#ED1C24" d="M351.3,96.4v15.7h4.4v-6.6h2.1c1.8,0,2.8,1,3.5,2.2l2.1,4.4h4.8l-2.2-4.5c-0.7-1.5-1.4-2.5-3-2.7
			c2.1-0.4,3.5-1.9,3.5-4c0-2.5-1.7-4.5-6-4.5H351.3z M355.7,98.3h3.5c1.7,0,2.7,1.3,2.7,2.7c0,1.4-1,2.7-2.8,2.7h-3.4V98.3z"/>
	</g>
	<polygon fill="#ED1C24" points="405.3,112.1 400.8,99.2 400.8,112.1 398,112.1 398,96.4 404,96.4 407.9,107.7 411.7,96.4 
		417.7,96.4 417.7,112.1 412.9,112.1 412.9,99.2 408.4,112.1 	"/>
</g>
</svg>
