<?xml version="1.0" encoding="utf-8"?>
<!-- Generator: Adobe Illustrator 22.0.0, SVG Export Plug-In . SVG Version: 6.00 Build 0)  -->
<svg version="1.2" baseProfile="tiny" id="Layer_1" xmlns="http://www.w3.org/2000/svg" xmlns:xlink="http://www.w3.org/1999/xlink"
	 x="0px" y="0px" viewBox="0 0 650 144" xml:space="preserve">
<g>
	<path fill="#131E29" d="M340.3,57.7c1.8,0,17.4,0,17.4,0v-6.1h-24.2v45.3h24.3v-6c0,0-15.7,0-17.5,0c0-1.7,0-13,0-14.6
		c1.8,0,17.5,0,17.5,0v-6.1c0,0-15.7,0-17.5,0C340.3,68.7,340.3,59.3,340.3,57.7z"/>
	<path fill="#131E29" d="M186,57.7c1.8,0,17.4,0,17.4,0v-6.1h-24.2v45.3h24.3v-6c0,0-15.7,0-17.4,0c0-1.7,0-13,0-14.6
		c1.8,0,17.5,0,17.5,0v-6.1c0,0-15.7,0-17.5,0C186,68.7,186,59.3,186,57.7z"/>
	<path fill="#131E29" d="M250.6,51.7c0,0,0,27.8,0,34.1c-3.1-5.8-18.3-34.1-18.3-34.1h-7.4v45.3h6.7c0,0,0-26.8,0-33.1
		c3.1,5.7,17.9,33.1,17.9,33.1l7.9,0V51.7H250.6z"/>
	<path fill="#131E29" d="M142,88.6c-1.6-4.7-12.9-36.9-12.9-36.9h-7l16.2,45.3h7.2L162,51.7l-7,0C155,51.7,143.7,83.9,142,88.6z"/>
	<path fill="#131E29" d="M91.2,51.7L75,96.9h7c0,0,11.3-32.2,12.9-36.9c1.6,4.7,13,36.9,13,36.9l7,0L98.4,51.7H91.2z"/>
	<path fill="#131E29" d="M304.9,51.7v29.8c0,2.9-0.4,5.1-1.2,6.5c-1.4,2.3-4.3,3.5-8.5,3.5c-3.9,0-6.5-1.2-7.8-3.5
		c-0.8-1.4-1.2-3.6-1.2-6.4V51.7h-6.8v31.5c0,3.3,0.8,6.3,2.5,8.6c2.7,3.8,7.2,5.7,13.3,5.7c6.7,0,11.5-1.9,14.2-5.8
		c1.6-2.2,2.4-5.1,2.4-8.6V51.7H304.9z"/>
	<path fill="#131E29" d="M385.8,90.9c0-1.9,0-39.2,0-39.2h-6.8v45.1h25.9v-5.9C404.9,90.9,387.6,90.9,385.8,90.9z"/>
</g>
</svg>
