<?xml version="1.0" encoding="utf-8"?>
<!-- Generator: Adobe Illustrator 22.0.0, SVG Export Plug-In . SVG Version: 6.00 Build 0)  -->
<svg version="1.2" baseProfile="tiny" id="Layer_1" xmlns="http://www.w3.org/2000/svg" xmlns:xlink="http://www.w3.org/1999/xlink"
	 x="0px" y="0px" viewBox="0 0 650 144" xml:space="preserve">
<path fill="#CE0E2D" d="M206.4,64.1l0,21.4c0,1.9,1.5,3.3,3.3,3.3l22.9,0v-3.3l-16.1,0c-1,0-1.7-0.8-1.7-1.6l0-8.4l17.6,0l0-3.3
	l-17.6,0l0-6.6c0-1,0.7-1.6,1.7-1.6l16.1,0v-3.4l-23,0C207.8,60.7,206.3,62.3,206.4,64.1 M83.5,84l0-23.2l-8.5,0l0,24.8
	c0,1.9,1.5,3.4,3.4,3.4l21.5,0v-3.3l-14.7,0C84.1,85.7,83.5,84.9,83.5,84 M171.3,64.2h9.9l0,24.7l8.7,0l0-24.7l11.6,0v-3.5
	l-30.2,0.1L171.3,64.2z M137.8,64.2l11.7,0l0,24.7h8.7l0-24.7l9.9,0v-3.4l-30.2,0V64.2z M127.9,75c0-6.6-4.1-12-9.4-12
	c-5.3,0-9.3,5.4-9.2,12c0,6.6,4,12,9.3,11.9C123.9,87,127.9,81.7,127.9,75 M136.3,75c0,8.5-6.6,15.3-17.7,15.3
	c-11.1,0-17.7-6.8-17.7-15.2c0-8.4,6.6-15.3,17.6-15.3C129.7,59.8,136.3,66.6,136.3,75"/>
<polygon fill="#CE0E2D" points="346,88.5 353.1,88.5 353.1,77.6 362.3,60.7 357.1,60.7 350.4,73.6 343.4,60.7 336.2,60.7 346,77.5 
	"/>
<polygon fill="#CE0E2D" points="318.7,88.5 325.4,88.5 325.4,64 333.9,64 333.9,60.7 310.2,60.7 310.2,64 318.7,64 "/>
<path fill="#CE0E2D" d="M286.2,87.1c1.1,0.8,2.3,1.4,3.8,1.9c1.5,0.4,3.1,0.7,4.9,0.7c1.8,0,3.4-0.2,4.8-0.7
	c1.5-0.4,2.7-1.1,3.8-1.9c1-0.8,1.9-1.8,2.4-3c0.6-1.2,0.9-2.5,0.9-4V60.7h-6.7V81c0,0.7-0.1,1.4-0.4,2c-0.3,0.6-0.6,1.2-1.1,1.7
	c-0.5,0.5-1,0.8-1.7,1.1c-0.6,0.3-1.3,0.4-2,0.4c-0.7,0-1.4-0.1-2-0.4c-0.6-0.3-1.2-0.6-1.7-1.1c-0.5-0.5-0.9-1-1.1-1.7
	c-0.3-0.6-0.4-1.3-0.4-2V60.7h-6.7v19.5c0,1.5,0.3,2.8,0.9,4C284.4,85.3,285.2,86.3,286.2,87.1z"/>
<path fill="#CE0E2D" d="M256.7,88.5H267c1.7,0,3.3-0.4,4.8-1.1c1.5-0.7,2.8-1.7,3.9-3c1.1-1.2,2-2.7,2.7-4.4c0.6-1.7,1-3.5,1-5.4
	c0-2.2-0.3-4.1-0.9-5.8c-0.6-1.7-1.5-3.2-2.6-4.4c-1.1-1.2-2.4-2.1-3.9-2.8c-1.5-0.6-3.2-1-5-1h-10.3c-0.6,0-1.1,0.2-1.4,0.7
	c-0.3,0.5-0.5,1-0.5,1.7v23.2c0,0.6,0.2,1.2,0.5,1.6C255.6,88.3,256.1,88.5,256.7,88.5z M261.5,67.1c0-1.1,0.2-1.9,0.5-2.4
	c0.3-0.5,0.8-0.7,1.5-0.7h2.7c0.8,0,1.6,0.3,2.4,0.8c0.8,0.5,1.5,1.2,2.1,2.2c0.6,0.9,1.1,2,1.5,3.4c0.4,1.3,0.5,2.7,0.5,4.3
	c0,1.5-0.2,2.8-0.5,4.1c-0.4,1.3-0.9,2.4-1.5,3.4c-0.6,1-1.3,1.7-2.1,2.3c-0.8,0.6-1.6,0.8-2.4,0.8l-2.7,0c-0.7,0-1.2-0.2-1.5-0.7
	c-0.3-0.5-0.5-1.3-0.5-2.4V67.1z"/>
<path fill="#CE0E2D" d="M460.2,60.8c-0.4,0.1-0.7,0.3-1,0.7c-0.3,0.3-0.5,0.8-0.7,1.4c-0.2,0.6-0.3,1.3-0.3,2.2V84
	c0,0.9,0.1,1.7,0.3,2.2c0.2,0.6,0.4,1,0.7,1.4c0.3,0.3,0.6,0.6,1,0.7c0.4,0.1,0.8,0.2,1.1,0.2h16.8v-3.2h-11.2
	c-0.7,0-1.2-0.2-1.6-0.7c-0.3-0.5-0.5-1.3-0.5-2.4v-7.5h13.1v-3.2h-13.1v-4.3c0-1.1,0.2-1.9,0.5-2.4c0.3-0.5,0.8-0.7,1.6-0.7h11.2
	v-3.2h-16.8C460.9,60.7,460.5,60.7,460.2,60.8z"/>
<path fill="#CE0E2D" d="M411.6,77h2.5c0.7,0,1.5,0.1,2.2,0.2c0.7,0.1,1.4,0.4,2,0.8c0.6,0.4,1.2,0.9,1.6,1.5
	c0.4,0.7,0.7,1.5,0.8,2.6c0.1,0.8,0.1,1.5,0.2,2.1c0.1,0.6,0.1,1.1,0.2,1.6c0.1,0.5,0.1,0.9,0.2,1.3c0.1,0.4,0.1,0.9,0.2,1.3h7.2
	l-0.9-5.4c-0.2-0.9-0.4-1.8-0.6-2.7c-0.2-0.9-0.6-1.7-1-2.4c-0.4-0.7-1-1.3-1.6-1.7c-0.6-0.4-1.4-0.6-2.3-0.5c1-0.1,1.9-0.3,2.7-0.8
	c0.8-0.4,1.4-1,1.9-1.6c0.5-0.7,0.9-1.4,1.2-2.3c0.3-0.9,0.4-1.8,0.4-2.8c0-0.6,0-1.1-0.1-1.7c-0.1-0.6-0.2-1.2-0.4-1.7
	c-0.2-0.6-0.5-1.1-1-1.6c-0.4-0.5-1-1-1.7-1.3c-0.7-0.4-1.5-0.7-2.5-0.9c-1-0.2-2.1-0.3-3.5-0.3H408c-0.4,0-0.7,0.1-1.1,0.2
	c-0.4,0.1-0.7,0.4-1,0.7c-0.3,0.3-0.5,0.8-0.7,1.4c-0.2,0.6-0.3,1.3-0.3,2.2v23.4h6.7V77z M411.6,67c0-1.1,0.2-1.9,0.5-2.4
	c0.3-0.5,0.8-0.7,1.5-0.7h2.9c1,0,1.8,0.1,2.5,0.4c0.7,0.3,1.2,0.6,1.6,1c0.4,0.4,0.7,0.9,0.9,1.5c0.2,0.6,0.2,1.2,0.2,1.8
	c0,1.8-0.5,3.1-1.6,3.9c-1.1,0.8-2.7,1.2-4.9,1.2h-3.7V67z"/>
<path fill="#CE0E2D" d="M434.8,60.8c-0.4,0.1-0.7,0.3-1,0.7c-0.3,0.3-0.5,0.8-0.7,1.4c-0.2,0.6-0.3,1.3-0.3,2.2V84
	c0,0.9,0.1,1.7,0.3,2.2c0.2,0.6,0.4,1,0.7,1.4c0.3,0.3,0.6,0.6,1,0.7c0.4,0.1,0.8,0.2,1.1,0.2h16.8v-3.2h-11.2
	c-0.7,0-1.2-0.2-1.5-0.7c-0.3-0.5-0.5-1.3-0.5-2.4v-7.5h13v-3.2h-13v-4.3c0-1.1,0.2-1.9,0.5-2.4c0.3-0.5,0.8-0.7,1.5-0.7h11.2v-3.2
	h-16.8C435.6,60.7,435.2,60.7,434.8,60.8z"/>
<path fill="#CE0E2D" d="M387.4,74.5h13v-3.2h-13v-4.3c0-1.1,0.2-1.9,0.5-2.4c0.3-0.5,0.8-0.7,1.5-0.7h11.2v-3.2h-16.8
	c-0.4,0-0.7,0.1-1.1,0.2c-0.4,0.1-0.7,0.3-1,0.7c-0.3,0.3-0.5,0.8-0.7,1.4c-0.2,0.6-0.3,1.3-0.3,2.2v23.3h6.7V74.5z"/>
</svg>
