<?xml version="1.0" encoding="utf-8"?>
<!-- Generator: Adobe Illustrator 22.0.0, SVG Export Plug-In . SVG Version: 6.00 Build 0)  -->
<svg version="1.2" baseProfile="tiny" id="Layer_1" xmlns="http://www.w3.org/2000/svg" xmlns:xlink="http://www.w3.org/1999/xlink"
	 x="0px" y="0px" viewBox="0 0 650 144" xml:space="preserve">
<polygon fill="#483729" points="156.2,34.4 147.9,34.4 125.6,57.4 125.6,34.4 119.7,34.4 119.7,91.5 125.6,91.5 125.6,68 149,91.5 
	157.3,91.5 128.7,62.7 "/>
<g>
	<path fill="#483729" d="M244.2,61.5c3.8-3,5.2-7,5.5-8.1c0.2-0.7,0.3-1.5,0.4-2.2c0.1-0.6,0.1-0.9,0.1-1l0-0.1c0-0.2,0-0.3,0-0.5
		c0-8.3-6.6-15.1-14.8-15.1c-8,0-14.6,6.6-14.7,14.8l0,0.3h5.6l0-0.3c0.2-5,4.3-9.1,9.2-9.1c0.6,0,1.1,0.1,1.7,0.2
		c3.9,1,6.5,3.8,7,7.7c0.8,6.1-3.4,9.6-7.6,10.9c-0.2,0-0.3,0.1-0.5,0.1c-2,0.5-4.6,0.6-6,0.6h-1.1l0,5.5l0.3,0c0,0,0.8-0.1,2-0.1
		c1.5,0,3.6,0.1,5.7,0.5c2.5,0.5,4.9,2.2,6.4,4.5c2,3.1,1.3,6.6,0.4,9c-0.6,1.5-1.9,3.2-3.3,4.2c-1.7,1.3-3.8,2-5.9,2
		c-5.4,0-10-4.5-10.2-10l0-0.3h-6.1l0,0.3c0.2,8.9,7.5,16.2,16.2,16.3l0.2,0c9,0,16.2-7.5,16.2-16.7c0-3.8-1.3-7.6-3.7-10.5
		C246,62.8,244.8,61.9,244.2,61.5"/>
	<polygon fill="#483729" points="258.6,34.4 258.6,40.2 263.9,40.2 263.9,91.5 269.9,91.5 269.9,34.4 	"/>
	<path fill="#483729" d="M105.2,64.2c-1.2-1.1-2.7-2.2-4.6-3.3c-1.8-1-4.1-2.1-6.6-3.2c-3.9-1.7-6.4-3-7.6-3.9c-2-1.7-3-3.5-3-5.7
		c0-2.5,0.9-4.4,2.8-5.9c1.8-1.5,4.1-2.2,6.9-2.2c2.7,0,4.9,0.5,6.6,1.5c1.3,0.7,2.4,1.8,3.3,3.2l0.4,0.6h6.2l-0.7-1.8
		c-2.4-5.7-8.3-9.2-15.8-9.2c-4.3,0-8.1,1.3-11,3.8c-3.1,2.5-4.7,5.9-4.7,10c0,4.1,1.5,7.5,4.6,9.9c1.8,1.5,4.9,3.2,9.6,5.2
		c2.3,1,4.3,1.9,5.8,2.7c1.4,0.8,2.5,1.4,3.2,2c2.5,2.1,3.7,4.7,3.7,7.9c0,3.4-1,5.9-3.1,7.6c-1.6,1.3-4.1,2.3-6.8,2.5
		c-0.4,0-0.7,0-1.1,0h0c-10,0-11.7-8.2-11.8-8.6l-0.2-1.1h-6.5l0.4,1.6c2.1,8.4,7.6,12.9,16.3,13.5c0.5,0,1,0,1.5,0
		c5.3,0,9.4-1.4,12.4-4.3c4.9-4.6,4.8-11.2,4.8-11.4C110.2,71.2,108.5,67.3,105.2,64.2"/>
	<polygon fill="#483729" points="180.8,57 166.7,34.6 166.6,34.4 159.8,34.4 177.7,63.3 177.8,91.2 177.8,91.5 183.7,91.5 
		183.7,63.4 201.7,34.4 194.9,34.4 	"/>
	<path fill="#483729" d="M84.1,107.6V107c0-0.2-0.1-0.3-0.3-0.3H80c-0.2,0-0.4,0.1-0.4,0.4v7.9c0,0.2,0.1,0.3,0.3,0.3h0.7
		c0.2,0,0.3-0.1,0.3-0.3v-3.7h2.9c0.2,0,0.3-0.1,0.3-0.3v-0.7c0-0.2-0.1-0.3-0.3-0.3h-2.9v-2h2.9C84.1,108,84.1,107.8,84.1,107.6"/>
	<path fill="#483729" d="M93.5,107.9c-0.9-0.9-1.9-1.3-3.1-1.3c-1.2,0-2.3,0.4-3.1,1.3c-0.9,0.9-1.3,1.9-1.3,3.1
		c0,1.2,0.4,2.3,1.3,3.1c0.9,0.9,1.9,1.3,3.1,1.3c1.2,0,2.3-0.4,3.1-1.3c0.9-0.9,1.3-1.9,1.3-3.1C94.8,109.8,94.4,108.7,93.5,107.9
		 M92.6,113.2c-0.6,0.6-1.3,0.9-2.2,0.9c-0.9,0-1.6-0.3-2.2-0.9c-0.6-0.6-0.9-1.4-0.9-2.2c0-0.9,0.3-1.6,0.9-2.2
		c0.6-0.6,1.3-0.9,2.2-0.9c0.8,0,1.6,0.3,2.2,0.9c0.6,0.6,0.9,1.4,0.9,2.2C93.5,111.9,93.2,112.6,92.6,113.2"/>
	<path fill="#483729" d="M100.5,106.6c-1.2,0-2.3,0.4-3.1,1.3c-0.9,0.9-1.3,1.9-1.3,3.1c0,1.2,0.4,2.3,1.3,3.1
		c0.9,0.9,1.9,1.3,3.1,1.3c1.2,0,2.3-0.4,3.1-1.3c0.9-0.9,1.3-1.9,1.3-3.1c0-1.2-0.4-2.3-1.3-3.1C102.8,107,101.7,106.6,100.5,106.6
		 M102.7,113.2c-0.6,0.6-1.3,0.9-2.2,0.9c-0.9,0-1.6-0.3-2.2-0.9c-0.6-0.6-0.9-1.4-0.9-2.2c0-0.9,0.3-1.6,0.9-2.2
		c0.6-0.6,1.3-0.9,2.2-0.9c0.8,0,1.6,0.3,2.2,0.9c0.6,0.6,0.9,1.4,0.9,2.2C103.6,111.9,103.3,112.6,102.7,113.2"/>
	<path fill="#483729" d="M108.6,106.7H107c-0.1,0-0.3,0.1-0.3,0.3v7.9c0,0.2,0.1,0.3,0.3,0.3h1.6c1.4,0,2.6-0.4,3.4-1.2
		c0.8-0.8,1.2-1.9,1.2-3.1c0-1.2-0.4-2.3-1.2-3.1C111.2,107.1,110.1,106.7,108.6,106.7 M111.1,113.2c-0.5,0.6-1.3,0.9-2.3,0.9
		l-0.7,0V108h0.6c1,0,1.8,0.3,2.4,0.9c0.6,0.6,0.8,1.3,0.8,2.2C111.9,111.9,111.6,112.6,111.1,113.2"/>
	<path fill="#483729" d="M126,115.3c0.1,0,0.2,0,0.2-0.1c0.1-0.1,0.1-0.2,0-0.3l-3.5-8.1c-0.1-0.1-0.1-0.2-0.2-0.2
		c-0.1,0-0.2,0.1-0.2,0.2l-3.5,8.1c-0.1,0.1-0.1,0.2,0,0.3c0,0.1,0.1,0.1,0.2,0.1h0.8c0.2,0,0.3-0.1,0.4-0.2l0.8-1.8h3.3l0,0
		l0.7,1.7c0.1,0.2,0.2,0.2,0.3,0.2H126z M121.3,112l1.1-2.7l1.1,2.7H121.3z"/>
	<path fill="#483729" d="M132.5,106.7c-0.1,0-0.2,0-0.3,0.3l-2,5.6l-2-5.6c-0.1-0.1-0.2-0.2-0.3-0.2h-0.9c-0.1,0-0.2,0-0.2,0.1
		c0,0.1-0.1,0.2,0,0.3l3.2,8.1c0,0.1,0.1,0.1,0.2,0.1c0.1,0,0.1,0,0.2-0.2l3.2-8.1c0.1-0.1,0-0.2,0-0.3c0-0.1-0.1-0.1-0.2-0.1H132.5
		z"/>
	<path fill="#483729" d="M140.1,106.7h-4c-0.2,0-0.3,0.1-0.3,0.3v8c0,0.2,0.1,0.3,0.3,0.3h4c0.2,0,0.3-0.1,0.3-0.3v-0.6
		c0-0.4-0.2-0.4-0.3-0.4h-3v-2.5h3c0.1,0,0.3,0,0.3-0.4v-0.6c0-0.2-0.1-0.3-0.3-0.3h-3V108h3c0.3,0,0.3-0.2,0.3-0.3V107
		C140.4,106.9,140.3,106.7,140.1,106.7"/>
	<path fill="#483729" d="M149.4,106.7h-0.8c-0.1,0-0.2,0.1-0.2,0.3v5.3l-0.1-0.2l-4.5-5.3c-0.1-0.1-0.2-0.2-0.3-0.1
		c-0.1,0-0.2,0.1-0.2,0.3v8.1c0,0.2,0.1,0.3,0.3,0.3h0.8c0.1,0,0.3-0.1,0.3-0.3v-5.3l4.7,5.6c0.1,0.1,0.2,0.1,0.3,0
		c0.1,0,0.1-0.1,0.1-0.2V107C149.6,106.8,149.5,106.7,149.4,106.7"/>
	<path fill="#483729" d="M153.2,106.7h-0.8c-0.1,0-0.3,0.1-0.3,0.3v5.2c0,2.1,1,3.3,3,3.3c2,0,3-1.1,3-3.3V107
		c0-0.2-0.1-0.3-0.3-0.3h-0.8c-0.1,0-0.3,0.1-0.3,0.3v5.1c0,0.7-0.2,1.3-0.5,1.5c-0.3,0.3-0.7,0.4-1.2,0.4c-0.5,0-0.9-0.1-1.2-0.4
		c-0.3-0.3-0.5-0.8-0.5-1.6V107C153.5,106.8,153.4,106.7,153.2,106.7"/>
	<path fill="#483729" d="M165.3,108c0.3,0,0.3-0.2,0.3-0.3V107c0-0.1-0.1-0.3-0.3-0.3h-4c-0.2,0-0.3,0.1-0.3,0.3v8
		c0,0.2,0.1,0.3,0.3,0.3h4c0.2,0,0.3-0.1,0.3-0.3v-0.6c0-0.4-0.2-0.4-0.3-0.4h-3v-2.5h3c0.1,0,0.3,0,0.3-0.4v-0.6
		c0-0.2-0.1-0.3-0.3-0.3h-3V108H165.3z"/>
	<path fill="#483729" d="M179.9,115.3c0.1,0,0.2-0.1,0.2-0.2c0-0.1,0-0.2,0-0.3l-1.2-1.5l0.9-1.2c0.1-0.1,0.1-0.2,0-0.3
		c0-0.1-0.1-0.1-0.2-0.1h-0.8c-0.1,0-0.2,0.1-0.3,0.2l-0.4,0.6l-1.4-1.8l0.1,0c0.8-0.7,1.4-1.3,1.4-2.2c0-1.1-0.8-1.9-2.1-1.9
		c-0.6,0-1.1,0.2-1.5,0.5c-0.4,0.4-0.6,0.8-0.6,1.4c0,0.6,0.3,1.2,0.9,2l0,0.1l-0.1,0c-1,0.8-1.7,1.6-1.7,2.7c0,1.3,0.9,2.1,2.3,2.1
		c0.9,0,1.7-0.3,2.6-1.2l0.1-0.1l0.7,0.9c0.1,0.1,0.1,0.2,0.3,0.2H179.9z M176.1,107.7c0.5,0,0.8,0.3,0.8,0.8c0,0.5-0.3,0.8-0.8,1.3
		l-0.1,0.1l0-0.1c-0.5-0.7-0.6-1.1-0.6-1.3C175.3,108,175.6,107.7,176.1,107.7 M177.2,113.4c-0.5,0.5-1,0.9-1.6,0.9
		c-0.7,0-1.1-0.4-1.1-1.1c0-0.6,0.3-1.1,1.2-1.7l0.1,0L177.2,113.4L177.2,113.4z"/>
	<path fill="#483729" d="M193.2,107.4c0-0.2-0.1-0.3-0.3-0.4l0,0c-0.6-0.3-1.3-0.5-2-0.5c-1.2,0-2.3,0.4-3.1,1.3
		c-0.8,0.9-1.3,1.9-1.3,3.1c0,1.2,0.4,2.3,1.3,3.1c0.9,0.9,1.9,1.3,3.1,1.3c0.7,0,1.4-0.2,2.1-0.5c0.2-0.1,0.2-0.3,0.2-0.3v-0.7
		c0-0.1,0-0.2-0.1-0.2c-0.1-0.1-0.2,0-0.3,0c-0.6,0.3-1.2,0.4-1.9,0.4c-0.9,0-1.6-0.3-2.2-0.9c-0.6-0.6-0.9-1.4-0.9-2.2
		c0-0.9,0.3-1.6,0.9-2.2c0.6-0.6,1.3-0.9,2.2-0.9c0.4,0,0.8,0,1,0.1c0.3,0.1,0.5,0.2,0.8,0.3c0.1,0,0.2,0.1,0.3,0
		c0.1,0,0.1-0.1,0.1-0.3V107.4z"/>
	<path fill="#483729" d="M199.3,106.6c-1.2,0-2.3,0.4-3.1,1.3c-0.9,0.9-1.3,1.9-1.3,3.1c0,1.2,0.4,2.3,1.3,3.1
		c0.9,0.9,1.9,1.3,3.1,1.3c1.2,0,2.3-0.4,3.1-1.3c0.9-0.9,1.3-1.9,1.3-3.1c0-1.2-0.4-2.3-1.3-3.1C201.5,107,200.5,106.6,199.3,106.6
		 M201.4,113.2c-0.6,0.6-1.3,0.9-2.2,0.9c-0.9,0-1.6-0.3-2.2-0.9c-0.6-0.6-0.9-1.4-0.9-2.2c0-0.9,0.3-1.6,0.9-2.2
		c0.6-0.6,1.3-0.9,2.2-0.9c0.8,0,1.6,0.3,2.2,0.9c0.6,0.6,0.9,1.4,0.9,2.2C202.3,111.9,202,112.6,201.4,113.2"/>
	<path fill="#483729" d="M207.1,109.7l4.7,5.6c0.1,0.1,0.2,0.1,0.3,0c0.1,0,0.1-0.1,0.1-0.2V107c0-0.2-0.1-0.3-0.3-0.3h-0.8
		c-0.1,0-0.3,0.1-0.3,0.3v5.3l-0.1-0.2l-4.5-5.3c-0.1-0.1-0.2-0.2-0.3-0.1c-0.1,0-0.2,0.1-0.2,0.3v8.1c0,0.2,0.1,0.3,0.3,0.3h0.8
		c0.1,0,0.3-0.1,0.3-0.3V109.7z"/>
	<path fill="#483729" d="M220.4,106.7c-0.1,0-0.2,0-0.3,0.3l-2,5.6l-2-5.6c0-0.1-0.1-0.2-0.3-0.2l-0.9,0c-0.1,0-0.2,0.1-0.2,0.1
		c-0.1,0.1-0.1,0.2,0,0.3l3.2,8.1c0,0.1,0.1,0.1,0.2,0.1c0.1,0,0.1,0,0.2-0.2l3.2-8.1c0.1-0.1,0-0.2,0-0.3c0-0.1-0.1-0.1-0.2-0.1
		L220.4,106.7z"/>
	<path fill="#483729" d="M223.8,115c0,0.2,0.1,0.3,0.3,0.3h4c0.2,0,0.3-0.1,0.3-0.3v-0.6c0-0.4-0.2-0.4-0.3-0.4h-3v-2.5h3
		c0.1,0,0.3-0.1,0.3-0.4v-0.6c0-0.2-0.1-0.3-0.3-0.3h-3V108h3c0.3,0,0.3-0.2,0.3-0.3V107c0-0.1-0.1-0.3-0.3-0.3h-4
		c-0.2,0-0.3,0.1-0.3,0.3V115z"/>
	<path fill="#483729" d="M237.3,115.1V107c0-0.2-0.1-0.3-0.3-0.3h-0.8c-0.1,0-0.3,0.1-0.3,0.3v5.3l-0.1-0.2l-4.5-5.3
		c-0.1-0.1-0.2-0.2-0.3-0.1c-0.1,0-0.2,0.1-0.2,0.3v8.1c0,0.2,0.1,0.3,0.3,0.3h0.8c0.1,0,0.3-0.1,0.3-0.3v-5.3l4.7,5.6
		c0.1,0.1,0.2,0.1,0.3,0C237.3,115.3,237.3,115.2,237.3,115.1"/>
	<path fill="#483729" d="M246.5,107.7V107c0-0.1-0.1-0.3-0.3-0.3h-6.3c-0.2,0-0.3,0.1-0.3,0.3v0.7c0,0.1,0.1,0.3,0.3,0.3h2.5v7
		c0,0.3,0.2,0.3,0.3,0.3h0.8c0.1,0,0.3-0.1,0.3-0.3l0-7h2.5C246.4,108,246.5,107.8,246.5,107.7"/>
	<path fill="#483729" d="M249.8,106.7H249c-0.1,0-0.3,0.1-0.3,0.3v8c0,0.2,0.1,0.3,0.3,0.3h0.7c0.2,0,0.3-0.1,0.3-0.3v-8
		C250,106.8,249.9,106.7,249.8,106.7"/>
	<path fill="#483729" d="M256.7,106.6c-1.2,0-2.3,0.4-3.1,1.3c-0.9,0.9-1.3,1.9-1.3,3.1c0,1.2,0.4,2.3,1.3,3.1
		c0.9,0.9,1.9,1.3,3.1,1.3c1.2,0,2.3-0.4,3.1-1.3c0.9-0.9,1.3-1.9,1.3-3.1c0-1.2-0.4-2.3-1.3-3.1C258.9,107,257.9,106.6,256.7,106.6
		 M258.9,113.2c-0.6,0.6-1.3,0.9-2.2,0.9c-0.9,0-1.6-0.3-2.2-0.9c-0.6-0.6-0.9-1.4-0.9-2.2c0-0.9,0.3-1.6,0.9-2.2
		c0.6-0.6,1.3-0.9,2.2-0.9c0.8,0,1.6,0.3,2.2,0.9c0.6,0.6,0.9,1.4,0.9,2.2C259.7,111.9,259.4,112.6,258.9,113.2"/>
	<path fill="#483729" d="M269.7,115.1V107c0-0.2-0.1-0.3-0.3-0.3h-0.8c-0.1,0-0.2,0.1-0.2,0.3v5.3l-0.1-0.2l-4.5-5.3
		c-0.1-0.1-0.2-0.2-0.3-0.1c-0.1,0-0.2,0.1-0.2,0.3v8.1c0,0.2,0.1,0.3,0.3,0.3h0.8c0.1,0,0.3-0.1,0.3-0.3v-5.3l4.7,5.6
		c0.1,0.1,0.2,0.1,0.3,0C269.7,115.3,269.7,115.2,269.7,115.1"/>
</g>
</svg>
