<?xml version="1.0" encoding="utf-8"?>
<!-- Generator: Adobe Illustrator 22.0.0, SVG Export Plug-In . SVG Version: 6.00 Build 0)  -->
<svg version="1.2" baseProfile="tiny" id="Layer_1" xmlns="http://www.w3.org/2000/svg" xmlns:xlink="http://www.w3.org/1999/xlink"
	 x="0px" y="0px" viewBox="0 0 650 144" xml:space="preserve">
<g>
	<g>
		<path fill="#ED1C24" d="M293.2,66.2h6.2v20.5h-6.2V77h-9.3v9.7h-6.2V66.2h6.2v8.4h9.3V66.2z"/>
		<path fill="#ED1C24" d="M304.2,66.2h6.2v20.5h-6.2V66.2z"/>
		<path fill="#ED1C24" d="M326.4,86.6c-0.8,0-1.5,0.2-2.3-1.7l-5.3-13.4v15.2h-3.7V67.9c0-1,0.6-1.7,1.9-1.7h4
			c1.3,0,2.2,0.7,2.5,1.7l4.3,11.7l4.6-11.7c0.4-1,1.2-1.7,2.5-1.7h4.3c1.3,0,1.9,0.7,1.9,1.7v18.8h-6.2V71.1l-5.6,14
			c-0.6,1.6-1.4,1.5-2.1,1.5H326.4z"/>
		<path fill="#ED1C24" d="M363.8,86.6l-2.1-4.1h-11.8l-2.1,4.1h-4l10.4-19.1c0.4-0.8,1.2-1.3,2.2-1.3h2.1c1,0,1.8,0.6,2.2,1.3
			l9.7,19.1H363.8z M351.2,80.1h9.3l-3.5-7c-0.3-0.5-0.6-1-1.1-1c-0.5,0-0.9,0.6-1.1,1L351.2,80.1z"/>
		<path fill="#ED1C24" d="M388.8,86.6c-0.3-1.1-0.6-2.2-0.8-4.6c-0.3-3.1-3.4-3.8-6.2-3.8h-3.1v8.4h-6.3V69.2c0-2.7,1.4-3,2.9-3
			h10.6c8,0,9.4,3.2,9.4,5.6c0,2.9-1.7,5-5.8,5.4c3.6,0.3,4.4,2.3,4.7,4.9c0.2,1.9,0.5,3.5,1,4.5H388.8z M382.6,75.8
			c4.3,0,6.4-1,6.4-3.7c0-1.9-1.2-3.4-5.1-3.4h-3.5c-1.4,0-1.8,0.3-1.8,2v5.2H382.6z"/>
		<path fill="#ED1C24" d="M411.3,68.6v18h-6.2v-18h-8v-2.4h22.3v2.4H411.3z"/>
	</g>
	<g>
		<path fill="#ED1C24" d="M116.7,100.8c-6.6,6.6-17.5,6.6-24.1,0L80.3,88.5c-6.6-6.6-6.6-17.5,0-24.1l12.3-12.3
			c6.6-6.6,17.5-6.6,24.1,0L129,64.3c6.6,6.6,6.6,17.5,0,24.1L116.7,100.8z"/>
		<g>
			<g>
				<path fill="#FFFFFF" d="M97.3,94.4c-1,0-1.8-0.8-1.8-1.7c0-0.5,0.1-0.9,0.5-1.3c0.3-0.4,0.8-0.6,1.3-0.6c1,0,1.8,0.7,1.9,1.7
					C99.2,93.5,98.4,94.4,97.3,94.4C97.4,94.4,97.4,94.4,97.3,94.4z"/>
			</g>
			<g>
				<path fill="#FFFFFF" d="M103.9,60.9c-1,0-1.8,0.3-2.4,1c-1.4,1.4-2.1,4.2-2.1,8c0.1,4.7,1.2,13.9,4.9,18.6
					c0.6,0.8,1.2,1.4,1.9,1.8c0.6,0.4,1.4,0.8,2.5,0.8c0.3,0,0.6,0,1-0.1c2.1-0.5,4.8-2.9,6.7-6c0.3-0.5,0.8-0.8,1.4-0.8
					c0.3,0,0.6,0.1,0.9,0.2c0.4,0.2,0.6,0.6,0.7,1c0.1,0.4,0,0.9-0.2,1.2c-2.5,4-5.8,6.7-8.8,7.4c0,0,0,0-0.1,0
					c-0.6,0.1-1.1,0.2-1.6,0.2c-1.9,0-3.3-0.7-4.3-1.4c-1-0.6-1.9-1.5-2.7-2.5c-5.2-6.7-5.5-19.1-5.6-20.5c-0.1-3.3,0.4-7.8,3-10.4
					c1.3-1.3,2.9-1.9,4.7-1.9l0.3,0c1.9,0,3.5,0.6,4.7,1.9c2.6,2.6,3.1,7.1,3,10.4c-0.1,3.5-0.7,10.2-4.3,16.2
					c-0.3,0.5-0.8,0.8-1.4,0.8c-0.3,0-0.6-0.1-0.8-0.2c-0.8-0.5-1-1.5-0.6-2.2c2.5-4.2,3.7-8.8,3.8-14.6c0.1-3.8-0.7-6.7-2.1-8
					c-0.6-0.6-1.4-1-2.4-1L103.9,60.9z"/>
			</g>
		</g>
	</g>
	<g>
		<path fill="#ED1C24" d="M180.3,65.4c-8,0-12.8,5-12.8,11.1c0,6.1,4.8,11.1,12.8,11.1c8,0,12.9-5,12.9-11.1
			C193.1,70.3,188.3,65.4,180.3,65.4z M180.3,85.2c-3.8,0-6.8-3.9-6.8-8.7c0-4.8,2.9-8.7,6.8-8.7c3.9,0,6.8,3.9,6.8,8.7
			C187.1,81.3,184.1,85.2,180.3,85.2z"/>
		<polygon fill="#ED1C24" points="194.2,68.6 202.7,68.6 202.7,86.6 209.1,86.6 209.1,68.6 216.2,68.6 216.2,66.2 194.2,66.2 		"/>
		<polygon fill="#ED1C24" points="218.5,68.6 225.7,68.6 225.7,86.6 232.1,86.6 232.1,68.6 240.5,68.6 240.5,66.2 218.5,66.2 		"/>
		<path fill="#ED1C24" d="M154.7,83V66.2h-6.1v18c0,1.3,1.1,2.4,2.4,2.4h15.6v-2.5h-10.7C155.3,84.2,154.7,83.6,154.7,83z"/>
		<path fill="#ED1C24" d="M244,68.6v15.6c0,1.3,1.1,2.4,2.4,2.4h16.7v-2.4h-11.8c-0.7,0-1.2-0.5-1.2-1.2v-6h12.8v-2.4h-12.8v-4.8
			c0-0.7,0.5-1.2,1.2-1.2h11.8v-2.4h-16.7C245.1,66.2,244,67.3,244,68.6z"/>
	</g>
</g>
</svg>
