<?xml version="1.0" encoding="utf-8"?>
<!-- Generator: Adobe Illustrator 22.0.0, SVG Export Plug-In . SVG Version: 6.00 Build 0)  -->
<svg version="1.2" baseProfile="tiny" id="Layer_1" xmlns="http://www.w3.org/2000/svg" xmlns:xlink="http://www.w3.org/1999/xlink"
	 x="0px" y="0px" viewBox="0 0 650 144" xml:space="preserve">
<g>
	<g>
		<path fill="#ED1C24" d="M116.6,98.8c-6.6,6.6-17.5,6.6-24.1,0L80.3,86.5c-6.6-6.6-6.6-17.5,0-24.1l12.2-12.2
			c6.6-6.6,17.5-6.6,24.1,0l12.2,12.2c6.6,6.6,6.6,17.5,0,24.1L116.6,98.8z"/>
		<g>
			<g>
				<path fill="#FFFFFF" d="M97.3,92.4c-1,0-1.8-0.8-1.8-1.7c0-0.5,0.1-0.9,0.5-1.3c0.3-0.4,0.8-0.6,1.3-0.6c1,0,1.8,0.7,1.9,1.7
					C99.2,91.6,98.4,92.4,97.3,92.4C97.4,92.4,97.3,92.4,97.3,92.4z"/>
			</g>
			<g>
				<path fill="#FFFFFF" d="M103.9,59c-1,0-1.8,0.3-2.4,1c-1.4,1.4-2.1,4.2-2.1,8c0.1,4.7,1.2,13.9,4.9,18.6
					c0.6,0.8,1.2,1.4,1.9,1.8c0.6,0.4,1.4,0.8,2.5,0.8c0.3,0,0.6,0,1-0.1c2.1-0.5,4.8-2.9,6.7-6c0.3-0.5,0.8-0.8,1.4-0.8
					c0.3,0,0.6,0.1,0.9,0.2c0.4,0.2,0.6,0.6,0.7,1c0.1,0.4,0,0.9-0.2,1.2c-2.5,4-5.8,6.7-8.8,7.4c0,0,0,0-0.1,0
					c-0.6,0.1-1.1,0.2-1.6,0.2c-1.9,0-3.3-0.7-4.3-1.4c-1-0.6-1.9-1.5-2.7-2.5c-5.2-6.7-5.5-19.1-5.6-20.5c-0.1-3.3,0.4-7.8,3-10.4
					c1.3-1.3,2.8-1.9,4.7-1.9l0.3,0c1.9,0,3.5,0.6,4.7,1.9c2.6,2.6,3.1,7.1,3,10.4c-0.1,3.5-0.7,10.2-4.3,16.2
					c-0.3,0.5-0.8,0.8-1.4,0.8c-0.3,0-0.6-0.1-0.8-0.2c-0.8-0.5-1-1.5-0.6-2.2c2.5-4.2,3.7-8.8,3.8-14.5c0.1-3.8-0.7-6.6-2.1-8
					c-0.6-0.6-1.4-1-2.4-1H103.9z"/>
			</g>
		</g>
	</g>
	<g>
		<g>
			<path fill="#ED1C24" d="M180.1,63.4c-8,0-12.8,5-12.8,11.1c0,6.1,4.8,11.1,12.8,11.1c8,0,12.8-5,12.8-11.1
				C193,68.4,188.1,63.4,180.1,63.4z M180.1,83.2c-3.8,0-6.8-3.9-6.8-8.7c0-4.8,2.9-8.7,6.8-8.7c3.9,0,6.8,3.9,6.8,8.7
				C186.9,79.3,184,83.2,180.1,83.2z"/>
			<polygon fill="#ED1C24" points="194.1,66.7 202.5,66.7 202.5,84.7 208.9,84.7 208.9,66.7 216,66.7 216,64.2 194.1,64.2 			"/>
			<polygon fill="#ED1C24" points="218.3,66.7 225.5,66.7 225.5,84.7 231.8,84.7 231.8,66.7 240.3,66.7 240.3,64.2 218.3,64.2 			
				"/>
			<path fill="#ED1C24" d="M154.6,81V64.2h-6.1v18c0,1.3,1.1,2.4,2.4,2.4h15.6v-2.5h-10.7C155.2,82.2,154.6,81.7,154.6,81z"/>
			<path fill="#ED1C24" d="M243.7,66.7v15.6c0,1.3,1.1,2.4,2.4,2.4h16.7v-2.4h-11.8c-0.7,0-1.2-0.5-1.2-1.2v-6h12.8v-2.4h-12.8v-4.8
				c0-0.7,0.5-1.2,1.2-1.2h11.8v-2.4h-16.7C244.8,64.2,243.7,65.3,243.7,66.7z"/>
		</g>
		<g>
			<g>
				<path fill="#ED1C24" d="M368.5,69.1v-4.9h-5.2v-5.8l-7.3,0v5.8h-4.7c-3.6,0-5.7,1.5-6.8,2.7v-2.7h-1.2h-6.2v5.5c0,0.5,0,1,0,1.5
					l0,1.3v12.9h7.4V74.7c0,0,0,0,0-0.1c0-0.5,0-1,0.1-1.4c0,0,1-4.2,6.6-4.2h4.7v8.7c0,3,0.7,5,2.1,6.3c1.1,0.9,2.7,1.6,4.8,1.8v0
					h5.7v-5.4h-0.1h-1.5H366c-2-0.1-2.7-1.3-2.7-3.7v-7.7H368.5z"/>
				<path fill="#ED1C24" d="M334.1,80.3v-7.4c0-0.3,0-0.5,0-0.8c-0.3-4.6-2.9-8.4-10.4-8.4c-4.3,0-7.6,1.1-9.3,1.9l1.4,4.2
					c1.6-0.8,4.1-1.6,6.6-1.6c3.7,0,4.3,1.6,4.3,2.7v0.3c-8.4,0-14,2.6-14,8.1c0,3.4,2.9,6.5,7.7,6.5c2.6,0,4.9-0.8,6.5-2.3v1.8h7.2
					v-3.8C334.1,81.2,334.1,80.7,334.1,80.3z M326.9,77.6c0,0.4-0.1,0.8-0.1,1.1c-0.5,1.4-2.1,2.4-3.9,2.4c-1.7,0-2.9-0.8-2.9-2.5
					c0-2.5,3-3.3,6.9-3.3V77.6z"/>
			</g>
			<polygon fill="#ED1C24" points="307.1,58.5 306.7,58.5 306.7,58.5 298.8,58.5 298.8,58.5 292.9,74.7 287.3,58.5 286.8,58.5 
				286.8,58.5 286.7,58.5 279,58.5 279,58.5 275.1,85.4 280.6,85.4 281.1,85.4 283.4,69.3 288.9,85.4 289.4,85.4 293.9,85.4 
				294.4,85.4 300.3,69.1 302.5,85.4 303,85.4 310.3,85.4 310.8,85.4 			"/>
		</g>
	</g>
</g>
</svg>
