<?xml version="1.0" encoding="utf-8"?>
<!-- Generator: Adobe Illustrator 22.0.0, SVG Export Plug-In . SVG Version: 6.00 Build 0)  -->
<svg version="1.2" baseProfile="tiny" id="Layer_1" xmlns="http://www.w3.org/2000/svg" xmlns:xlink="http://www.w3.org/1999/xlink"
	 x="0px" y="0px" viewBox="0 0 650 144" xml:space="preserve">
<g>
	<path fill="#98938E" d="M309.1,52.1h-11.3c1.5,1.2,2.5,2.8,2.7,4.5c0.1,0.7,0.1,1.6,0.1,3.2v27.5c0,1.6,0,2.5-0.1,3.2
		c-0.2,1.7-1.3,3.3-2.7,4.5l0,0h11.3l0,0c-1.5-1.3-2.6-3-2.8-4.8h0c-0.1-0.7-0.1-1.6-0.1-2.9V59.8c0-1.4,0-2.3,0.1-2.9h0
		C306.5,55,307.6,53.4,309.1,52.1z"/>
	<path fill="#98938E" d="M138.4,52.1h-11.3c1.5,1.2,2.5,2.8,2.7,4.5c0.1,0.7,0.1,1.6,0.1,3.2v27.5c0,1.6,0,2.5-0.1,3.2
		c-0.2,1.7-1.3,3.3-2.7,4.5l0,0h11.3l0,0c-1.5-1.3-2.6-3-2.8-4.8h0c-0.1-0.7-0.1-1.6-0.1-2.9V59.8c0-1.4,0-2.3,0.1-2.9h0
		C135.8,55,136.9,53.4,138.4,52.1z"/>
	<path fill="#98938E" d="M204.7,78.8h-10.2c1.4,1.2,2.5,2.5,2.8,4.1c0,0,0,0,0,0c0,0.1,0,0.2,0,0.2c0,0.1,0,0.1,0,0.2c0,0,0,0,0,0h0
		c0.1,0.6,0.1,1.3,0.1,2.5v2.6l-0.4,0.3l0,0c-1.8,1.4-5.1,3.7-10.7,3.7c-9.2,0-15.6-8-15.6-19.4l0,0c0-0.1,0-0.2,0-0.2
		c0,0,0-0.1,0-0.1h0c0-10.5,6.9-18.1,16.3-18.1c2.8,0,4.7,0.5,6,1.2c0.6,0.3,1.1,0.7,1.6,1.2c1.6,1.5,2.8,3.7,3.3,6.3l0.1-0.3
		l3.1-9.9h-1.2c-1.1,0-2.7-0.4-4.6-0.8c-2.6-0.6-5.4-1.2-8.4-1.2c-12.8,0-22.4,9.6-22.4,22.3c0,16.4,13.5,22.6,22.1,22.6
		c4.3,0,8.3-1.8,11.2-3c1.5-0.7,3-1.3,3.7-1.3h0.9V86c0-1.1,0-1.9,0-2.5l0,0C202.6,81.7,203.5,80.2,204.7,78.8z"/>
	<path fill="#98938E" d="M96.9,73.1c-2-2.2-4.4-3.8-6.8-5.4c-3.8-2.6-7.2-4.7-7.2-8.2l0,0c0,0,0,0,0,0c0,0,0,0,0,0
		c0-0.3,0-0.5,0.1-0.8c0.4-2.5,3-4.1,5.6-4.1c1.3,0,2.3,0.2,3.3,0.5v0c0,0,0,0,0.1,0c0,0,0,0,0,0c2,0.7,3.7,2.3,5.6,4.1v-6.1
		l-1.8-0.5c-0.6-0.2-1.2-0.4-1.8-0.5c-1.7-0.5-3.5-0.9-5.3-0.9c-1.6,0-3.1,0.3-4.5,0.9c-3.6,1.6-6,4.9-6.1,9c0.1,5,4.7,8.4,9.2,11.6
		c1.3,0.9,2.5,1.8,3.7,2.8c3.7,3,5.5,6,5.5,9.2v0.2c0,0,0,0,0,0.1c0,3.6-2.6,5.7-5.4,6.8c-1.3,0.5-2.7,0.7-3.8,0.7
		c-1.5,0-2.8-0.3-3.9-0.7c-1.2-0.5-2.2-1.1-3-1.8v0c0,0,0,0-0.1-0.1c0,0,0,0-0.1-0.1c-2.6-2.2-4.6-4.8-5.2-6v8v0.1l0.4,0.3
		c0.1,0.1,0.3,0.2,0.5,0.3c1,0.7,2.7,1.9,5.4,2.7c1.7,0.5,3.6,0.9,6,0.9c2,0,3.8-0.3,5.4-0.9c2.1-0.8,3.9-2,5.2-3.4
		c2.1-2.3,3.3-5.2,3.3-8C101.1,79.6,99.7,76.1,96.9,73.1z"/>
	<path fill="#98938E" d="M417.6,83c-1.9,2.2-4,4.1-5.9,5.6c-0.1,0.1-0.2,0.2-0.4,0.3c-0.1,0.1-0.2,0.1-0.3,0.2
		c-1.9,1.3-4.7,2.4-9.3,2.4c-5.3,0-5.6-1.4-5.6-5.7V59.8c0-1.5,0-2.4,0.1-3.1c0.2-1.8,1.3-3.4,2.8-4.7H388c1.5,1.3,2.4,2.9,2.6,4.6
		c0.1,0.7,0.1,1.6,0.1,3.1v27.5c0,3.1,0,4.3-2.6,6.1l-2.5,1.7h27.7L417.6,83L417.6,83z"/>
	<g>
		<polygon fill="#98938E" points="241.4,95 241.4,95 241.4,95 		"/>
		<path fill="#98938E" d="M261.9,52.1c1,0.8,1.8,1.6,2.3,2.7c0.1,0.3,0.2,0.6,0.3,0.9c0,0.1,0,0.2,0,0.3c0,0.2,0.1,0.5,0.1,0.9
			c0,0.4,0,0.9,0,1.6v25.3l-27.8-31.6H236h-0.7h-9.9l1.8,0.8c3.9,1.8,5.9,3.5,7.5,5.6v0.5v0.6v29.1c0,0.7,0,1.2,0,1.7
			c0,0.3,0,0.6-0.1,0.8c-0.1,0.4-0.2,0.8-0.3,1.1c-0.5,1-1.3,1.8-2.2,2.6l0,0h9.4c-1.1-0.9-1.9-1.7-2.4-2.9
			c-0.1-0.3-0.2-0.5-0.2-0.9c0-0.3-0.1-0.7-0.1-1.1c0-0.4,0-0.9,0-1.5V67.5v-4v-0.9l29.9,33.7v-38c0-0.6,0-1,0-1.5
			c0-0.5,0.1-0.9,0.1-1.2c0.1-0.3,0.2-0.6,0.3-0.9c0.5-1.1,1.3-1.9,2.3-2.7L261.9,52.1L261.9,52.1z"/>
	</g>
	<path fill="#98938E" d="M360.5,88.3c-0.3,0.2-0.6,0.5-0.9,0.7c-1.9,1.3-4.7,2.4-9.3,2.4c-5.3,0-5.6-1.4-5.6-5.7V73.1l0,0l0,0h10.4
		c1.9,0,3.6,1.1,4.8,2.5v-8.5c-1.2,1.4-2.9,2.5-4.8,2.5h-10.4l0,0l0,0v-14l0,0l0,0h9c3.1,0,5.2,2.1,6.5,4.6v-8.2h-25.8
		c2.9,1,4.4,3.5,4.5,4.8l0,0c0.2,0.8,0.2,1.7,0.2,2.9v27.5c0,1.2,0,2.1-0.2,2.9l0,0c-0.2,1.3-1.6,3.9-4.5,4.8h27.2l4.4-12
		C364.3,85.1,362.4,86.9,360.5,88.3z"/>
</g>
</svg>
