<?xml version="1.0" encoding="utf-8"?>
<!-- Generator: Adobe Illustrator 22.0.0, SVG Export Plug-In . SVG Version: 6.00 Build 0)  -->
<svg version="1.2" baseProfile="tiny" id="Layer_1" xmlns="http://www.w3.org/2000/svg" xmlns:xlink="http://www.w3.org/1999/xlink"
	 x="0px" y="0px" viewBox="0 0 650 144" xml:space="preserve">
<g>
	<path d="M123.2,74.2v3.4h-48v-3.4h20.5v-4.6H84.3c-1,0-1.9-0.3-2.6-1c-0.7-0.6-1.1-1.5-1.1-2.5V58H110v-4.7H80.7v-3.4h36.2v11.5
		H87.7v3.2c0,0.5,0.1,0.9,0.3,1.1c0.2,0.2,0.6,0.3,1.1,0.3h28.5v3.5h-14.8v4.6H123.2z M104.9,84.4c0.8,1.1,1.8,2.2,2.9,3.1
		c1.1,0.9,2.3,1.8,3.5,2.5c1.2,0.8,2.5,1.4,3.7,2c1.2,0.6,2.3,1,3.3,1.4c1,0.3,1.9,0.5,2.6,0.6l-2.1,3c-1-0.1-2.4-0.4-4-0.8
		c-1.6-0.4-3.3-1-5.2-1.8c-1.8-0.8-3.7-1.7-5.5-2.9c-1.8-1.1-3.5-2.5-4.9-4c-1.4,1.6-3.1,2.9-4.9,4c-1.8,1.2-3.7,2.1-5.5,2.9
		c-1.8,0.8-3.5,1.4-5.2,1.8c-1.6,0.4-3,0.7-4,0.8l-2-3c1-0.1,2.4-0.5,4.2-1.2c1.7-0.7,3.5-1.6,5.4-2.7c1.8-1.1,3.5-2.5,5.1-4
		c1.5-1.6,2.6-3.3,3.2-5.2h7.6C103.4,82,104,83.2,104.9,84.4"/>
	<path d="M149.1,79c1.3,0,2.4,0,3.3-0.1c0.8-0.1,1.6-0.3,2.2-0.8V67.5h-10V64h10V49.1h6.9v47.4h-6.9V81.7c-0.5,0.3-1.2,0.5-2.1,0.6
		c-0.9,0.1-2,0.2-3.4,0.2h-14.3c-1.4,0-2.5-0.4-3.4-1.3c-0.9-0.9-1.3-2-1.3-3.2V50.9H150v3.6h-12.9v22.8c0,0.5,0.1,0.9,0.4,1.3
		c0.2,0.3,0.7,0.5,1.3,0.5H149.1z M166.3,49.1h6.9v47.4h-6.9V49.1z"/>
	<g>
		<path d="M238.2,50.8h29v3.5h-10.8v6.4c0,2.6,0.4,5,1.2,7.2c0.8,2.2,1.8,4.2,3.1,5.9c1.2,1.7,2.6,3.2,4.2,4.4
			c1.5,1.2,3.1,2.1,4.6,2.8l-2.7,2.6c-0.8-0.2-1.9-0.6-3.1-1.2c-1.2-0.6-2.5-1.3-3.8-2.2c-1.3-0.9-2.6-1.9-3.8-3.1
			c-1.2-1.2-2.3-2.5-3.2-3.9c-0.8,1.3-1.9,2.6-3.1,3.8c-1.2,1.2-2.5,2.2-3.7,3.2c-1.3,0.9-2.5,1.7-3.7,2.3c-1.2,0.6-2.3,1-3.2,1.2
			l-2.6-2.6c1.6-0.6,3.1-1.6,4.5-2.8c1.5-1.2,2.8-2.7,3.9-4.4c1.2-1.7,2.1-3.6,2.8-5.7c0.7-2.1,1-4.4,1-6.8v-7h-10.6V50.8z
			 M274,49.1h7.2v47.4H274V49.1z"/>
	</g>
	<g>
		<path d="M297.5,78.2v14.1c0,1.2,0.3,2.3,1,3c0.6,0.8,1.7,1.1,3.3,1.1h31.5V78.2H297.5z M326.1,92.8h-19.7c-0.6,0-1.1-0.2-1.4-0.5
			c-0.3-0.3-0.4-0.8-0.4-1.5v-9h21.5V92.8z"/>
	</g>
	<g>
		<g>
			<path d="M192.9,72.1c-1.5,0-2.6-0.4-3.3-1.2c-0.7-0.8-1.1-1.8-1.1-3.1V49.9h35.8v22.2H192.9z M195.7,67.4c0,0.8,0.4,1.2,1.3,1.2
				h20.2V53.4h-21.5V67.4z"/>
		</g>
	</g>
	<path d="M303.8,74.9c1.7,0,3.3-0.2,4.9-0.7c1.6-0.5,3-1.2,4.3-2.1c1.3-0.9,2.4-2.1,3.2-3.4c0.9-1.3,1.5-2.9,1.7-4.5h8.2v11.5h7.1
		V49.1h-7.1v11.5H318c-0.2-1.7-0.8-3.2-1.6-4.6c-0.9-1.3-1.9-2.5-3.2-3.4c-1.3-1-2.7-1.7-4.3-2.2c-1.6-0.5-3.2-0.8-4.9-0.8
		c-1.8,0-3.6,0.3-5.3,0.9c-1.7,0.6-3.2,1.5-4.5,2.5c-1.3,1.1-2.3,2.4-3.1,4c-0.8,1.6-1.2,3.3-1.2,5.2c0,1.9,0.4,3.6,1.2,5.2
		c0.8,1.6,1.8,2.9,3.1,4c1.3,1.1,2.8,1.9,4.5,2.5C300.3,74.6,302,74.9,303.8,74.9z M297.1,62.3c0-1.3,0.2-2.5,0.5-3.6
		c0.3-1.1,0.7-2,1.3-2.9c0.6-0.8,1.3-1.5,2.1-1.9c0.8-0.5,1.8-0.7,2.9-0.7c1.1,0,2.1,0.2,2.9,0.7c0.9,0.5,1.6,1.1,2.1,1.9
		c0.6,0.8,1,1.8,1.3,2.9c0.3,1.1,0.4,2.3,0.4,3.6c0,1.1-0.2,2.2-0.4,3.3c-0.3,1.1-0.7,2-1.3,2.9c-0.6,0.8-1.3,1.5-2.1,2
		c-0.9,0.5-1.8,0.8-2.9,0.8c-1.1,0-2.1-0.3-2.9-0.8c-0.8-0.5-1.5-1.2-2.1-2c-0.6-0.9-1-1.8-1.3-2.9
		C297.3,64.5,297.1,63.4,297.1,62.3z"/>
	<polygon points="192.6,80.8 182.6,80.8 182.6,77.4 230.7,77.4 230.7,80.8 220,80.8 220,96.5 212.9,96.5 212.9,80.8 199.8,80.8 
		199.8,96.5 192.6,96.5 	"/>
</g>
</svg>
